<?xml version="1.0" standalone="no"?>
<!DOCTYPE svg PUBLIC "-//W3C//DTD SVG 1.1//EN" "http://www.w3.org/Graphics/SVG/1.1/DTD/svg11.dtd" >
<svg>
<metadata>
Created by FontForge 20090914 at Thu Jan 31 09:13:52 2013
 By www-data
Erik Spiekermann, Cyrillic version by ParaType, published by FontShop International for the FontFont Library
</metadata>
<defs>
<font id="MetaBoldCyrLF-Roman" horiz-adv-x="560" >
  <font-face 
    font-family="MetaBoldCyrLF-Roman"
    font-weight="700"
    font-stretch="normal"
    units-per-em="1000"
    panose-1="2 0 8 3 0 0 0 0 0 0"
    ascent="800"
    descent="-200"
    x-height="512"
    cap-height="695"
    bbox="-45.002 -224.003 1180 937.001"
    underline-thickness="20"
    underline-position="-142"
    unicode-range="U+0020-U+22C5"
  />
<missing-glyph horiz-adv-x="225" 
 />
    <glyph glyph-name=".notdef" horiz-adv-x="225" 
 />
    <glyph glyph-name=".null" horiz-adv-x="0" 
 />
    <glyph glyph-name=".null" horiz-adv-x="0" 
 />
    <glyph glyph-name="space" unicode=" " horiz-adv-x="225" 
 />
    <glyph glyph-name="exclam" unicode="!" horiz-adv-x="295" 
d="M226 710l-28 -489h-102l-30 466zM230 70c0 -22.667 -8.16699 -42.167 -24.5 -58.5s-36.166 -24.5 -59.499 -24.5c-22.667 0 -41.834 8 -57.501 24s-23.5 35.667 -23.5 59c0 22.667 8.16699 42.167 24.5 58.5s35.833 24.5 58.5 24.5s42 -8.16699 58 -24.5
s24 -35.833 24 -58.5z" />
    <glyph glyph-name="quotedbl" unicode="&#x22;" horiz-adv-x="488" 
d="M423 426h-126v282h126v-282zM191 426h-126v282h126v-282z" />
    <glyph glyph-name="numbersign" unicode="#" horiz-adv-x="562" 
d="M532 416h-96l-17 -125h84v-90h-96l-28 -201h-97l28 201h-99l-28 -201h-97l28 201h-84v90h96l17 125h-84v90h96l28 201h97l-28 -201h99l28 201h97l-28 -201h84v-90zM339 416h-99l-17 -125h99z" />
    <glyph glyph-name="dollar" unicode="$" horiz-adv-x="584" 
d="M294 449l84 -23c56.667 -15.333 100.167 -40.833 130.5 -76.5s45.5 -79.167 45.5 -130.5c0 -64 -22 -116.833 -66 -158.5s-103 -66.167 -177 -73.5v-81h-86v81c-69.333 6 -134.333 26.333 -195 61l52 109c71.333 -37.333 135 -56 191 -56c81.333 0 122 31.667 122 95
c0 43.333 -30.333 73.333 -91 90l-77 21c-67.333 18.667 -113 48 -137 88c-19.333 31.333 -29 66.666 -29 105.999c0 57.333 19 105.333 57 144s88.667 61.667 152 69v72h86v-73c72 -7.33301 134 -29.666 186 -66.999l-66 -100c-58.667 35.333 -112.667 53 -162 53
c-28.667 0 -52 -7.5 -70 -22.5s-27 -34.167 -27 -57.5c0 -18 5.66699 -32.167 17 -42.5s31.333 -19.5 60 -27.5z" />
    <glyph glyph-name="percent" unicode="%" horiz-adv-x="840" 
d="M810 164c0 -54.667 -15.667 -97.333 -47 -128c-32 -30.667 -73.667 -46 -125 -46s-92.333 15.5 -123 46.5s-46 72.833 -46 125.5c0 52 15.5 94 46.5 126s71.833 48 122.5 48c54 0 96.667 -16.667 128 -50c29.333 -29.333 44 -70 44 -122zM371 533.001
c0 -54.667 -15.667 -97.333 -47 -128c-32 -30.667 -73.667 -46 -125 -46s-92.333 15.5 -123 46.5s-46 72.833 -46 125.5c0 52 15.5 94 46.5 126s71.833 48 122.5 48c54 0 96.667 -16.667 128 -50c29.333 -29.333 44 -70 44 -122zM650 695.002l-364 -695h-95l364 695h95z
M260 535.002c0 40.667 -6.66602 67.333 -19.999 80c-10.667 10.667 -24.667 16 -42 16c-24.667 0 -41.334 -10 -50.001 -30c-6 -14.667 -9 -37 -9 -67c0 -37.333 3.66699 -62.333 11 -75c10.667 -16.667 27.334 -25 50.001 -25c21.333 0 36.666 8 45.999 24s14 41.667 14 77
zM699.001 166.001c0 40.667 -6.66602 67.333 -19.999 80c-10.667 10.667 -24.667 16 -42 16c-24.667 0 -41.334 -10 -50.001 -30c-6 -14.667 -9 -37 -9 -67c0 -37.333 3.66699 -62.333 11 -75c10.667 -16.667 27.334 -25 50.001 -25c21.333 0 36.666 8 45.999 24
s14 41.667 14 77z" />
    <glyph glyph-name="ampersand" unicode="&#x26;" horiz-adv-x="705" 
d="M710 0h-186l-42 42c-17.333 -14.667 -37.333 -26.667 -60 -36c-34 -13.333 -77.667 -20 -131 -20c-80 0 -141.833 16.5 -185.5 49.5s-65.5 79.5 -65.5 139.5c0 76.667 41.667 134.334 125 173.001c-33.333 26 -55 49.667 -65 71c-10.667 22.667 -16 49 -16 79
c0 49.333 18.667 89.666 56 120.999s85.333 47 144 47c59.333 0 108 -14.667 146 -44s57 -67.333 57 -114c0 -38 -11.333 -70 -34 -96c-16 -17.333 -45.333 -38 -88 -62l-9 -5l116 -110c6 23.333 9 56 9 98v7h112v-6c0 -75.333 -10.667 -137.333 -32 -186zM400 118
l-163 156.999c-36 -22 -54 -52.667 -54 -92c0 -31.333 9.83301 -55.666 29.5 -72.999s47.167 -26 82.5 -26c48 0 83 11.333 105 34zM347 505.999c0 19.333 -5.83301 35.333 -17.5 48s-26.5 19 -44.5 19c-19.333 0 -34.833 -6 -46.5 -18s-17.5 -27.667 -17.5 -47
c0 -14.667 3.33301 -27.5 10 -38.5s20.667 -27.5 42 -49.5l8 -8c44 22.667 66 54 66 94z" />
    <glyph glyph-name="quotesingle" unicode="'" horiz-adv-x="256" 
d="M191 426h-126v282h126v-282z" />
    <glyph glyph-name="parenleft" unicode="(" horiz-adv-x="312" 
d="M332 -91l-34.9971 -78.002c-48.667 16.667 -91.334 42.834 -128.001 78.501s-65.334 78.5 -86.001 128.5c-20.667 51.333 -34 120 -40 206c-2 29.333 -3 55.333 -3 78c0 71.333 6.66699 134.666 20 189.999c14.667 62 44.667 117.667 90 167
c41.333 44 89.666 78 144.999 102l35 -79c-23.333 -16.667 -41.333 -31.334 -54 -44.001c-35.333 -35.333 -60.333 -75.666 -75 -120.999c-12.667 -36 -20.334 -79.667 -23.001 -131c-1.33301 -19.333 -2 -46.666 -2 -81.999c0 -47.333 2.66699 -98.666 8 -153.999
c7.33301 -67.333 23 -122 47 -164c12.667 -22.667 26.334 -41 41.001 -55s34.667 -28 60 -42z" />
    <glyph glyph-name="parenright" unicode=")" horiz-adv-x="310" 
d="M-20 704l34.999 77.9971c49.333 -17.333 92.333 -43.666 129 -78.999s65 -78.333 85 -129c20 -52 33 -120.667 39 -206c1.33301 -18.667 2 -43.667 2 -75c0 -78.667 -6.33301 -143 -19 -193c-15.333 -61.333 -45.666 -116.666 -90.999 -165.999
c-40.667 -44.667 -89.334 -78.667 -146.001 -102l-34 79c20 14.667 38 29.334 54 44.001c35.333 35.333 60.666 75.666 75.999 120.999c10.667 32.667 18 76.334 22 131.001c2 30 3 58 3 84c0 56 -2.66699 106.667 -8 152c-8 69.333 -23.333 124 -46 164
c-13.333 22.667 -27.166 41 -41.499 55s-34.166 28 -59.499 42z" />
    <glyph glyph-name="asterisk" unicode="*" horiz-adv-x="476" 
d="M451 518l-131 -42l83 -114l-83 -61l-84 115l-81 -110l-81 61l84 109l-133 46l32 95l131 -47v138h102v-138l131 43z" />
    <glyph glyph-name="plus" unicode="+" horiz-adv-x="628" 
d="M588 240h-211v-211h-126v211h-211v126h211v211h126v-211h211v-126z" />
    <glyph glyph-name="comma" unicode="," horiz-adv-x="284" 
d="M93 -145l-53 55.999c22 4.66699 39.5 12.334 52.5 23.001s19.5 22 19.5 34c0 10.667 -8.66699 21.334 -26 32.001c-26 15.333 -39 38.666 -39 69.999c0 24 8.5 44.333 25.5 61s37.5 25 61.5 25c29.333 0 53.333 -11.333 72 -34s28 -51.334 28 -86.001
c0 -43.333 -13 -81.666 -39 -114.999s-60 -55.333 -102 -66z" />
    <glyph glyph-name="hyphen" unicode="-" horiz-adv-x="320" 
d="M280 216h-240v116h240v-116z" />
    <glyph glyph-name="period" unicode="." horiz-adv-x="276" 
d="M226 73c0 -24.667 -8.66699 -45.667 -26 -63s-38 -26 -62 -26c-24.667 0 -45.5 8.66699 -62.5 26s-25.5 38.333 -25.5 63c0 24 8.5 44.5 25.5 61.5s37.5 25.5 61.5 25.5c24.667 0 45.667 -8.5 63 -25.5s26 -37.5 26 -61.5z" />
    <glyph glyph-name="slash" unicode="/" horiz-adv-x="436" 
d="M396 764l-268 -918h-88l268 918h88z" />
    <glyph glyph-name="zero" unicode="0" 
d="M517 333c0 -104.667 -22 -188.667 -66 -252s-101.333 -95 -172 -95c-72.667 0 -130.334 31.167 -173.001 93.5s-64 145.833 -64 250.5s22 188.667 66 252s101.333 95 172 95c72.667 0 130.334 -31.167 173.001 -93.5s64 -145.833 64 -250.5zM368 329
c0 94.667 -7.5 160 -22.5 196s-36.833 54 -65.5 54c-59.333 0 -89 -81.333 -89 -244c0 -64.667 4 -116.167 12 -154.5s18 -64 30 -77s27.333 -19.5 46 -19.5c59.333 0 89 81.667 89 245z" />
    <glyph glyph-name="one" unicode="1" 
d="M450 0h-335v109h117v404c-42 -26 -86.333 -47 -133 -63l-34 72l207 145h91v-558h87v-109z" />
    <glyph glyph-name="two" unicode="2" 
d="M512 112l-28.999 -112.001h-429v94c68 66.667 123.667 123.334 167 170.001c72.667 80 109 148.333 109 205c0 60 -27.667 90 -83 90c-40.667 0 -87.667 -22 -141 -66l-72 85c74 66 158 99 252 99c59.333 0 106.666 -17.667 141.999 -53s53 -81.333 53 -138
c0 -65.333 -39 -141 -117 -227c-32 -35.333 -71.667 -75 -119 -119c-14 -14 -26.667 -25 -38 -33c24.667 3.33301 59.667 5 105 5h200z" />
    <glyph glyph-name="three" unicode="3" 
d="M507 204c0 -68.667 -32.834 -124.833 -98.501 -168.5s-150.167 -65.5 -253.5 -65.5c-30 0 -57.667 1.66699 -83 5l-32 93c24 -4.66699 49.333 -7 76 -7c69.333 0 125.666 14.333 168.999 43s65 65.667 65 111c0 16.667 -4 32 -12 46s-18.667 24 -32 30
c-16.667 8 -47.667 12 -93 12c-5.33301 0 -13.666 -0.166992 -24.999 -0.5s-20 -0.5 -26 -0.5v112c20.667 -2.66699 43.667 -4 69 -4c74 0 111 26.333 111 79c0 22.667 -7.16699 40.834 -21.5 54.501s-35.5 20.5 -63.5 20.5c-54 0 -103.333 -18.667 -148 -56l-70 85
c72 56 150.667 84 236 84c62.667 0 114.334 -16.5 155.001 -49.5s61 -74.5 61 -124.5c0 -35.333 -9.83301 -66.333 -29.5 -93s-44.167 -44.667 -73.5 -54c37.333 -12.667 66.5 -32.334 87.5 -59.001s31.5 -57.667 31.5 -93z" />
    <glyph glyph-name="four" unicode="4" 
d="M527 125h-44.999l-31 2c3.33301 -8.66699 5 -20.667 5 -36v-115l-127 -16v143l2 25c-8 -2 -18.667 -3 -32 -3h-265v91l193 453h138l-142 -338c-16.667 -39.333 -32.334 -70.333 -47.001 -93c7.33301 1.33301 14.333 2 21 2h113l24 -1c-0.666992 8.66699 -1 14.667 -1 18
c0 42.667 2.33301 87 7 133l11 117l105 24v-197c0 -35.333 -1 -67 -3 -95c13.333 0.666992 24 1 32 1h42v-115z" />
    <glyph glyph-name="five" unicode="5" 
d="M492 224c0 -74 -29.499 -134.833 -88.499 -182.5s-134.5 -71.5 -226.5 -71.5c-26 0 -51.333 2.33301 -76 7l-29 99c35.333 -9.33301 66.666 -14 93.999 -14c53.333 0 96.833 13.667 130.5 41s50.5 62.333 50.5 105c0 32 -10 57.667 -30 77s-46.333 29 -79 29
c-37.333 0 -86 -9.33301 -146 -28l32 379h341l-20 -114h-196l-14 -138c17.333 3.33301 33 5 47 5c62 0 112.5 -18 151.5 -54s58.5 -82.667 58.5 -140z" />
    <glyph glyph-name="six" unicode="6" 
d="M522 214c0 -64.667 -22.5 -118.832 -67.5 -162.499s-100.5 -65.5 -166.5 -65.5c-73.333 0 -133.5 26.333 -180.5 79s-70.5 120.334 -70.5 203.001c0 118 46 220 138 306c67.333 63.333 153 111.666 257 144.999l29 -96c-36.667 -14.667 -63.5 -25.834 -80.5 -33.501
s-37.833 -20.167 -62.5 -37.5s-45.667 -37.333 -63 -60c-24.667 -30.667 -42.667 -64 -54 -100c27.333 22 63 33 107 33c60.667 0 111.5 -20.333 152.5 -61s61.5 -90.667 61.5 -150zM381 212.002c0 32 -8.16602 57.502 -24.499 76.502s-38.5 28.5 -66.5 28.5
c-31.333 0 -66 -11 -104 -33c-2 -18.667 -3 -38.667 -3 -60c0 -42.667 8.66699 -75.834 26 -99.501s41.666 -35.5 72.999 -35.5c30 0 54 11.167 72 33.5s27 52.166 27 89.499z" />
    <glyph glyph-name="seven" unicode="7" 
d="M517 665l-21.999 -117c-34.667 -50 -67.667 -103.667 -99 -161c-22 -40 -46.5 -92.667 -73.5 -158s-44.833 -121.333 -53.5 -168l-13 -70l-147 -37c20 83.333 44 163.333 72 240c27.333 73.333 56.666 140.333 87.999 201c30 58.667 61 109.667 93 153
c-10 -2.66699 -23.333 -4 -40 -4h-265l30 121h430z" />
    <glyph glyph-name="eight" unicode="8" 
d="M537 183c0 -56.667 -22.332 -104.002 -66.999 -142.002c-46.667 -40.667 -113.667 -61 -201 -61c-68 0 -126.167 15.833 -174.5 47.5s-72.5 79.834 -72.5 144.501c0 37.333 11 71.666 33 102.999s50.333 53.333 85 66c-31.333 12 -55.666 32.167 -72.999 60.5
s-26 58.5 -26 90.5c0 55.333 22.167 100 66.5 134s102.166 51 173.499 51c67.333 0 122.5 -16.167 165.5 -48.5s64.5 -74.166 64.5 -125.499c0 -34 -11.833 -64.5 -35.5 -91.5s-54.834 -45.833 -93.501 -56.5c103.333 -35.333 155 -92.666 155 -171.999zM386.001 164.998
c0 31.333 -12.666 55.333 -37.999 72c-26.667 17.333 -64.334 34.333 -113.001 51c-42.667 -24.667 -64 -60 -64 -106c0 -31.333 10.167 -56.333 30.5 -75s47.833 -28 82.5 -28c30 0 54.5 8 73.5 24s28.5 36.667 28.5 62zM362.002 506.998c0 48 -30.332 72 -90.999 72
c-27.333 0 -49.5 -6.83301 -66.5 -20.5s-25.5 -31.834 -25.5 -54.501c0 -6.66699 1 -13.167 3 -19.5s4.16699 -11.666 6.5 -15.999s6.33301 -9 12 -14l13 -11.5c3 -2.66699 8.66699 -6.16699 17 -10.5l16.5 -8.5c2.66699 -1.33301 8.66699 -4 18 -8
s14.666 -6.33301 15.999 -7c54 27.333 81 60 81 98z" />
    <glyph glyph-name="nine" unicode="9" 
d="M524 404c0 -132.667 -54.667 -245.333 -164 -338c-66.667 -56 -137.334 -97 -212.001 -123l-73 82c54 14 107.833 42.667 161.5 86s87.834 86 102.501 128c-27.333 -12.667 -54.333 -19 -81 -19c-61.333 0 -112.5 21.333 -153.5 64s-61.5 95.667 -61.5 159
c0 67.333 22.833 123.166 68.5 167.499s103.5 66.5 173.5 66.5c74.667 0 133.167 -24.167 175.5 -72.5s63.5 -115.166 63.5 -200.499zM379 440.001c0 42 -8.66699 74.833 -26 98.5s-41 35.5 -71 35.5c-28.667 0 -51.5 -11.5 -68.5 -34.5s-25.5 -53.833 -25.5 -92.5
c0 -36 9.16699 -64.833 27.5 -86.5s42.833 -32.5 73.5 -32.5c29.333 0 56 12.333 80 37c6.66699 22.667 10 47.667 10 75z" />
    <glyph glyph-name="colon" unicode=":" horiz-adv-x="294" 
d="M233 68c0 -23.333 -8.5 -43.167 -25.5 -59.5s-37.5 -24.5 -61.5 -24.5c-23.333 0 -43.5 8.16699 -60.5 24.5s-25.5 36.166 -25.5 59.499c0 24.667 8.5 45.834 25.5 63.501s37.5 26.167 61.5 25.5s44.333 -9.5 61 -26.5s25 -37.833 25 -62.5zM234 367.999
c0 -24 -8.5 -44.333 -25.5 -61s-37.5 -25 -61.5 -25c-23.333 0 -43.333 8.33301 -60 25s-25 36.667 -25 60c0 24 8.33301 44.667 25 62s36.667 26 60 26c24 0 44.5 -8.5 61.5 -25.5s25.5 -37.5 25.5 -61.5z" />
    <glyph glyph-name="semicolon" unicode=";" horiz-adv-x="314" 
d="M112 -145l-52 56.002c21.333 5.33301 38.5 13.166 51.5 23.499s19.5 21.5 19.5 33.5c0 10.667 -7.66699 20.667 -23 30c-28 16.667 -42 40 -42 70c0 25.333 8.33301 46.333 25 63s37.667 25 63 25c28.667 0 52.5 -11.333 71.5 -34s28.5 -51.667 28.5 -87
c0 -42.667 -13.333 -80.834 -40 -114.501s-60.667 -55.5 -102 -65.5zM241 369.002c0 -23.333 -8.33203 -43.5 -24.999 -60.5s-36.667 -25.5 -60 -25.5c-24 0 -44.5 8.33301 -61.5 25s-25.5 36.667 -25.5 60c0 24 8.16699 44.667 24.5 62s36.166 26 59.499 26
c24 0 44.667 -8.5 62 -25.5s26 -37.5 26 -61.5z" />
    <glyph glyph-name="less" unicode="&#x3c;" horiz-adv-x="406" 
d="M366 78l-105 -90l-241 311l241 311l105 -92l-168 -219z" />
    <glyph glyph-name="equal" unicode="=" horiz-adv-x="628" 
d="M588 336h-548v126h548v-126zM588 144h-548v126h548v-126z" />
    <glyph glyph-name="greater" unicode="&#x3e;" horiz-adv-x="406" 
d="M386 299l-241 -311l-105 90l168 221l-168 219l105 92z" />
    <glyph glyph-name="question" unicode="?" horiz-adv-x="474" 
d="M96 543l-60.998 86.001c18 18.667 43.5 36 76.5 52s72.167 24 117.5 24c53.333 0 98.333 -15.167 135 -45.5s55 -70.833 55 -121.5c0 -21.333 -2.83301 -40.666 -8.5 -57.999s-14 -32.166 -25 -44.499s-20.333 -21.666 -28 -27.999s-17.834 -13.5 -30.501 -21.5
c-50 -32 -75.667 -75.333 -77 -130c0 -8.66699 0.666992 -20.334 2 -35.001h-115l-5 26c-2.66699 12.667 -4 26 -4 40c0 57.333 30.667 108 92 152l14.5 10c7.66699 5.33301 12.834 9 15.501 11s7 5.66699 13 11s10.167 10.166 12.5 14.499s4.66602 9.5 6.99902 15.5
s3.5 12.333 3.5 19c0 23.333 -7.66699 40.666 -23 51.999s-35 17 -59 17c-8 0 -15.5 -0.5 -22.5 -1.5s-13.833 -2.83301 -20.5 -5.5s-12.334 -4.83398 -17.001 -6.50098s-10 -4.5 -16 -8.5s-10 -6.83301 -12 -8.5s-6 -4.5 -12 -8.5zM291.002 70.001
c0 -22.667 -8.16699 -42.167 -24.5 -58.5s-36.166 -24.5 -59.499 -24.5c-22.667 0 -41.834 8 -57.501 24s-23.5 35.667 -23.5 59c0 22.667 8 42.167 24 58.5s35.667 24.5 59 24.5c22.667 0 42 -8.16699 58 -24.5s24 -35.833 24 -58.5z" />
    <glyph glyph-name="at" unicode="@" horiz-adv-x="891" 
d="M580 -66l18.002 -84.999c-57.333 -18.667 -111.333 -28 -162 -28c-116.667 0 -211.834 34 -285.501 102s-110.5 160.667 -110.5 278c0 78 17.667 149.667 53 215s84.833 117.333 148.5 156s134.5 58 212.5 58c113.333 0 207.833 -32.833 283.5 -98.5
s113.5 -150.834 113.5 -255.501c0 -86 -22.167 -156.667 -66.5 -212s-97.833 -83 -160.5 -83c-24 0 -43.833 2.5 -59.5 7.5s-27.167 12.333 -34.5 22s-12.333 19 -15 28s-4.66699 20.5 -6 34.5c-44.667 -53.333 -94.667 -80 -150 -80c-41.333 0 -73.5 12.833 -96.5 38.5
s-34.5 62.834 -34.5 111.501c0 87.333 25.667 161.666 77 222.999s120.333 92 207 92c43.333 0 90.666 -13.667 141.999 -41c-13.333 -44.667 -34.333 -134.334 -63 -269.001c-5.33301 -25.333 -8 -43.666 -8 -54.999c0 -13.333 3.33301 -22.5 10 -27.5s18 -7.5 34 -7.5
c30.667 0 56 20.333 76 61s30 93 30 157c0 79.333 -25.5 143.166 -76.5 191.499s-118.5 72.5 -202.5 72.5c-80 0 -149.167 -33.167 -207.5 -99.5s-87.5 -146.166 -87.5 -239.499c0 -89.333 26.167 -159.833 78.5 -211.5s118.5 -77.5 198.5 -77.5c52 0 100 7.33301 144 22z
M502.002 201.001l37.001 170.999c-10 4.66699 -22 7 -36 7c-54.667 0 -95.834 -24.167 -123.501 -72.5s-41.5 -104.166 -41.5 -167.499c0 -42 14 -63 42 -63c22.667 0 46.667 11.5 72 34.5s42 53.167 50 90.5z" />
    <glyph glyph-name="A" unicode="A" horiz-adv-x="582" 
d="M590 0h-150l-49 165h-204l-49 -165h-146l228 697h151zM221 281l136.001 -0.000976562c-14.667 46.667 -27.334 93.334 -38.001 140.001c-16 67.333 -25.333 108 -28 122l-33 -133c-12.667 -48.667 -25 -91.667 -37 -129z" />
    <glyph glyph-name="B" unicode="B" horiz-adv-x="600" 
d="M70 695h235c39.333 0 72.333 -3.33301 99 -10s51 -20 73 -40c37.333 -34 56 -75.333 56 -124c0 -48 -15.667 -86.667 -47 -116c-18.667 -16.667 -40 -28.667 -64 -36c28 -6.66699 53.667 -19.667 77 -39c40.667 -34 61 -79.333 61 -136s-18.167 -103.167 -54.5 -139.5
s-88.5 -54.5 -156.5 -54.5h-279v695zM210 114h98.999c32.667 0 57.334 11.333 74.001 34c12.667 18 19 39 19 63c0 30.667 -8.66699 54 -26 70c-14.667 14 -37 21 -67 21h-99v-188zM207.999 576v-158.999h94c29.333 0 51 7.66699 65 23c13.333 14.667 20 33.667 20 57
c0 35.333 -13.333 58.666 -40 69.999c-14 6 -33.333 9 -58 9h-81z" />
    <glyph glyph-name="C" unicode="C" horiz-adv-x="562" 
d="M478 140l64.001 -87.001c-52.667 -43.333 -116.667 -65 -192 -65c-94.667 0 -170 32 -226 96c-56 63.333 -84 146 -84 248c0 84.667 15.667 156.334 47 215.001c26.667 49.333 63.667 88.333 111 117s98.666 43 153.999 43c70 0 128.333 -18.333 175 -55l-63 -94
c-32 26 -68 39 -108 39c-25.333 0 -48.5 -5.5 -69.5 -16.5s-37.833 -25.5 -50.5 -43.5c-26 -38 -39 -101.667 -39 -191c0 -80 9.66699 -137.667 29 -173c28 -51.333 72.667 -77 134 -77c44 0 83.333 14.667 118 44z" />
    <glyph glyph-name="D" unicode="D" horiz-adv-x="618" 
d="M70 695h204c89.333 0 159 -24.333 209 -73c63.333 -62.667 95 -155 95 -277c0 -98.667 -23.333 -179 -70 -241c-32.667 -43.333 -70 -72.333 -112 -87c-30 -11.333 -67.667 -17 -113 -17h-213v695zM212 114h75c40.667 0 73.167 15.667 97.5 47s36.5 88.333 36.5 171
c0 91.333 -11.667 156.333 -35 195s-60 58 -110 58h-64v-471z" />
    <glyph glyph-name="E" unicode="E" horiz-adv-x="495" 
d="M475 0h-405v695h396l-18 -114h-238v-161h199v-114h-197v-186h263v-120z" />
    <glyph glyph-name="F" unicode="F" horiz-adv-x="439" 
d="M449 695l-16 -113h-221v-159h177v-114h-177v-309h-142v695h379z" />
    <glyph glyph-name="G" unicode="G" horiz-adv-x="646" 
d="M586 385v-335.001c-72 -41.333 -149.667 -62 -233 -62c-102.667 0 -182 35.667 -238 107c-50 63.333 -75 144.666 -75 243.999c0 148 48.667 254.333 146 319c49.333 32.667 106 49 170 49c88 0 162.333 -27 223 -81l-75 -87c-41.333 36 -90 54 -146 54
c-41.333 0 -74.666 -11.667 -99.999 -35c-18 -17.333 -31.667 -40.666 -41 -69.999s-14.833 -54.666 -16.5 -75.999s-2.5 -48 -2.5 -80c0 -98.667 17.667 -165 53 -199c27.333 -26 63.666 -39 108.999 -39c34.667 0 62.667 5.66699 84 17v160h-111l-18 114h271z" />
    <glyph glyph-name="H" unicode="H" horiz-adv-x="623" 
d="M553 0h-142v310h-199v-310h-142v695h142v-270h199v270h142v-695z" />
    <glyph glyph-name="I" unicode="I" horiz-adv-x="282" 
d="M212 0h-142v695h142v-695z" />
    <glyph glyph-name="J" unicode="J" horiz-adv-x="287" 
d="M217 695v-601c0 -39.333 -3.33301 -71 -10 -95c-21.333 -75.333 -75.333 -129.666 -162 -162.999l-65 72c37.333 22.667 64.333 50.667 81 84c9.33301 25.333 14 54.666 14 87.999v615h142z" />
    <glyph glyph-name="K" unicode="K" horiz-adv-x="587" 
d="M607 0h-184l-211 363v-363h-142v695h142v-317l198 317h172l-222 -322z" />
    <glyph glyph-name="L" unicode="L" horiz-adv-x="467" 
d="M462 116l-25 -116h-367v695h142v-579h250z" />
    <glyph glyph-name="M" unicode="M" horiz-adv-x="818" 
d="M768 0l-137.001 -0.000976562l-26 371c-2 22 -3.66699 60.667 -5 116c-6 -30 -14.667 -65.667 -26 -107l-110 -380h-119l-99 365c-13.333 52 -22.666 93 -27.999 123c-1.33301 -60 -3 -101.667 -5 -125l-24 -363h-139l65 695h179l91 -348
c8 -30.667 13.333 -52.334 16 -65.001c0.666992 -3.33301 1.5 -8.16602 2.5 -14.499s1.83301 -11.166 2.5 -14.499c0 -1.33301 0.333008 -4 1 -8s1.33398 -6.66699 2.00098 -8c3.33301 21.333 11.666 59 24.999 113l94 345h178z" />
    <glyph glyph-name="N" unicode="N" horiz-adv-x="623" 
d="M553 0l-145.999 0.000976562l-119 266c-44.667 98.667 -76 174.667 -94 228c4 -47.333 6.33301 -108 7 -182l4 -312h-135v695h155l133 -278c31.333 -64.667 56.666 -130.334 75.999 -197.001c-7.33301 98 -11 161.667 -11 191l-3 284h133v-695z" />
    <glyph glyph-name="O" unicode="O" horiz-adv-x="682" 
d="M341 707c90.667 0 162.667 -30.667 216 -92c56.667 -64 85 -153.333 85 -268c0 -113.333 -28.333 -202.333 -85 -267c-53.333 -61.333 -125.333 -92 -216 -92s-162.667 30.667 -216 92c-56.667 64.667 -85 153.667 -85 267c0 114.667 28.333 204 85 268
c53.333 61.333 125.333 92 216 92zM341 600c-51.333 0 -89.333 -24.667 -114 -74c-19.333 -38.667 -29 -98.334 -29 -179.001c0 -80 9.66699 -139.333 29 -178c24.667 -49.333 62.667 -74 114 -74s89.333 24.667 114 74c19.333 38.667 29 98 29 178
c0 80.667 -9.66699 140.334 -29 179.001c-24.667 49.333 -62.667 74 -114 74z" />
    <glyph glyph-name="P" unicode="P" horiz-adv-x="568" 
d="M70 695l218 -0.000976562c66.667 0 120 -11.333 160 -34c66.667 -36.667 100 -96.667 100 -180c0 -16 -1.66699 -32.167 -5 -48.5s-8.83301 -34.166 -16.5 -53.499s-20 -37.833 -37 -55.5s-37.5 -32.5 -61.5 -44.5c-32.667 -15.333 -79 -23 -139 -23h-77v-256h-142v695z
M212 369.999l73 0.000976562c30 0 51 2.66699 63 8s22 14.666 30 27.999c11.333 19.333 17 43 17 71c0 32.667 -7.33301 57.667 -22 75c-16.667 20 -40.667 30 -72 30h-89v-212z" />
    <glyph glyph-name="Q" unicode="Q" horiz-adv-x="680" 
d="M713 -27l-36.999 -90.999c-13.333 -8 -34 -12 -62 -12c-35.333 0 -78 16.333 -128 49c-48.667 32.667 -95.667 56 -141 70c-52 0 -95.833 7.66699 -131.5 23s-66.834 40.333 -93.501 75c-53.333 68.667 -80 154.667 -80 258c0 75.333 13.667 141.666 41 198.999
s66 99.333 116 126c40.667 24.667 88.667 37 144 37c92.667 0 165.667 -31.667 219 -95s80 -150.333 80 -261c0 -74 -12.167 -138.667 -36.5 -194s-57.833 -97 -100.5 -125c10 -3.33301 30.667 -15 62 -35c32 -19.333 60.667 -29 86 -29zM482.001 347.001
c0 69.333 -6.33496 123 -19.002 161c-7.33301 22.667 -21.166 43.667 -41.499 63s-47.166 29 -80.499 29c-50.667 0 -86.667 -21.667 -108 -65c-23.333 -44 -35 -107.333 -35 -190c0 -120.667 20.667 -195.667 62 -225c22 -16 49.667 -24 83 -24
c49.333 0 84.833 19.667 106.5 59s32.5 103.333 32.5 192z" />
    <glyph glyph-name="R" unicode="R" horiz-adv-x="589" 
d="M212 290v-290h-142v695h264c60.667 0 109.667 -18.333 147 -55c38 -37.333 57 -87 57 -149c0 -40 -8.16699 -74.333 -24.5 -103s-36.166 -50.667 -59.499 -66c-21.333 -14 -45 -21.667 -71 -23c7.33301 -4 17 -13.667 29 -29c24 -30 79.667 -120 167 -270h-165
c-5.33301 8 -9.66602 15 -12.999 21l-10 18.5l-9 16.5l-12 21l-21 37c-46.667 85.333 -77.334 136 -92.001 152c-8.66699 8.66699 -16.334 14.667 -23.001 18c-8 4 -15.333 6 -22 6zM212 395h47c52.667 0 87.667 7.66699 105 23c18 16.667 27 40 27 70
c0 44 -16.667 72.333 -50 85c-18.667 6.66699 -45 10 -79 10h-50v-188z" />
    <glyph glyph-name="S" unicode="S" horiz-adv-x="584" 
d="M542 646l-65.999 -99.999c-54 35.333 -107.667 53 -161 53c-26 0 -47.333 -5.66699 -64 -17c-22.667 -14.667 -34 -36.667 -34 -66c0 -14.667 4.33301 -26.667 13 -36c10 -12 31.333 -22.333 64 -31l84 -23c56 -15.333 99 -40 129 -74
c31.333 -35.333 47 -79.666 47 -132.999c0 -64 -22.333 -117 -67 -159c-52.667 -50 -126 -75 -220 -75c-81.333 0 -160.333 21 -237 63l52 109c66 -37.333 129.667 -56 191 -56c43.333 0 75.666 10 96.999 30c16.667 15.333 25 37 25 65c0 21.333 -7 39.666 -21 54.999
c-12.667 14 -36 25.667 -70 35l-77 21c-64 17.333 -109.667 46.666 -137 87.999c-19.333 28.667 -29 64 -29 106c0 64 24 116.333 72 157c45.333 38.667 104.333 58 177 58c88.667 0 166 -23.333 232 -70z" />
    <glyph glyph-name="T" unicode="T" horiz-adv-x="491" 
d="M511 695l-23 -115h-166v-580h-142v580h-170v115h501z" />
    <glyph glyph-name="U" unicode="U" horiz-adv-x="636" 
d="M568 695l0.000976562 -501c0 -28 -3.66699 -53 -11 -75c-14.667 -41.333 -42.834 -73.5 -84.501 -96.5s-92.167 -34.5 -151.5 -34.5c-107.333 0 -181.666 31 -222.999 93c-20 29.333 -30 73 -30 131v483h142v-456c0 -39.333 4.33301 -67 13 -83c18 -32 49.667 -48 95 -48
c39.333 0 68.666 12 87.999 36c13.333 16 20 40.667 20 74v477h142z" />
    <glyph glyph-name="V" unicode="V" horiz-adv-x="565" 
d="M585 695l-242.001 -700h-127l-236 700h153l115 -362c6.66699 -19.333 17.334 -59.666 32.001 -120.999c8.66699 39.333 22 85.666 40 138.999l118 344h147z" />
    <glyph glyph-name="W" unicode="W" horiz-adv-x="832" 
d="M343 695h153l64 -311c7.33301 -35.333 17.333 -96.333 30 -183c7.33301 69.333 20 146 38 230l57 264h147l-168 -701h-153l-62 283c-16 74 -27 141.333 -33 202c-7.33301 -60 -18.333 -126.667 -33 -200l-58 -285h-159l-166 701h148l60 -274
c16.667 -77.333 29 -153.333 37 -228c12 94 24 167.667 36 221z" />
    <glyph glyph-name="X" unicode="X" horiz-adv-x="562" 
d="M577 0h-169l-125 245l-124 -245h-174l218 372l-188 323h171l94 -187l95 187h167l-181 -314z" />
    <glyph glyph-name="Y" unicode="Y" horiz-adv-x="534" 
d="M559 695l-224 -409v-286h-142v286l-218 409h168l89 -190c16 -33.333 27.667 -63 35 -89l37 87l90 192h165z" />
    <glyph glyph-name="Z" unicode="Z" horiz-adv-x="530" 
d="M500 115l-35.999 -115h-434v98l256 423c7.33301 12.667 21.666 33.667 42.999 63c-4 0 -11.5 -0.5 -22.5 -1.5s-21 -1.66699 -30 -2s-15.167 -0.5 -18.5 -0.5h-214l31 115h416v-101l-258 -435c-12 -18.667 -24 -35 -36 -49c22.667 3.33301 45.667 5 69 5h234z" />
    <glyph glyph-name="bracketleft" unicode="[" horiz-adv-x="300" 
d="M280 -156h-210v888h210v-90h-90v-708h90v-90z" />
    <glyph glyph-name="backslash" unicode="\" horiz-adv-x="433" 
d="M423 -18l-113 -35l-300 779l114 35z" />
    <glyph glyph-name="bracketright" unicode="]" horiz-adv-x="300" 
d="M230 -156h-210v90h90v708h-90v90h210v-888z" />
    <glyph glyph-name="asciicircum" unicode="^" horiz-adv-x="596" 
d="M551 343h-142l-111 238l-112 -238h-141l180 365h146z" />
    <glyph glyph-name="underscore" unicode="_" horiz-adv-x="500" 
d="M500 -125h-500v50h500v-50z" />
    <glyph glyph-name="grave" unicode="`" horiz-adv-x="325" 
d="M295 631l-41 -74l-224 100l58 104z" />
    <glyph glyph-name="a" unicode="a" horiz-adv-x="512" 
d="M488 56l-71.0039 -81.9971c-32.667 14 -56.667 34.667 -72 62c-15.333 -14 -25.666 -23 -30.999 -27c-25.333 -18.667 -59.666 -28 -102.999 -28c-55.333 0 -98 13.333 -128 40c-32 29.333 -48 69.333 -48 120c0 72 29.667 121.667 89 149
c38.667 18 90.334 27 155.001 27c14.667 0 25.334 -0.333008 32.001 -1v21c0 30 -4 50.333 -12 61s-23.667 16 -47 16c-46.667 0 -96.334 -19.667 -149.001 -59l-57 96c22.667 14.667 50 28.667 82 42c50.667 20.667 96.334 31 137.001 31c90 0 146.333 -30 169 -90
c6 -16.667 9 -44.334 9 -83.001v-9l-3 -172c0 -2.66699 -0.166992 -6.33398 -0.5 -11.001s-0.5 -8.33398 -0.5 -11.001c0 -38 16.333 -68.667 49 -92zM308.996 224.003h-6c-51.333 0 -85.333 -6.33301 -102 -19c-15.333 -12 -23 -30.667 -23 -56
c0 -21.333 5.5 -38.333 16.5 -51s25.167 -19 42.5 -19c26.667 0 50 11.667 70 35z" />
    <glyph glyph-name="b" unicode="b" horiz-adv-x="551" 
d="M202 650v-121.002c0 -22 -1 -37 -3 -45c26 26.667 62.333 40 109 40c62.667 0 112.167 -23.333 148.5 -70s54.5 -109.667 54.5 -189c0 -106.667 -31.667 -185 -95 -235c-32.667 -28 -70 -42 -112 -42c-48 0 -86 16.333 -114 49c-3.33301 -15.333 -8 -27.666 -14 -36.999
h-119c8.66699 20 13 56.333 13 109v474c0 59.333 -3 101.333 -9 126l136 32c3.33301 -29.333 5 -59.666 5 -90.999zM202 372.998l-0.000976562 -235.999c28 -23.333 54.333 -35 79 -35c32.667 0 54.334 14 65.001 42c10 23.333 15 62.666 15 117.999
c0 40.667 -2 69.667 -6 87c-10 42.667 -34.333 64 -73 64c-28 0 -54.667 -13.333 -80 -40z" />
    <glyph glyph-name="c" unicode="c" horiz-adv-x="455" 
d="M374 139l61.002 -81c-16.667 -17.333 -32.334 -30 -47.001 -38c-36.667 -21.333 -78.334 -32 -125.001 -32c-66 0 -118.667 21 -158 63c-43.333 46.667 -65 113.667 -65 201c0 38 4.16699 72.333 12.5 103s19.333 55 33 73s24.834 31.333 33.501 40
s17.334 15.667 26.001 21c35.333 23.333 78.666 35 129.999 35c35.333 0 67.333 -7.66699 96 -23c21.333 -11.333 38 -23.333 50 -36l-65 -88c-28.667 26.667 -56.667 40 -84 40c-30 0 -52.333 -16 -67 -48c-11.333 -24 -17 -66.333 -17 -127
c0 -59.333 8.66699 -100.333 26 -123c15.333 -19.333 35.333 -29 60 -29c15.333 0 31.666 4 48.999 12c10 4.66699 24.333 14.667 43 30z" />
    <glyph glyph-name="d" unicode="d" horiz-adv-x="549" 
d="M498 0l-119 0.000976562c-2 4.66699 -4.66699 14.667 -8 30c-34 -28 -73.333 -42 -118 -42c-67.333 0 -120 24.667 -158 74c-36.667 46 -55 107.667 -55 185c0 85.333 19.667 152.666 59 201.999c40.667 50 94.334 75 161.001 75c39.333 0 69.666 -11.333 90.999 -34
c-2.66699 14 -4 38.667 -4 74v176l132 -21v-532c0 -94 6.33301 -156.333 19 -187zM349 133.001l-0.000976562 246.001c-24 22 -49 33 -75 33c-28.667 0 -49.667 -13 -63 -39c-14 -28 -21 -70.333 -21 -127c0 -66.667 10.667 -109.334 32 -128.001c12 -12 30.667 -18 56 -18
c28.667 0 52.334 11 71.001 33z" />
    <glyph glyph-name="e" unicode="e" horiz-adv-x="506" 
d="M481 214h-296.001v-11c0 -38 11 -67.333 33 -88c18.667 -18 44.334 -27 77.001 -27c44 0 86.667 17 128 51l52 -80c-56.667 -47.333 -121 -71 -193 -71c-71.333 0 -129 22.667 -173 68c-46 48.667 -69 115.667 -69 201c0 83.333 21.333 149 64 197
c42 46.667 95.667 70 161 70c62 0 111.333 -18.333 148 -55c45.333 -46 68 -120.667 68 -224v-31zM341.999 312v6c0 38 -6.33301 65.333 -19 82c-14 17.333 -32.667 26 -56 26c-24 0 -42.667 -8.33301 -56 -25c-16 -19.333 -24 -48.333 -24 -87v-2h155z" />
    <glyph glyph-name="f" unicode="f" horiz-adv-x="305" 
d="M355 709l-43.002 -83c-23.333 11.333 -41.666 17 -54.999 17c-17.333 0 -31 -5.16699 -41 -15.5s-15 -24.5 -15 -42.5v-73h130l-34 -92h-95v-420h-132v420h-46v92h49c-3.33301 23.333 -5 46.666 -5 69.999c0 50.667 14.333 89.834 43 117.501s69.334 41.5 122.001 41.5
c43.333 0 84 -10.667 122 -32z" />
    <glyph glyph-name="g" unicode="g" horiz-adv-x="553" 
d="M521 541l56.002 -84.999c-26 -25.333 -56.667 -38 -92 -38c-8.66699 0 -15.334 0.333008 -20.001 1l-17 2c20 -23.333 30 -50.333 30 -81c0 -44.667 -16.667 -81 -50 -109c-36.667 -30.667 -82.334 -46 -137.001 -46c-10 0 -17.333 0.333008 -22 1
c-35.333 -13.333 -53 -27.333 -53 -42c0 -8 7.33301 -12 22 -12l72 -1c22 -0.666992 38.833 -1.5 50.5 -2.5s28.167 -5 49.5 -12s39.666 -17.5 54.999 -31.5c29.333 -26 44 -62.333 44 -109c0 -41.333 -13.667 -76.666 -41 -105.999c-42.667 -44 -110 -66 -202 -66
c-90 0 -154.667 18.333 -194 55c-28 26.667 -42 57 -42 91c0 21.333 4 38.666 12 51.999h124c-4 -8.66699 -6 -19.667 -6 -33c0 -42 32 -63 96 -63c37.333 0 65.333 5.66699 84 17c22 12.667 33 30 33 52c0 18.667 -8 33.667 -24 45c-15.333 10.667 -38.666 16 -69.999 16
l-57 1c-60 0.666992 -101 6 -123 16c-26 11.333 -39 33.666 -39 66.999c0 15.333 3 28 9 38c6.66699 11.333 18.5 21.5 35.5 30.5s33.5 14.833 49.5 17.5c-32 7.33301 -58.333 22.333 -79 45c-21.333 24 -32 56.333 -32 97c0 54 19.667 97 59 129
c40 31.333 91.333 47 154 47c28 0 60 -4.66699 96 -14c32 -8.66699 52.333 -13 61 -13c40.667 0 76.667 14.667 108 44zM341.002 347.001c0 24 -7.33203 42.667 -21.999 56s-34.334 20 -59.001 20c-25.333 0 -45 -6.66699 -59 -20s-21 -32 -21 -56
c0 -48.667 26.333 -73 79 -73c54.667 0 82 24.333 82 73z" />
    <glyph glyph-name="h" unicode="h" horiz-adv-x="562" 
d="M492 0h-131.999v342c0 28 -4.66699 47 -14 57c-8 8.66699 -19.333 13 -34 13c-37.333 0 -74 -15 -110 -45v-367h-132v592c0 48.667 -3.33301 87.667 -10 117l133 32c6 -28 9 -69.667 9 -125v-102l-2 -43c42.667 35.333 91 53 145 53
c67.333 0 111.666 -23.667 132.999 -71c9.33301 -21.333 14 -51 14 -89v-364z" />
    <glyph glyph-name="i" unicode="i" horiz-adv-x="274" 
d="M203 0h-132v503l132 21v-524zM220 653c0 -23.333 -8 -43 -24 -59s-35.667 -24 -59 -24c-22.667 0 -42 8 -58 24s-24 35.667 -24 59c0 22.667 8.16699 42.167 24.5 58.5s36.166 24.5 59.499 24.5c22.667 0 41.834 -8 57.501 -24s23.5 -35.667 23.5 -59z" />
    <glyph glyph-name="j" unicode="j" horiz-adv-x="273" 
d="M202 523v-509c0 -72.667 -12.333 -125.667 -37 -159c-24 -32 -58.667 -57 -104 -75l-56 74c20 16.667 36.333 36 49 58c10.667 19.333 16 52 16 98v481zM221 655c0 -23.333 -8.16797 -43.166 -24.501 -59.499s-36.166 -24.5 -59.499 -24.5s-42.833 7.83301 -58.5 23.5
s-23.5 35.167 -23.5 58.5s8.16699 43.166 24.5 59.499s35.833 24.5 58.5 24.5c23.333 0 43 -8 59 -24s24 -35.333 24 -58z" />
    <glyph glyph-name="k" unicode="k" horiz-adv-x="515" 
d="M202 0h-132v577c0 48 -3 92.333 -9 133l133 33c5.33301 -44 8 -99.333 8 -166v-577zM535 0h-158l-172 290l131 222h161l-163 -214z" />
    <glyph glyph-name="l" unicode="l" horiz-adv-x="281" 
d="M258 82l23 -80.001c-24 -9.33301 -50.667 -14 -80 -14c-60 0 -99.667 23.333 -119 70c-8 20 -12 46 -12 78v419c0 58.667 -2.33301 110 -7 154l137 31c4.66699 -31.333 7 -65.666 7 -102.999v-492c0 -24.667 3 -41.667 9 -51s15 -14 27 -14h6c2 0 5 0.666992 9 2z" />
    <glyph glyph-name="m" unicode="m" horiz-adv-x="792" 
d="M722 0h-130.002v338c0 34 -3.33301 54.667 -10 62s-16.334 11 -29.001 11c-31.333 0 -62 -14.333 -92 -43v-368h-130v333c0 28 -1.66699 46.333 -5 55c-6 16 -18.667 24 -38 24c-14.667 0 -28.667 -3 -42 -9c-15.333 -6 -30.666 -16 -45.999 -30v-373h-130v357
c0 65.333 -6.33301 109 -19 131l120 33c4.66699 -6.66699 8 -13.334 10 -20.001c2.66699 -8 5.33398 -18.667 8.00098 -32c34 36.667 75.667 55 125 55c42.667 0 77.334 -15 104.001 -45l20 -25c40 46.667 88.667 70 146 70c40.667 0 74 -11.667 100 -35
c8 -7.33301 14.333 -14.166 19 -20.499s9 -18.5 13 -36.5s6 -40.667 6 -68v-364z" />
    <glyph glyph-name="n" unicode="n" horiz-adv-x="542" 
d="M472 0l-131.998 -0.000976562v333c0 33.333 -4 54.333 -12 63c-7.33301 8 -17 12 -29 12c-16.667 0 -33.334 -4.33301 -50.001 -13c-14.667 -8 -30.334 -19 -47.001 -33v-362h-132v371c0 44 -6 84 -18 120l117 34c12 -18.667 18.333 -40 19 -64l17 12
c2 1.33301 4.83301 3.5 8.5 6.5s8 6.16699 13 9.5s11.167 7 18.5 11c26.667 16 58 24 94 24c31.333 0 57.5 -7.33301 78.5 -22s35.833 -33 44.5 -55c6.66699 -17.333 10 -41.666 10 -72.999v-374z" />
    <glyph glyph-name="o" unicode="o" horiz-adv-x="536" 
d="M268 524c70 0 126.667 -24.333 170 -73c42 -47.333 63 -112.333 63 -195s-21 -147.667 -63 -195c-43.333 -48.667 -100 -73 -170 -73s-126.667 24.333 -170 73c-42 47.333 -63 112.333 -63 195s21 147.667 63 195c43.333 48.667 100 73 170 73zM268 426
c-25.333 0 -44.666 -9.33301 -57.999 -28c-18 -24 -27 -71.333 -27 -142s9 -118 27 -142c13.333 -18.667 32.666 -28 57.999 -28s44.666 9.33301 57.999 28c18 24 27 71.333 27 142s-9 118 -27 142c-13.333 18.667 -32.666 28 -57.999 28z" />
    <glyph glyph-name="p" unicode="p" horiz-adv-x="555" 
d="M62 501l122 20.999c2.66699 -6.66699 5.66699 -22.667 9 -48c30 33.333 72 50 126 50c34.667 0 68.334 -10.667 101.001 -32c63.333 -42.667 95 -120 95 -232c0 -94 -23.667 -165 -71 -213c-39.333 -39.333 -85 -59 -137 -59c-40.667 0 -76.334 9.33301 -107.001 28
c1.33301 -13.333 2 -23.666 2 -30.999v-171l-132 -35v593c0 63.333 -2.66699 106.333 -8 129zM202 373.999l-0.000976562 -249c25.333 -20 51 -30 77 -30c34 0 58.333 14.667 73 44c11.333 24 17 63.333 17 118c0 54 -4.33301 91.667 -13 113
c-10.667 28.667 -31.667 43 -63 43c-33.333 0 -63.666 -13 -90.999 -39z" />
    <glyph glyph-name="q" unicode="q" horiz-adv-x="556" 
d="M382 512l116.001 -0.000976562c-8 -34.667 -12 -84.667 -12 -150v-549l-132 -35v194c0 24 1 41.333 3 52c-27.333 -24 -61.333 -36 -102 -36c-72 0 -125.833 24.667 -161.5 74s-53.5 111.333 -53.5 186c0 86 17.333 151.333 52 196
c19.333 24.667 43.166 44.167 71.499 58.5s57.833 21.5 88.5 21.5c26.667 0 52 -5.16699 76 -15.5s38.667 -22.166 44 -35.499c0.666992 13.333 4 26.333 10 39zM354.001 136.999l0.000976562 241c-22 24 -47.667 36 -77 36c-60 0 -90 -49.667 -90 -149
c0 -18.667 0.166992 -33.167 0.5 -43.5s2.16602 -24.5 5.49902 -42.5s7.83301 -32 13.5 -42s14.5 -19 26.5 -27s26.667 -12 44 -12c29.333 0 55 13 77 39z" />
    <glyph glyph-name="r" unicode="r" horiz-adv-x="347" 
d="M362 513l-37.001 -117.999c-11.333 6.66699 -24.333 10 -39 10c-30.667 0 -58 -14.333 -82 -43v-362h-134v342c0 63.333 -6.33301 113.333 -19 150l120 32c12 -22 19 -46.333 21 -73c12.667 17.333 29 33.666 49 48.999c22.667 16 46.334 24 71.001 24
c19.333 0 36 -3.66699 50 -11z" />
    <glyph glyph-name="s" unicode="s" horiz-adv-x="477" 
d="M25 47l47.999 96.001c25.333 -15.333 54.166 -28.666 86.499 -39.999s59.5 -17 81.5 -17s39.333 6.66699 52 20c10 10 15 22.333 15 37c0 15.333 -4.66699 27.666 -14 36.999c-11.333 11.333 -32.666 20 -63.999 26l-59 11c-41.333 7.33301 -72.333 24.333 -93 51
c-19.333 25.333 -29 55.666 -29 90.999c0 55.333 22.667 98.666 68 129.999c34.667 23.333 76.334 35 125.001 35c57.333 0 113.666 -13.333 168.999 -40l15 -7l-44 -89c-45.333 24 -86.666 36 -123.999 36c-20 0 -36 -4.66699 -48 -14c-11.333 -9.33301 -17 -21 -17 -35
c0 -11.333 4.33301 -21.333 13 -30c10 -9.33301 27 -16.666 51 -21.999l61 -15c46 -10.667 79.667 -30 101 -58c18.667 -24.667 28 -53.334 28 -86.001c0 -51.333 -18.667 -92.666 -56 -123.999c-41.333 -34.667 -95 -52 -161 -52c-64 0 -132.333 19.667 -205 59z" />
    <glyph glyph-name="t" unicode="t" horiz-adv-x="341" 
d="M309 91l16.998 -79.999c-34 -15.333 -70.333 -23 -109 -23c-33.333 0 -62.333 6.66699 -87 20s-41.667 31.666 -51 54.999c-6 16 -9 38 -9 66v291h-51v92h51v35c0 36.667 1.66699 65.334 5 86.001l136 34c-5.33301 -56.667 -8 -108.334 -8 -155.001h120l-34 -92h-86v-257
c0 -36 5 -59 15 -69c8.66699 -8.66699 21.334 -13 38.001 -13c18.667 0 36.334 3.33301 53.001 10z" />
    <glyph glyph-name="u" unicode="u" horiz-adv-x="536" 
d="M497 40l-95 -54c-18.667 12 -32 28.667 -40 50c-18.667 -16 -38.667 -28 -60 -36c-20.667 -8 -45.667 -12 -75 -12c-38 0 -70.333 7.66699 -97 23s-44.667 35.333 -54 60c-7.33301 19.333 -11 53 -11 101v328l132 25v-329c0 -41.333 3.66699 -69.333 11 -84
c9.33301 -16 24.333 -24 45 -24c20 0 38.333 5.33301 55 16c12.667 8 22.667 19 30 33v360l128 27v-391c0 -37.333 10.333 -68.333 31 -93z" />
    <glyph glyph-name="v" unicode="v" horiz-adv-x="464" 
d="M474 512l-187 -512h-111l-186 504l137 17l74 -231c12.667 -38 23.667 -79 33 -123c4 36 14.333 79.333 31 130l69 215h140z" />
    <glyph glyph-name="w" unicode="w" horiz-adv-x="699" 
d="M561 512h137.999l-146 -512h-123l-46 176c-15.333 56.667 -25 98 -29 124l-8 51c-1.33301 -6.66699 -2.83301 -16 -4.5 -28s-4.16699 -24.667 -7.5 -38c-4 -18.667 -11.5 -50 -22.5 -94l-21.5 -86l-26 -105h-125l-140 503l133 15l42 -197c7.33301 -33.333 17 -86 29 -158
c8.66699 58 21 117 37 177l48 172h126l41 -169c14.667 -62.667 27.334 -122.667 38.001 -180c14.667 92.667 24 148 28 166z" />
    <glyph glyph-name="x" unicode="x" horiz-adv-x="500" 
d="M515 0h-169.999l-54 94c-3.33301 6 -10.5 19.667 -21.5 41s-17.167 33 -18.5 35c-8 -23.333 -25 -56.333 -51 -99l-43 -71h-172l189 273l-142 215l139 39c30 -50 53 -91.667 69 -125c5.33301 -10.667 10.666 -22 15.999 -34c7.33301 20 22.333 53.333 45 100
c8.66699 18 16.667 32.667 24 44h158l-152 -236z" />
    <glyph glyph-name="y" unicode="y" horiz-adv-x="497" 
d="M361 512l140.999 -0.00195312l-186 -520c-31.333 -88 -64 -144.333 -98 -169c-32 -24.667 -73.333 -40.334 -124 -47.001l-46 88c38 10 65.667 21.333 83 34c14 10.667 26.667 24.667 38 42c10.667 14.667 20.334 34.667 29.001 60h-34l-169 504l137 16l89 -299l27 -105
c0.666992 2.66699 2.16699 10.334 4.5 23.001l6.5 35c2 10.667 3.66699 18.334 5 23.001c9.33301 34.667 16 58.334 20 71.001z" />
    <glyph glyph-name="z" unicode="z" horiz-adv-x="469" 
d="M439 93l-32 -93h-377v83l241 335h-221v94h380v-92l-226 -327h235z" />
    <glyph glyph-name="braceleft" unicode="{" horiz-adv-x="382" 
d="M362 -156l-104.998 -0.00488281c-38 0 -69 12 -93 36s-36 60.667 -36 110v172c0 14.667 -4.16699 27 -12.5 37s-19.166 17 -32.499 21s-25 6.83301 -35 8.5s-19.333 2.5 -28 2.5v114c8.66699 0 18 0.833008 28 2.5s21.667 4.5 35 8.5s24.166 11 32.499 21
s12.5 22.333 12.5 37v173c0 49.333 11.667 85.833 35 109.5s54.666 35.5 93.999 35.5h105v-114h-49c-14.667 0 -26.667 -2 -36 -6s-15.833 -9.5 -19.5 -16.5s-6.16699 -13.5 -7.5 -19.5s-2 -13.333 -2 -22v-161c0 -22 -3 -40.167 -9 -54.5s-14.833 -24.666 -26.5 -30.999
s-21.834 -10.666 -30.501 -12.999s-20 -4.16602 -34 -5.49902v-2c14 -0.666992 25.5 -2.16699 34.5 -4.5s19.167 -6.66602 30.5 -12.999s20 -16.666 26 -30.999s9 -32.5 9 -54.5v-162c0 -8.66699 0.666992 -16 2 -22s3.83301 -12.5 7.5 -19.5s10.167 -12.5 19.5 -16.5
s21.333 -6 36 -6h49v-114z" />
    <glyph glyph-name="bar" unicode="|" horiz-adv-x="266" 
d="M196 -208h-126v964h126v-964z" />
    <glyph glyph-name="braceright" unicode="}" horiz-adv-x="382" 
d="M362 345l-0.00292969 -113.995c-9.33301 0 -19 -0.833008 -29 -2.5s-21.5 -4.5 -34.5 -8.5s-23.667 -11 -32 -21s-12.5 -22.333 -12.5 -37v-173c0 -49.333 -11.667 -85.833 -35 -109.5s-54.666 -35.5 -93.999 -35.5h-105v114h49c14.667 0 26.667 2 36 6
s15.833 9.5 19.5 16.5s6.16699 13.5 7.5 19.5s2 13.333 2 22v161c0 22 3 40.167 9 54.5s14.833 24.666 26.5 30.999s21.834 10.666 30.501 12.999s20 4.16602 34 5.49902v2c-14 0.666992 -25.5 2.16699 -34.5 4.5s-19.167 6.66602 -30.5 12.999s-20 16.666 -26 30.999
s-9 32.5 -9 54.5v162c0 8.66699 -0.666992 16 -2 22s-3.83301 12.5 -7.5 19.5s-10.167 12.5 -19.5 16.5s-21.333 6 -36 6h-49v114h108c36.667 0 66.834 -12 90.501 -36s35.5 -60.667 35.5 -110v-172c0 -14.667 4.16699 -27 12.5 -37s19 -17 32 -21s24.5 -6.83301 34.5 -8.5
s19.667 -2.5 29 -2.5z" />
    <glyph glyph-name="asciitilde" unicode="~" horiz-adv-x="552" 
d="M471 400l36 -108c-30 -57.333 -71.667 -86 -125 -86c-26 0 -63 10.667 -111 32l-21.5 9.5c-9.66699 4.33301 -17.334 7.66602 -23.001 9.99902l-20 8c-7.66699 3 -14.5 5.16699 -20.5 6.5s-11.667 2 -17 2c-12.667 0 -25 -4.16699 -37 -12.5s-20.5 -15.666 -25.5 -21.999
l-25.5 -33.5l-36 108c30 57.333 71.667 86 125 86c26 0 63 -10.667 111 -32l21.5 -9.5c9.66699 -4.33301 17.334 -7.66602 23.001 -9.99902l20 -8c7.66699 -3 14.5 -5.16699 20.5 -6.5s11.667 -2 17 -2c12.667 0 25 4.16699 37 12.5s20.5 15.666 25.5 21.999z" />
    <glyph glyph-name="uni00A0" unicode="&#xa0;" horiz-adv-x="225" 
 />
    <glyph glyph-name="sterling" unicode="&#xa3;" horiz-adv-x="583" 
d="M593 652l-100 -107c-28.667 28.667 -59 43 -91 43c-41.333 0 -71 -12 -89 -36s-27 -53.667 -27 -89v-49h156v-102h-156v-198h253v-114h-499v114h96v198h-96v102h96v71c0 64 22.167 119.167 66.5 165.5s104.833 69.5 181.5 69.5c89.333 0 159 -22.667 209 -68z" />
    <glyph glyph-name="currency" unicode="&#xa4;" horiz-adv-x="647" 
d="M182 115l-68 -67l-64 64l67 68c-27.333 40 -41 85 -41 135s13.667 95 41 135l-67 68l65 63l67 -67c40.667 28 85.667 42 135 42s94.333 -14 135 -42l68 68l64 -64l-67 -68c27.333 -40 41 -85 41 -135s-13.667 -95 -41 -135l68 -68l-66 -63l-67 66
c-40 -27.333 -85 -41 -135 -41s-95 13.667 -135 41zM162 315c0 -44 14.833 -80.833 44.5 -110.5s66.5 -44.5 110.5 -44.5s80.833 14.833 110.5 44.5s44.5 66.5 44.5 110.5s-14.833 80.833 -44.5 110.5s-66.5 44.5 -110.5 44.5s-80.833 -14.833 -110.5 -44.5
s-44.5 -66.5 -44.5 -110.5z" />
    <glyph glyph-name="brokenbar" unicode="&#xa6;" horiz-adv-x="266" 
d="M196 342h-126v414h126v-414zM196 -208h-126v414h126v-414z" />
    <glyph glyph-name="section" unicode="&#xa7;" horiz-adv-x="588" 
d="M519 617l-125.998 -72.002c-6.66699 18.667 -18.5 33.5 -35.5 44.5s-35.833 16.5 -56.5 16.5c-17.333 0 -32.5 -4.66699 -45.5 -14s-19.5 -22.333 -19.5 -39c0 -18 10.667 -34 32 -48s47.333 -26.833 78 -38.5s61.334 -24.5 92.001 -38.5s56.667 -33.667 78 -59
s32 -54.666 32 -87.999c0 -26.667 -7.83301 -52 -23.5 -76s-35.834 -42 -60.501 -54c36.667 -29.333 55 -69 55 -119c0 -41.333 -13.333 -76.333 -40 -105s-57.834 -48.834 -93.501 -60.501s-73.167 -17.5 -112.5 -17.5c-116 0 -193.667 42 -233 126l128 63
c5.33301 -22.667 18.666 -39.834 39.999 -51.501s44.333 -17.5 69 -17.5c20 0 38.333 4 55 12s25 21.333 25 40c0 14.667 -7.5 27.834 -22.5 39.501s-33.5 21.5 -55.5 29.5s-46.167 18 -72.5 30s-50.5 24.5 -72.5 37.5s-40.5 31.333 -55.5 55s-22.5 50.5 -22.5 80.5
c0 62.667 29 112 87 148c-42 28 -63 66.333 -63 115c0 36.667 11.167 68.334 33.5 95.001s49.333 45.834 81 57.501s65.167 17.5 100.5 17.5c48.667 0 93.5 -8.5 134.5 -25.5s70.833 -44.833 89.5 -83.5zM274.002 238.998l102 -46.998c22.667 13.333 34 33.666 34 60.999
c0 28 -21.667 52 -65 72l-116 55c-23.333 -13.333 -35 -33 -35 -59c0 -11.333 2 -21.333 6 -30s11.167 -16.5 21.5 -23.5s18 -11.833 23 -14.5s14.833 -7.33398 29.5 -14.001z" />
    <glyph glyph-name="copyright" unicode="&#xa9;" horiz-adv-x="824" 
d="M784 354c0 -102.667 -36.333 -190.334 -109 -263.001s-160.334 -109 -263.001 -109s-190.334 36.333 -263.001 109s-109 160.334 -109 263.001s36.333 190.334 109 263.001s160.334 109 263.001 109s190.334 -36.333 263.001 -109s109 -160.334 109 -263.001zM682 354
c0 77.333 -26.333 143.666 -79 198.999s-116.334 83 -191.001 83s-138.334 -27.667 -191.001 -83s-79 -121.666 -79 -198.999s26.333 -143.666 79 -198.999s116.334 -83 191.001 -83s138.334 27.667 191.001 83s79 121.666 79 198.999zM491 260l49.002 -62.001
c-38 -28.667 -78.667 -43 -122 -43c-55.333 0 -99.5 17.333 -132.5 52s-49.5 81 -49.5 139c0 60.667 16.667 110.334 50 149.001s77.666 58 132.999 58c44 0 81.333 -12.667 112 -38l-46 -66c-24.667 16.667 -46.334 25 -65.001 25c-50 0 -75 -38 -75 -114
c0 -45.333 6.16699 -78 18.5 -98s32.5 -30 60.5 -30c24.667 0 47 9.33301 67 28z" />
    <glyph glyph-name="guillemotleft" unicode="&#xab;" horiz-adv-x="542" 
d="M517 76l-91 -61l-159 234l159 234l91 -61l-116 -173zM275 76l-91 -61l-159 234l159 234l91 -61l-116 -173z" />
    <glyph glyph-name="logicalnot" unicode="&#xac;" horiz-adv-x="521" 
d="M481 58h-123v140h-318v109h441v-249z" />
    <glyph glyph-name="uni00AD" unicode="&#xad;" horiz-adv-x="320" 
d="M280 216h-240v116h240v-116z" />
    <glyph glyph-name="registered" unicode="&#xae;" horiz-adv-x="824" 
d="M784 354c0 -102.667 -36.333 -190.334 -109 -263.001s-160.334 -109 -263.001 -109s-190.334 36.333 -263.001 109s-109 160.334 -109 263.001s36.333 190.334 109 263.001s160.334 109 263.001 109s190.334 -36.333 263.001 -109s109 -160.334 109 -263.001zM682 354
c0 77.333 -26.333 143.666 -79 198.999s-116.334 83 -191.001 83s-138.334 -27.667 -191.001 -83s-79 -121.666 -79 -198.999s26.333 -143.666 79 -198.999s116.334 -83 191.001 -83s138.334 27.667 191.001 83s79 121.666 79 198.999zM580 171l-114.999 -0.000976562
l-40 65c-31.333 53.333 -49.333 82 -54 86v-151h-97v382h153c37.333 0 67.166 -10.667 89.499 -32s33.5 -49.666 33.5 -84.999c0 -28 -8.33301 -51.667 -25 -71s-37.667 -30.333 -63 -33c15.333 -6 32.333 -23.333 51 -52zM371.001 396.999h26c18.667 0 31.667 3 39 9
s11 15.667 11 29c0 26 -16.333 39 -49 39h-27v-77z" />
    <glyph glyph-name="degree" unicode="&#xb0;" horiz-adv-x="401" 
d="M371 533c0 -54.667 -15.667 -97.333 -47 -128c-32 -30.667 -73.667 -46 -125 -46s-92.333 15.5 -123 46.5s-46 72.833 -46 125.5c0 52 15.5 94 46.5 126s71.833 48 122.5 48c52 0 94.667 -16.667 128 -50c29.333 -29.333 44 -70 44 -122zM260 535.001
c0 40.667 -6.66602 67.333 -19.999 80c-10.667 10.667 -24.667 16 -42 16c-24.667 0 -41.334 -10 -50.001 -30c-6 -14.667 -9 -37 -9 -67c0 -38.667 3.66699 -63.667 11 -75c10.667 -16.667 27.334 -25 50.001 -25c21.333 0 36.666 8 45.999 24s14 41.667 14 77z" />
    <glyph glyph-name="plusminus" unicode="&#xb1;" horiz-adv-x="503" 
d="M463 283h-150v-143h-123v143h-150v113h150v137h123v-137h150v-113zM461 0h-419v113h419v-113z" />
    <glyph glyph-name="twosuperior" unicode="&#xb2;" horiz-adv-x="374" 
d="M344 333l-22.999 -83.001h-275v67c46.667 43.333 81 76.666 103 99.999c41.333 42.667 62 79.667 62 111c0 28 -13 42 -39 42c-21.333 0 -50 -14 -86 -42l-56 63c51.333 43.333 106.333 65 165 65c38 0 68.667 -11 92 -33s35 -50.667 35 -86
c0 -18 -4.33301 -36.5 -13 -55.5s-22.334 -38.667 -41.001 -59s-33.167 -35.666 -43.5 -45.999s-26.5 -25.166 -48.5 -44.499c4 0 10 0.166992 18 0.5s13.667 0.5 17 0.5h133z" />
    <glyph glyph-name="threesuperior" unicode="&#xb3;" horiz-adv-x="366" 
d="M85 546l-53.998 64c50.667 37.333 102.334 56 155.001 56c39.333 0 72.5 -10.333 99.5 -31s40.5 -46.667 40.5 -78c0 -35.333 -15.667 -63.333 -47 -84c38 -19.333 57 -48.333 57 -87c0 -43.333 -21 -78.166 -63 -104.499s-95 -39.5 -159 -39.5c-18 0 -37 1.33301 -57 4
l-27 74c27.333 -4.66699 47.666 -7 60.999 -7c40 0 71.667 7.5 95 22.5s35 33.833 35 56.5c0 8 -1.66699 14.667 -5 20s-7 9.33301 -11 12s-9.83301 4.66699 -17.5 6s-13.834 2.16602 -18.501 2.49902s-11.334 0.5 -20.001 0.5h-40v81c22.667 -2.66699 39.667 -4 51 -4
c38 0 57 13 57 39c0 22 -13.667 33 -41 33c-30.667 0 -61 -12 -91 -36z" />
    <glyph glyph-name="paragraph" unicode="&#xb6;" horiz-adv-x="592" 
d="M522 -126h-90v761h-107v-761h-90v464c-64.667 0 -116.667 16.833 -156 50.5s-59 77.167 -59 130.5c0 64.667 20.5 112.167 61.5 142.5s98.167 45.5 171.5 45.5h269v-833z" />
    <glyph glyph-name="periodcentered" unicode="&#xb7;" horiz-adv-x="258" 
d="M218 273c0 -24 -8.83301 -44.668 -26.5 -62.001s-38.834 -26 -63.501 -26s-45.5 8.66699 -62.5 26s-25.5 38.333 -25.5 63s8.83301 45.834 26.5 63.501s38.834 26.5 63.501 26.5s45.5 -8.83301 62.5 -26.5s25.5 -39.167 25.5 -64.5z" />
    <glyph glyph-name="onesuperior" unicode="&#xb9;" horiz-adv-x="314" 
d="M284 250h-215v81h64v208c-31.333 -16.667 -56.333 -28 -75 -34l-28 56l134 89h68v-319h52v-81z" />
    <glyph glyph-name="guillemotright" unicode="&#xbb;" horiz-adv-x="542" 
d="M517 249l-159 -234l-91 61l116 173l-116 173l91 61zM275 249l-159 -234l-91 61l116 173l-116 173l91 61z" />
    <glyph glyph-name="onequarter" unicode="&#xbc;" horiz-adv-x="916" 
d="M765 764l-528 -918h-108l528 918h108zM886 71l-37 0.000976562l-7 1c0 -0.666992 0.166992 -2.33398 0.5 -5.00098s0.5 -4.66699 0.5 -6v-75l-96 -11v91l1 5h-178v63l109 267h105l-84 -207c-4 -10 -10.333 -22.667 -19 -38h69c0 20.667 3.66699 67.667 11 141l82 18v-153
l-1 -7c1.33301 0 3 0.166992 5 0.5s3.33301 0.5 4 0.5h35v-85zM284 250.001h-215v81h64v208c-31.333 -16.667 -56.333 -28 -75 -34l-28 56l134 89h68v-319h52v-81z" />
    <glyph glyph-name="onehalf" unicode="&#xbd;" horiz-adv-x="914" 
d="M744 764l-528 -918h-108l528 918h108zM884 83l-22.999 -83.001h-275v67c46.667 43.333 81 76.666 103 99.999c41.333 42.667 62 79.667 62 111c0 28 -13 42 -39 42c-21.333 0 -50 -14 -86 -42l-56 63c51.333 43.333 106.333 65 165 65c38 0 68.667 -11 92 -33
s35 -50.667 35 -86c0 -18 -4.33301 -36.5 -13 -55.5s-22.334 -38.667 -41.001 -59s-33.167 -35.666 -43.5 -45.999s-26.5 -25.166 -48.5 -44.499c4 0 10 0.166992 18 0.5s13.667 0.5 17 0.5h133zM284.001 249.999h-215v81h64v208c-31.333 -16.667 -56.333 -28 -75 -34
l-28 56l134 89h68v-319h52v-81z" />
    <glyph glyph-name="threequarters" unicode="&#xbe;" horiz-adv-x="968" 
d="M817 764l-528 -918h-108l528 918h108zM938 71l-37 0.000976562l-7 1c0 -0.666992 0.166992 -2.33398 0.5 -5.00098s0.5 -4.66699 0.5 -6v-75l-96 -11v91l1 5h-178v63l109 267h105l-84 -207c-4 -10 -10.333 -22.667 -19 -38h69c0 20.667 3.66699 67.667 11 141l82 18v-153
l-1 -7c1.33301 0 3 0.166992 5 0.5s3.33301 0.5 4 0.5h35v-85zM85 546.001l-53.998 64c50.667 37.333 102.334 56 155.001 56c39.333 0 72.5 -10.333 99.5 -31s40.5 -46.667 40.5 -78c0 -35.333 -15.667 -63.333 -47 -84c38 -19.333 57 -48.333 57 -87
c0 -43.333 -21 -78.166 -63 -104.499s-95 -39.5 -159 -39.5c-18 0 -37 1.33301 -57 4l-27 74c27.333 -4.66699 47.666 -7 60.999 -7c40 0 71.667 7.5 95 22.5s35 33.833 35 56.5c0 8 -1.66699 14.667 -5 20s-7 9.33301 -11 12s-9.83301 4.66699 -17.5 6
s-13.834 2.16602 -18.501 2.49902s-11.334 0.5 -20.001 0.5h-40v81c22.667 -2.66699 39.667 -4 51 -4c38 0 57 13 57 39c0 22 -13.667 33 -41 33c-30.667 0 -61 -12 -91 -36z" />
    <glyph glyph-name="multiply" unicode="&#xd7;" horiz-adv-x="616" 
d="M546 154l-89 -89l-149 149l-149 -149l-89 89l149 149l-149 149l89 89l149 -149l149 149l89 -89l-149 -149z" />
    <glyph glyph-name="divide" unicode="&#xf7;" horiz-adv-x="585" 
d="M545 214h-505v105h505v-105zM377 68c0 -23.333 -8.5 -43.166 -25.5 -59.499s-37.5 -24.5 -61.5 -24.5c-23.333 0 -43.5 8.16699 -60.5 24.5s-25.5 36.166 -25.5 59.499c0 24 8.33301 44.833 25 62.5s36.667 26.5 60 26.5h2c24 -0.666992 44.333 -9.5 61 -26.5
s25 -37.833 25 -62.5zM378 467c0 -24 -8.5 -44.333 -25.5 -61s-37.5 -25 -61.5 -25c-23.333 0 -43.333 8.33301 -60 25s-25 36.667 -25 60c0 24 8.33301 44.667 25 62s36.667 26 60 26c24 0 44.5 -8.5 61.5 -25.5s25.5 -37.5 25.5 -61.5z" />
    <glyph glyph-name="florin" unicode="&#x192;" horiz-adv-x="312" 
d="M380 709l-41.002 -83.001c-21.333 11.333 -38.333 17 -51 17c-16 0 -29.167 -5.16699 -39.5 -15.5s-16.166 -24.5 -17.499 -42.5l-5 -73h118l-32 -94h-90l-27 -384c-2 -28.667 -4.16699 -52.5 -6.5 -71.5s-6.83301 -36.667 -13.5 -53s-12.167 -29 -16.5 -38
s-13.333 -19.5 -27 -31.5s-25 -21.167 -34 -27.5l-47.5 -32.5l-62 91c33.333 26 55 46.833 65 62.5s16.333 41.167 19 76.5l27 408h-43v94h52c0 0.666992 1 24 3 70c3.33301 50.667 18.833 89.834 46.5 117.501s65.834 41.5 114.501 41.5c38.667 0 74.667 -10.667 108 -32z
" />
    <glyph glyph-name="Delta" unicode="&#x394;" horiz-adv-x="668" 
d="M638 0h-608l244 638h124zM456 115l-126 347l-132 -347h258z" />
    <glyph glyph-name="mu" unicode="&#x3bc;" horiz-adv-x="541" 
d="M502 40l-95 -54.001c-18.667 12 -32 28.667 -40 50c-34.667 -32.667 -78.334 -49 -131.001 -49c-15.333 0 -28.333 4.66699 -39 14c1.33301 -9.33301 2 -19.666 2 -30.999v-156l-129 -34v720l132 25v-329c0 -44.667 3.66699 -72.667 11 -84
c8.66699 -16 24.334 -24 47.001 -24c14 0 29.167 4 45.5 12s28.833 20.333 37.5 37v360l128 27v-391c0 -37.333 10.333 -68.333 31 -93z" />
    <glyph glyph-name="afii10023" unicode="&#x401;" horiz-adv-x="495" 
d="M475 0h-405v695h396l-18 -114h-238v-161h199v-114h-197v-186h263v-120zM441 810c0 -20.667 -7.66699 -38.667 -23 -54s-33.333 -23 -54 -23s-38.5 7.66699 -53.5 23s-22.5 33.333 -22.5 54s7.66699 38.667 23 54s33.666 23 54.999 23c20.667 0 38.334 -7.5 53.001 -22.5
s22 -33.167 22 -54.5zM230 810c0 -20.667 -7.66895 -38.667 -23.002 -54s-33.333 -23 -54 -23c-20 0 -37.667 7.66699 -53 23s-23 33.333 -23 54s7.83301 38.667 23.5 54s33.834 23 54.501 23s38.334 -7.66699 53.001 -23s22 -33.333 22 -54z" />
    <glyph glyph-name="afii10051" unicode="&#x402;" horiz-adv-x="693" 
d="M511 695l-23.001 -116h-179v-170c50 20.667 97 31 141 31c49.333 0 90.333 -15 123 -45c43.333 -39.333 65 -98.666 65 -177.999c0 -82.667 -18.333 -143 -55 -181c-30.667 -32 -71 -48 -121 -48c-32 0 -61.667 5 -89 15l-14 5l22 99c5.33301 -2.66699 13 -5.66699 23 -9
s19.667 -5 29 -5c16.667 0 29.334 5.16699 38.001 15.5s13.667 20.666 15 30.999s2 23.833 2 40.5v37c0 44.667 -8 75 -24 91c-14 14 -34.667 21 -62 21c-31.333 0 -62.333 -7 -93 -21v-308h-142v579h-157v116h501z" />
    <glyph glyph-name="afii10052" unicode="&#x403;" horiz-adv-x="454" 
d="M449 695l-16 -113h-221v-582h-142v695h379zM379 833l-224 -100l-41 74l207 130z" />
    <glyph glyph-name="afii10053" unicode="&#x404;" horiz-adv-x="565" 
d="M533 652l-63.001 -94.002c-34.667 26 -74 39 -118 39c-53.333 0 -93 -18 -119 -54c-18 -24.667 -28.333 -57.667 -31 -99l-1 -22h199v-112h-202v-33c0 -51.333 10.333 -91.666 31 -120.999c26.667 -38.667 70.334 -58 131.001 -58c44 0 85.333 15 124 45l64 -90
c-55.333 -43.333 -121.333 -65 -198 -65c-96 0 -172 32 -228 96c-54.667 62.667 -82 151.334 -82 266.001c0 110 26 196 78 258c55.333 66 131.333 99 228 99c72 0 134.333 -18.333 187 -55z" />
    <glyph glyph-name="afii10054" unicode="&#x405;" horiz-adv-x="584" 
d="M542 646l-65.999 -99.999c-54 35.333 -107.667 53 -161 53c-26 0 -47.333 -5.66699 -64 -17c-22.667 -14.667 -34 -36.667 -34 -66c0 -14.667 4.33301 -26.667 13 -36c10 -12 31.333 -22.333 64 -31l84 -23c56 -15.333 99 -40 129 -74
c31.333 -35.333 47 -79.666 47 -132.999c0 -64 -22.333 -117 -67 -159c-52.667 -50 -126 -75 -220 -75c-81.333 0 -160.333 21 -237 63l52 109c66 -37.333 129.667 -56 191 -56c43.333 0 75.666 10 96.999 30c16.667 15.333 25 37 25 65c0 21.333 -7 39.666 -21 54.999
c-12.667 14 -36 25.667 -70 35l-77 21c-64 17.333 -109.667 46.666 -137 87.999c-19.333 28.667 -29 64 -29 106c0 64 24 116.333 72 157c45.333 38.667 104.333 58 177 58c88.667 0 166 -23.333 232 -70z" />
    <glyph glyph-name="afii10055" unicode="&#x406;" horiz-adv-x="282" 
d="M212 0h-142v695h142v-695z" />
    <glyph glyph-name="afii10056" unicode="&#x407;" horiz-adv-x="282" 
d="M212 0h-142v695h142v-695zM323 810c0 -20.667 -7.66699 -38.667 -23 -54s-33.333 -23 -54 -23s-38.5 7.66699 -53.5 23s-22.5 33.333 -22.5 54s7.66699 38.667 23 54s33.666 23 54.999 23c20.667 0 38.334 -7.5 53.001 -22.5s22 -33.167 22 -54.5zM112 810
c0 -20.667 -7.66895 -38.667 -23.002 -54s-33.333 -23 -54 -23c-20 0 -37.667 7.66699 -53 23s-23 33.333 -23 54s7.83301 38.667 23.5 54s33.834 23 54.501 23s38.334 -7.66699 53.001 -23s22 -33.333 22 -54z" />
    <glyph glyph-name="afii10057" unicode="&#x408;" horiz-adv-x="287" 
d="M217 695v-601c0 -39.333 -3.33301 -71 -10 -95c-21.333 -75.333 -75.333 -129.666 -162 -162.999l-65 72c37.333 22.667 64.333 50.667 81 84c9.33301 25.333 14 54.666 14 87.999v615h142z" />
    <glyph glyph-name="afii10058" unicode="&#x409;" horiz-adv-x="916" 
d="M539 436l87 -0.000976562c36 0 67.833 -3.16699 95.5 -9.5s54.167 -19.833 79.5 -40.5c46.667 -39.333 70 -94.666 70 -165.999c0 -80 -28.667 -139.667 -86 -179c-40 -27.333 -91 -41 -153 -41h-235v585h-129l-4 -108c-4 -118 -11.667 -214 -23 -288
c-8.66699 -62.667 -26.667 -108.334 -54 -137.001c-26.667 -28 -69 -46.333 -127 -55l-44 -7l-26 101l17 5c22.667 6 40 13.667 52 23c19.333 14.667 33 32.667 41 54c8.66699 20.667 16 59.334 22 116.001c10 88 15.667 182.333 17 283l2 123h398v-259zM539 111.999h75
c37.333 0 65 11.333 83 34c14.667 18.667 22 44 22 76c0 32.667 -9.33301 58 -28 76c-17.333 17.333 -43 26 -77 26h-75v-212z" />
    <glyph glyph-name="afii10059" unicode="&#x40a;" horiz-adv-x="924" 
d="M405 695h142v-263h87c36 0 67.833 -3.16699 95.5 -9.5s54.167 -19.833 79.5 -40.5c46.667 -39.333 70 -93.333 70 -162c0 -79.333 -28.667 -139 -86 -179c-40 -27.333 -91 -41 -153 -41h-235v318h-193v-318h-142v695h142v-262h193v262zM547 112h74.999
c36.667 0 64.334 11.333 83.001 34c14.667 18 22 42 22 72c0 32.667 -9.33301 58 -28 76c-17.333 17.333 -43 26 -77 26h-75v-208z" />
    <glyph glyph-name="afii10060" unicode="&#x40b;" horiz-adv-x="695" 
d="M511 695l-23 -116.001h-179v-170c50.667 20.667 97.667 31 141 31c58.667 0 104 -16 136 -48c29.333 -29.333 44 -68.666 44 -117.999v-274h-142v217c0 44.667 -8 75 -24 91c-14 14 -34.667 21 -62 21c-31.333 0 -62.333 -7 -93 -21v-308h-142v579h-157v116h501z" />
    <glyph glyph-name="afii10061" unicode="&#x40c;" horiz-adv-x="629" 
d="M568 705l27.002 -92.999l-32 -8c-12.667 -3.33301 -23.334 -8 -32.001 -14c-11.333 -8.66699 -20.333 -24 -27 -46l-19 -66c-10.667 -36 -23 -61.333 -37 -76c-16.667 -16.667 -35.667 -27.667 -57 -33c21.333 -6.66699 39.333 -17.334 54 -32.001
c16 -16 29.333 -40.667 40 -74l30 -103c8 -26 19 -43 33 -51c11.333 -6.66699 24.666 -12 39.999 -16l21 -6l-26 -97l-79 9c-36 4 -64 17.333 -84 40c-12.667 15.333 -23.667 44 -33 86l-23 101c-6.66699 28.667 -17.667 50 -33 64c-14.667 13.333 -37 20 -67 20h-52v-310
h-142v695h142v-270h62c30.667 0 53.667 6.66699 69 20c12 10.667 21.667 31.667 29 63l22 87c8 32.667 19 56 33 70c15.333 16 40 26.333 74 31zM467.002 833.001l-224 -100l-41 74l207 130z" />
    <glyph glyph-name="afii10062" unicode="&#x40e;" horiz-adv-x="541" 
d="M143 695l96.001 -258.999c19.333 -52 34 -98.667 44 -140c11.333 48.667 28 105 50 169l81 230h147l-182 -489l-12 -32.5l-10.5 -29l-9 -24c-3.66699 -9.66699 -6.5 -16.834 -8.5 -21.501l-7.5 -17.5c-3 -7 -5.5 -12.333 -7.5 -16l-7 -12.5
c-2.66699 -4.66699 -5.33398 -8.66699 -8.00098 -12l-8 -10c-24.667 -26.667 -65.667 -45 -123 -55l-44 -7l-26 101l17 5c22 6 39.333 13.333 52 22c25.333 16.667 45.333 45 60 85l12 32l-68 -9l-191 490h153zM365.001 887.001l70.002 -29
c-8.66699 -32.667 -27 -59.334 -55 -80.001s-64.667 -31 -110 -31s-82 10.333 -110 31s-46.333 47.334 -55 80.001l70 29c5.33301 -13.333 16.666 -24.666 33.999 -33.999c14.667 -8.66699 35 -13 61 -13s46.333 4.33301 61 13c17.333 9.33301 28.666 20.666 33.999 33.999z
" />
    <glyph glyph-name="afii10145" unicode="&#x40f;" horiz-adv-x="607" 
d="M212 695v-580h183v580h142v-695h-165v-172h-134v172h-168v695h142z" />
    <glyph glyph-name="afii10017" unicode="&#x410;" horiz-adv-x="582" 
d="M590 0h-150l-49 165h-204l-49 -165h-146l228 697h151zM221 280l136 -0.000976562c-14.667 47.333 -27.334 94.333 -38.001 141c-14 57.333 -23.333 98 -28 122l-33 -133c-17.333 -65.333 -29.666 -108.666 -36.999 -129.999z" />
    <glyph glyph-name="afii10018" unicode="&#x411;" horiz-adv-x="604" 
d="M70 695h440l-18 -114h-280v-157h109c72 0 128.333 -16.333 169 -49c46 -37.333 69 -91 69 -161c0 -78.667 -27.333 -136.667 -82 -174c-38.667 -26.667 -88.667 -40 -150 -40h-257v695zM212 114h94c33.333 0 58.333 10.333 75 31c13.333 16.667 20 39.667 20 69
c0 36 -12 62.333 -36 79c-16 11.333 -37.333 17 -64 17h-89v-196z" />
    <glyph glyph-name="afii10019" unicode="&#x412;" horiz-adv-x="600" 
d="M70 695h235c39.333 0 72.333 -3.33301 99 -10s51 -20 73 -40c37.333 -34 56 -75.333 56 -124c0 -48 -15.667 -86.667 -47 -116c-18.667 -16.667 -40 -28.667 -64 -36c28 -6.66699 53.667 -19.667 77 -39c40.667 -34 61 -79.333 61 -136s-18.167 -103.167 -54.5 -139.5
s-88.5 -54.5 -156.5 -54.5h-279v695zM210 114h98.999c32.667 0 57.334 11.333 74.001 34c12.667 18 19 39 19 63c0 30.667 -8.66699 54 -26 70c-14.667 14 -37 21 -67 21h-99v-188zM207.999 576v-158.999h94c29.333 0 51 7.66699 65 23c13.333 14.667 20 33.667 20 57
c0 35.333 -13.333 58.666 -40 69.999c-14 6 -33.333 9 -58 9h-81z" />
    <glyph glyph-name="afii10020" unicode="&#x413;" horiz-adv-x="454" 
d="M449 695l-16 -113h-221v-582h-142v695h379z" />
    <glyph glyph-name="afii10021" unicode="&#x414;" horiz-adv-x="650" 
d="M560 695v-585h72v-278h-135v168h-362v-168h-135v278h45c44 87.333 74 174.333 90 261c13.333 75.333 21.333 153.333 24 234l3 90h398zM277 585l-4 -71.001c-3.33301 -52.667 -7.66602 -95.667 -12.999 -129s-15.333 -74.666 -30 -123.999
c-18.667 -62.667 -39.334 -113 -62.001 -151h250v475h-141z" />
    <glyph glyph-name="afii10022" unicode="&#x415;" horiz-adv-x="495" 
d="M475 0h-405v695h396l-18 -115h-238v-160h199v-115h-197v-185h263v-120z" />
    <glyph glyph-name="afii10024" unicode="&#x416;" horiz-adv-x="929" 
d="M867 707l27.002 -93l-32 -8c-14.667 -4 -25.334 -8.66699 -32.001 -14c-12 -8.66699 -20.667 -24 -26 -46l-19 -68c-11.333 -38 -23.666 -64 -36.999 -78c-13.333 -14.667 -31.333 -25.667 -54 -33c20.667 -7.33301 38 -18 52 -32
c19.333 -21.333 32.666 -45.333 39.999 -72l29 -103c8 -26 19 -43 33 -51c11.333 -6.66699 24.666 -12 39.999 -16l21 -6l-26 -97l-79 9c-37.333 3.33301 -65.333 16.666 -84 39.999c-12.667 14.667 -23.667 43.334 -33 86.001l-23 101c-6.66699 28 -17.667 48.667 -33 62
c-16 14.667 -38.333 22 -67 22h-30v-310h-139v310h-30c-28.667 0 -51 -7.33301 -67 -22c-15.333 -13.333 -26.333 -34 -33 -62l-23 -101c-9.33301 -42.667 -20.333 -71.334 -33 -86.001c-18.667 -23.333 -46.667 -36.666 -84 -39.999l-79 -9l-26 97l21 6
c15.333 4 28.666 9.33301 39.999 16c14 8 25 25 33 51l29 103c7.33301 26.667 20.666 50.667 39.999 72c14 14 31.333 24.667 52 32c-22.667 7.33301 -40.667 18.333 -54 33c-13.333 14 -25.666 40 -36.999 78l-19 68c-5.33301 22 -14 37.333 -26 46
c-6.66699 5.33301 -17.334 10 -32.001 14l-32 8l27 93l67 -9c34 -4.66699 58.667 -15 74 -31c14 -14.667 25 -38 33 -70l21 -89c8.66699 -32.667 18.334 -53.667 29.001 -63c16 -13.333 36.667 -20 62 -20h47v270h139v-270h47c25.333 0 46 6.66699 62 20
c10.667 9.33301 20.334 30.333 29.001 63l21 89c8 32 19 55.333 33 70c15.333 16 40 26.333 74 31z" />
    <glyph glyph-name="afii10025" unicode="&#x417;" horiz-adv-x="535" 
d="M228 306l-81.998 -0.000976562v105h69c36 0 62.333 7.66699 79 23s25 38.333 25 69s-7.33301 53.334 -22 68.001c-17.333 18.667 -44.333 28 -81 28c-48.667 0 -88.667 -12.667 -120 -38l-66 89c60.667 38 130 57 208 57c66 0 119.333 -14.667 160 -44
c48 -34.667 72 -82.667 72 -144c0 -38.667 -10.667 -71.667 -32 -99c-20.667 -26 -47.334 -44.333 -80.001 -55c32.667 -4.66699 61 -17 85 -37c34.667 -30 52 -72.667 52 -128c0 -67.333 -27.667 -121.333 -83 -162c-45.333 -33.333 -108.666 -50 -189.999 -50
c-86.667 0 -157.334 21.667 -212.001 65l64 91c41.333 -32 88.666 -48 141.999 -48c44 0 76 10.667 96 32c16.667 17.333 25 43 25 77c0 32 -7.66699 56 -23 72c-18 19.333 -46.667 29 -86 29z" />
    <glyph glyph-name="afii10026" unicode="&#x418;" horiz-adv-x="640" 
d="M570 0h-142v344c0 39.333 2 88.333 6 147c-8.66699 -28.667 -24.667 -69 -48 -121l-169 -370h-147v695h142v-344c0 -39.333 -2 -88.333 -6 -147c8.66699 28.667 24.667 69 48 121l169 370h147v-695z" />
    <glyph glyph-name="afii10027" unicode="&#x419;" horiz-adv-x="640" 
d="M570 0h-142v344c0 39.333 2 88.333 6 147c-8.66699 -28.667 -24.667 -69 -48 -121l-169 -370h-147v695h142v-344c0 -39.333 -2 -88.333 -6 -147c8.66699 28.667 24.667 69 48 121l169 370h147v-695zM415 883l70.002 -29c-8.66699 -32.667 -27 -59.334 -55 -80.001
s-64.667 -31 -110 -31s-82 10.333 -110 31s-46.333 47.334 -55 80.001l70 29c8 -14 19.333 -25.333 34 -34c15.333 -8.66699 35.666 -13 60.999 -13s45.666 4.33301 60.999 13c14.667 8.66699 26 20 34 34z" />
    <glyph glyph-name="afii10028" unicode="&#x41a;" horiz-adv-x="629" 
d="M568 705l27.002 -92.999l-32 -8c-12.667 -3.33301 -23.334 -8 -32.001 -14c-11.333 -8.66699 -20.333 -24 -27 -46l-19 -66c-10.667 -36 -23 -61.333 -37 -76c-16.667 -16.667 -35.667 -27.667 -57 -33c21.333 -6.66699 39.333 -17.334 54 -32.001
c16 -16 29.333 -40.667 40 -74l30 -103c8 -26 19 -43 33 -51c11.333 -6.66699 24.666 -12 39.999 -16l21 -6l-26 -97l-79 9c-36 4 -64 17.333 -84 40c-12.667 15.333 -23.667 44 -33 86l-23 101c-6.66699 28.667 -17.667 50 -33 64c-14.667 13.333 -37 20 -67 20h-52v-310
h-142v695h142v-270h62c30.667 0 53.667 6.66699 69 20c12 10.667 21.667 31.667 29 63l22 87c8 32.667 19 56 33 70c15.333 16 40 26.333 74 31z" />
    <glyph glyph-name="afii10029" unicode="&#x41b;" horiz-adv-x="609" 
d="M539 0h-141.999v580h-129l-4 -103c-4.66699 -118 -12.334 -214 -23.001 -288c-8.66699 -62.667 -26.667 -108.334 -54 -137.001c-26.667 -28 -69 -46.333 -127 -55l-44 -7l-26 101l17 5c22.667 6 40 13.667 52 23c19.333 14.667 33 32.667 41 54
c8.66699 20.667 16 59.334 22 116.001c10 88 15.667 182.333 17 283l2 123h398v-695z" />
    <glyph glyph-name="afii10030" unicode="&#x41c;" horiz-adv-x="818" 
d="M768 0l-137.001 -0.000976562l-26 379c-2 24 -3.66699 62.667 -5 116c-6 -32.667 -14.667 -68.334 -26 -107.001l-110 -388h-119l-99 373c-12.667 47.333 -22 88.333 -28 123c-1.33301 -58.667 -3 -100.334 -5 -125.001l-24 -371h-139l65 695h179l91 -353
c8.66699 -33.333 14 -55 16 -65c0.666992 -3.33301 1.5 -8.16602 2.5 -14.499s1.83301 -11.166 2.5 -14.499c0 -1.33301 0.333008 -4 1 -8s1.33398 -6.66699 2.00098 -8c10.667 52.667 19 90.334 25 113.001l94 350h178z" />
    <glyph glyph-name="afii10031" unicode="&#x41d;" horiz-adv-x="623" 
d="M553 0h-142v310h-199v-310h-142v695h142v-270h199v270h142v-695z" />
    <glyph glyph-name="afii10032" unicode="&#x41e;" horiz-adv-x="682" 
d="M341 707c90.667 0 162.667 -30.667 216 -92c56.667 -64 85 -153.333 85 -268c0 -113.333 -28.333 -202.333 -85 -267c-53.333 -61.333 -125.333 -92 -216 -92s-162.667 30.667 -216 92c-56.667 64.667 -85 153.667 -85 267c0 114.667 28.333 204 85 268
c53.333 61.333 125.333 92 216 92zM341 600c-51.333 0 -89.333 -24.667 -114 -74c-19.333 -38.667 -29 -98.334 -29 -179.001c0 -80 9.66699 -139.333 29 -178c24.667 -49.333 62.667 -74 114 -74s89.333 24.667 114 74c19.333 38.667 29 98 29 178
c0 80.667 -9.66699 140.334 -29 179.001c-24.667 49.333 -62.667 74 -114 74z" />
    <glyph glyph-name="afii10033" unicode="&#x41f;" horiz-adv-x="611" 
d="M541 0h-140v580h-191v-580h-140v695h471v-695z" />
    <glyph glyph-name="afii10034" unicode="&#x420;" horiz-adv-x="568" 
d="M70 695l218 -0.000976562c66.667 0 120 -11.333 160 -34c66.667 -36.667 100 -96.667 100 -180c0 -16 -1.66699 -32.167 -5 -48.5s-8.83301 -34.166 -16.5 -53.499s-20 -37.833 -37 -55.5s-37.5 -32.5 -61.5 -44.5c-32.667 -15.333 -79 -23 -139 -23h-77v-256h-142v695z
M212 369.999l73 0.000976562c30 0 51 2.66699 63 8s22 14.666 30 27.999c11.333 19.333 17 43 17 71c0 32.667 -7.33301 57.667 -22 75c-16.667 20 -40.667 30 -72 30h-89v-212z" />
    <glyph glyph-name="afii10035" unicode="&#x421;" horiz-adv-x="562" 
d="M478 140l64.001 -87.001c-52.667 -43.333 -116.667 -65 -192 -65c-94.667 0 -170 32 -226 96c-56 63.333 -84 146 -84 248c0 84.667 15.667 156.334 47 215.001c26.667 49.333 63.667 88.333 111 117s98.666 43 153.999 43c70 0 128.333 -18.333 175 -55l-63 -94
c-32 26 -68 39 -108 39c-25.333 0 -48.5 -5.5 -69.5 -16.5s-37.833 -25.5 -50.5 -43.5c-26 -38 -39 -101.667 -39 -191c0 -80 9.66699 -137.667 29 -173c28 -51.333 72.667 -77 134 -77c44 0 83.333 14.667 118 44z" />
    <glyph glyph-name="afii10036" unicode="&#x422;" horiz-adv-x="491" 
d="M511 695l-23 -115h-166v-580h-142v580h-170v115h501z" />
    <glyph glyph-name="afii10037" unicode="&#x423;" horiz-adv-x="541" 
d="M143 695l96.001 -258.999c19.333 -52 34 -98.667 44 -140c11.333 48.667 28 105 50 169l81 230h147l-182 -489l-12 -32.5l-10.5 -29l-9 -24c-3.66699 -9.66699 -6.5 -16.834 -8.5 -21.501l-7.5 -17.5c-3 -7 -5.5 -12.333 -7.5 -16l-7 -12.5
c-2.66699 -4.66699 -5.33398 -8.66699 -8.00098 -12l-8 -10c-24.667 -26.667 -65.667 -45 -123 -55l-44 -7l-26 101l17 5c22 6 39.333 13.333 52 22c25.333 16.667 45.333 45 60 85l12 32l-68 -9l-191 490h153z" />
    <glyph glyph-name="afii10038" unicode="&#x424;" horiz-adv-x="786" 
d="M464 0h-141.996v102h-24c-84.667 0 -150.334 27 -197.001 81c-40.667 47.333 -61 109 -61 185c0 91.333 25.667 159.666 77 204.999c45.333 40 105.666 60 180.999 60h24v97h142v-97h24c75.333 0 135.666 -20 180.999 -60c51.333 -45.333 77 -113.666 77 -204.999
c0 -76 -20.333 -137.667 -61 -185c-46.667 -54 -112.334 -81 -197.001 -81h-24v-102zM329.004 538l-12.001 -0.00195312c-35.333 0 -63.666 -10 -84.999 -30c-26 -25.333 -39 -70 -39 -134v-11c0 -19.333 0.333008 -34.666 1 -45.999s4 -25.666 10 -42.999
s14.667 -32 26 -44c21.333 -22 50.333 -33 87 -33h12v341zM457.003 537.998l-0.000976562 -340.998h12c36.667 0 65.667 11 87 33c11.333 12 20 26.667 26 44s9.33301 31.666 10 42.999s1 26.666 1 45.999v11c0 64 -13 108.667 -39 134c-21.333 20 -49.666 30 -84.999 30
h-12z" />
    <glyph glyph-name="afii10039" unicode="&#x425;" horiz-adv-x="562" 
d="M577 0h-169l-125 245l-124 -245h-174l218 372l-188 323h171l94 -187l95 187h167l-181 -314z" />
    <glyph glyph-name="afii10040" unicode="&#x426;" horiz-adv-x="627" 
d="M212 695v-580h183v580h142v-581h72v-286h-135v172h-404v695h142z" />
    <glyph glyph-name="afii10041" unicode="&#x427;" horiz-adv-x="583" 
d="M513 0h-142v289c-44 -20.667 -92.667 -31 -146 -31c-59.333 0 -105 16 -137 48c-28.667 28.667 -43 68 -43 118v271h142v-218c0 -38.667 6 -66 18 -82c14.667 -20 38 -30 70 -30c27.333 0 59.333 7 96 21v309h142v-695z" />
    <glyph glyph-name="afii10042" unicode="&#x428;" horiz-adv-x="916" 
d="M210 695v-584h178v584h140v-584h178v584h140v-695h-776v695h140z" />
    <glyph glyph-name="afii10043" unicode="&#x429;" horiz-adv-x="936" 
d="M210 695v-584h178v584h140v-584h178v584h140v-581h72v-286h-135v172h-713v695h140z" />
    <glyph glyph-name="afii10044" unicode="&#x42a;" horiz-adv-x="696" 
d="M317 695v-258.999h91c78.667 0 138 -16.667 178 -50c46.667 -38.667 70 -94 70 -166c0 -80.667 -28.667 -140.334 -86 -179.001c-40.667 -27.333 -92.667 -41 -156 -41h-239v580h-170v115h312zM317 112.001l78.999 -0.000976562c36.667 0 64.334 11.667 83.001 35
c14.667 18.667 22 43.334 22 74.001c0 34.667 -9.33301 60.667 -28 78c-18 16.667 -43.667 25 -77 25h-79v-212z" />
    <glyph glyph-name="afii10045" unicode="&#x42b;" horiz-adv-x="856" 
d="M70 695l142 -0.000976562v-259h87c36 0 67.833 -3.16699 95.5 -9.5s54.167 -19.833 79.5 -40.5c46.667 -39.333 70 -94.666 70 -165.999c0 -80 -28.667 -139.667 -86 -179c-40 -27.333 -91 -41 -153 -41h-235v695zM644 694.999h142v-695h-142v695zM212 111.999
l75 0.00195312c36 0 63.667 11.333 83 34c14.667 17.333 22 42.666 22 75.999s-9.33301 58.666 -28 75.999c-19.333 17.333 -45 26 -77 26h-75v-212z" />
    <glyph glyph-name="afii10046" unicode="&#x42c;" horiz-adv-x="591" 
d="M70 695h142v-259h91c20 0 38.833 -1 56.5 -3s39 -7.33301 64 -16s46.167 -20.167 63.5 -34.5s32.333 -35.5 45 -63.5s19 -61 19 -99c0 -73.333 -22.667 -128.333 -68 -165s-103.333 -55 -174 -55h-239v695zM212 112h78.999c70 0 105 35.667 105 107c0 20 -3 37 -9 51
s-12.667 24.5 -20 31.5s-16.666 12.333 -27.999 16s-20 5.66699 -26 6s-13.333 0.5 -22 0.5h-79v-212z" />
    <glyph glyph-name="afii10047" unicode="&#x42d;" horiz-adv-x="565" 
d="M95 558l-63.001 94.002c52.667 36.667 115 55 187 55c96.667 0 172.667 -33 228 -99c52 -62 78 -148 78 -258c0 -114.667 -27.333 -203.334 -82 -266.001c-56 -64 -132 -96 -228 -96c-76.667 0 -142.667 21.667 -198 65l64 90c38.667 -30 80 -45 124 -45
c60.667 0 104.334 19.333 131.001 58c20.667 29.333 31 69.666 31 120.999v33h-202v112h199l-1 22c-2.66699 41.333 -13 74.333 -31 99c-26 36 -65.667 54 -119 54c-44 0 -83.333 -13 -118 -39z" />
    <glyph glyph-name="afii10048" unicode="&#x42e;" horiz-adv-x="941" 
d="M70 695l138.999 0.000976562v-270h112c8 79.333 32.667 143.333 74 192c50.667 60 121 90 211 90c87.333 0 157.666 -31 210.999 -93c56 -65.333 84 -154 84 -266c0 -110.667 -28 -199.334 -84 -266.001c-53.333 -62.667 -123.666 -94 -210.999 -94
c-99.333 0 -175.666 38.333 -228.999 115c-40 59.333 -60 128.333 -60 207h-108v-310h-139v695zM605.999 600.001c-51.333 0 -88.002 -24.667 -110.002 -74c-18 -40.667 -27 -100 -27 -178s9 -137.333 27 -178c22.667 -50 59.334 -75 110.001 -75s87.334 25 110.001 75
c18 40.667 27 100 27 178s-9 137.333 -27 178c-22 49.333 -58.667 74 -110 74z" />
    <glyph glyph-name="afii10049" unicode="&#x42f;" horiz-adv-x="614" 
d="M544 695l0.000976562 -695h-142v283h-59c-26.667 0 -49 -8.33301 -67 -25c-16 -14.667 -27 -35.334 -33 -62.001l-16 -71c-9.33301 -42.667 -20.333 -71.334 -33 -86.001c-18.667 -23.333 -46.667 -36.666 -84 -39.999l-79 -9l-26 97l21 6
c15.333 4 28.666 9.33301 39.999 16c14 8 25 25 33 51l23 79c9.33301 30.667 22.666 54.334 39.999 71.001c14.667 14 33.334 24.667 56.001 32c-42.667 6.66699 -76.667 24.334 -102 53.001c-26.667 29.333 -40 68.666 -40 117.999c0 57.333 22 103.333 66 138
c36.667 29.333 91 44 163 44h239zM402.001 583l-77 0.000976562c-28 0 -49 -4 -63 -12c-26 -15.333 -39 -41 -39 -77c0 -30.667 7 -54.334 21 -71.001c15.333 -18.667 39 -28 71 -28h87v188z" />
    <glyph glyph-name="afii10065" unicode="&#x430;" horiz-adv-x="512" 
d="M488 56l-71.0039 -81.9971c-32.667 14 -56.667 34.667 -72 62c-15.333 -14 -25.666 -23 -30.999 -27c-25.333 -18.667 -59.666 -28 -102.999 -28c-55.333 0 -98 13.333 -128 40c-32 29.333 -48 69.333 -48 120c0 72 29.667 121.667 89 149
c38.667 18 90.334 27 155.001 27c14.667 0 25.334 -0.333008 32.001 -1v21c0 30 -4 50.333 -12 61s-23.667 16 -47 16c-46.667 0 -96.334 -19.667 -149.001 -59l-57 96c22.667 14.667 50 28.667 82 42c50.667 20.667 96.334 31 137.001 31c90 0 146.333 -30 169 -90
c6 -16.667 9 -44.334 9 -83.001v-9l-3 -172c0 -2.66699 -0.166992 -6.33398 -0.5 -11.001s-0.5 -8.33398 -0.5 -11.001c0 -38 16.333 -68.667 49 -92zM308.996 224.003h-6c-51.333 0 -85.333 -6.33301 -102 -19c-15.333 -12 -23 -30.667 -23 -56
c0 -21.333 5.5 -38.333 16.5 -51s25.167 -19 42.5 -19c26.667 0 50 11.667 70 35z" />
    <glyph glyph-name="afii10066" unicode="&#x431;" horiz-adv-x="541" 
d="M149 425l4.00391 0.00195312c13.333 22.667 29.666 40.667 48.999 54c30 22 67 33 111 33c52 0 96.667 -22 134 -66c39.333 -46.667 59 -110 59 -190c0 -82 -20.667 -147 -62 -195c-42.667 -48.667 -99.334 -73 -170.001 -73c-71.333 0 -128.333 24 -171 72
c-18.667 21.333 -33 47.166 -43 77.499s-15.833 56.666 -17.5 78.999s-2.5 51.5 -2.5 87.5c0 92 8.66699 164.667 26 218c14 43.333 34.667 77.166 62 101.499s65.666 46.833 114.999 67.5l87 36c56 24 92 40 108 48l45 -105c-27.333 -16.667 -65.333 -33.667 -114 -51
c-79.333 -27.333 -126 -44.666 -140 -51.999c-34.667 -18 -57.334 -40.667 -68.001 -68c-8 -19.333 -12 -44 -12 -74zM273.004 414.002c-24.667 0 -43.998 -9 -57.998 -27c-18 -24 -27 -69.333 -27 -136c0 -67.333 9 -113 27 -137c13.333 -18.667 32.666 -28 57.999 -28
s44.666 9.33301 57.999 28c18 24 27 69.667 27 137c0 66.667 -9 112 -27 136c-14 18 -33.333 27 -58 27z" />
    <glyph glyph-name="afii10067" unicode="&#x432;" horiz-adv-x="529" 
d="M70 512l237 -0.000976562c45.333 0 79.666 -8 102.999 -24c34.667 -24.667 52 -60.667 52 -108c0 -29.333 -9.66699 -54.666 -29 -75.999c-13.333 -14.667 -30 -25.667 -50 -33c24.667 -4 46.667 -15 66 -33c23.333 -22 35 -52 35 -90c0 -45.333 -14 -81 -42 -107
c-29.333 -27.333 -72.666 -41 -129.999 -41h-242v512zM198 224.999v-140h53c36 0 60.667 6 74 18c12.667 11.333 19 29 19 53c0 24.667 -7.33301 43 -22 55c-12 9.33301 -30 14 -54 14h-70zM198 426.999l0.000976562 -120h60c27.333 0 46.666 6 57.999 18
c9.33301 10.667 14 25.667 14 45c0 20.667 -6 35.667 -18 45c-10 8 -25.667 12 -47 12h-67z" />
    <glyph glyph-name="afii10068" unicode="&#x433;" horiz-adv-x="403" 
d="M202 0h-132v512h338l-14 -94h-192v-418z" />
    <glyph glyph-name="afii10069" unicode="&#x434;" horiz-adv-x="533" 
d="M518 94v-234h-125v140h-273v-140h-125v234h41c28.667 52.667 49 103.667 61 153c16 63.333 25.333 131 28 203l2 62h327v-418h64zM322 418l-97.001 -0.000976562l-5 -70c-3.33301 -43.333 -9.66602 -84.666 -18.999 -123.999c-12 -52 -28.667 -95.333 -50 -130h171v324z
" />
    <glyph glyph-name="afii10070" unicode="&#x435;" horiz-adv-x="506" 
d="M481 214h-296.001v-11c0 -38 11 -67.333 33 -88c18.667 -18 44.334 -27 77.001 -27c44 0 86.667 17 128 51l52 -80c-56.667 -47.333 -121 -71 -193 -71c-71.333 0 -129 22.667 -173 68c-46 48.667 -69 115.667 -69 201c0 83.333 21.333 149 64 197
c42 46.667 95.667 70 161 70c62 0 111.333 -18.333 148 -55c45.333 -46 68 -120.667 68 -224v-31zM341.999 312v6c0 38 -6.33301 65.333 -19 82c-14 17.333 -32.667 26 -56 26c-24 0 -42.667 -8.33301 -56 -25c-16 -19.333 -24 -48.333 -24 -87v-2h155z" />
    <glyph glyph-name="afii10072" unicode="&#x436;" horiz-adv-x="760" 
d="M316 500l128.002 25v-208h20c23.333 0 40.666 5 51.999 15c8.66699 8 15.667 23.667 21 47l11 50c6.66699 29.333 17 50.333 31 63c16 14 42.333 22.667 79 26l48 4l24 -91l-22 -5c-12.667 -3.33301 -21.334 -6.66602 -26.001 -9.99902
c-8.66699 -6.66699 -15.667 -18 -21 -34l-17 -46c-12.667 -37.333 -35.667 -58.666 -69 -63.999c15.333 -4 28.166 -10.5 38.499 -19.5s17.333 -17 21 -24s7.83398 -16.833 12.501 -29.5l25 -63c8 -19.333 16.333 -32 25 -38c8 -6 18 -10 30 -12l18 -4l-24 -92l-44 3
c-51.333 3.33301 -85.333 14.333 -102 33c-13.333 15.333 -23 36.666 -29 63.999l-17 71c-5.33301 23.333 -13.666 39.666 -24.999 48.999c-10.667 8.66699 -27 13 -49 13h-11v-223h-128v223h-11c-22 0 -38.333 -4.33301 -49 -13
c-11.333 -9.33301 -19.666 -25.666 -24.999 -48.999l-17 -71c-6 -27.333 -15.667 -48.666 -29 -63.999c-16.667 -18.667 -50.667 -29.667 -102 -33l-44 -3l-24 92l18 4c12 2 22 6 30 12c8.66699 6 17 18.667 25 38l25 63c4.66699 12.667 8.83398 22.5 12.501 29.5
s10.667 15 21 24s23.166 15.5 38.499 19.5c-33.333 5.33301 -56.333 26.666 -69 63.999l-17 46c-5.33301 16 -12.333 27.333 -21 34c-4.66699 3.33301 -13.334 6.66602 -26.001 9.99902l-22 5l24 91l48 -4c36.667 -3.33301 63 -12 79 -26c14 -12.667 24.333 -33.667 31 -63
l11 -50c5.33301 -23.333 12.333 -39 21 -47c11.333 -10 28.666 -15 51.999 -15h20v183z" />
    <glyph glyph-name="afii10073" unicode="&#x437;" horiz-adv-x="450" 
d="M143 314l52 0.000976562c22.667 0 39.334 6.33301 50.001 19c8 9.33301 12 22 12 38c0 18.667 -5.66699 32.334 -17 41.001c-12 9.33301 -28.333 14 -49 14c-26 0 -49 -5 -69 -15c-12.667 -6 -26 -15 -40 -27l-54 78c16 14.667 37.333 28 64 40
c35.333 14.667 73.666 22 114.999 22c54.667 0 99 -11.667 133 -35c37.333 -26 56 -63.333 56 -112c0 -24.667 -5 -45.334 -15 -62.001c-13.333 -22.667 -32 -38.334 -56 -47.001c28 -8 49 -22 63 -42c14.667 -20 22 -45.333 22 -76c0 -53.333 -23 -95 -69 -125
c-37.333 -24.667 -86.666 -37 -147.999 -37c-53.333 0 -97 11 -131 33c-12.667 7.33301 -28.334 19.666 -47.001 36.999l60 80c12.667 -13.333 27.667 -25 45 -35c20.667 -11.333 42 -17 64 -17c28.667 0 49 5.33301 61 16c14 11.333 21 29 21 53
c0 26.667 -8.66699 45.334 -26 56.001c-12 7.33301 -31.667 11 -59 11h-38v92z" />
    <glyph glyph-name="afii10074" unicode="&#x438;" horiz-adv-x="564" 
d="M207 0l-137 -0.000976562v500l132 25v-236c0 -36.667 -2 -75.667 -6 -117c29.333 68.667 48.333 111.334 57 128.001l104 200l137 25v-525h-132v186c0 51.333 2 100.333 6 147c-14 -42.667 -31 -83 -51 -121z" />
    <glyph glyph-name="afii10075" unicode="&#x439;" horiz-adv-x="564" 
d="M207 0l-137 -0.000976562v500l132 25v-236c0 -36.667 -2 -75.667 -6 -117c29.333 68.667 48.333 111.334 57 128.001l104 200l137 25v-525h-132v186c0 51.333 2 100.333 6 147c-14 -42.667 -31 -83 -51 -121zM379 741.999l71 -29c-10 -38 -28.667 -67.333 -56 -88
c-28.667 -22 -66 -33 -112 -33c-46.667 0 -84 11 -112 33c-25.333 20 -44 49.333 -56 88l71 29c8.66699 -14.667 20.667 -26.667 36 -36s35.666 -14 60.999 -14c26.667 0 47.334 4.66699 62.001 14c15.333 8.66699 27 20.667 35 36z" />
    <glyph glyph-name="afii10076" unicode="&#x43a;" horiz-adv-x="541" 
d="M70 500l132.001 25v-208h33c23.333 0 40.666 5 51.999 15c8.66699 8 15.667 23.667 21 47l11 50c6.66699 29.333 17 50.333 31 63c16 14 42.333 22.667 79 26l48 4l24 -91l-22 -5c-12.667 -3.33301 -21.334 -6.66602 -26.001 -9.99902
c-8.66699 -6.66699 -15.667 -18 -21 -34l-17 -46c-12.667 -37.333 -35.667 -58.666 -69 -63.999c15.333 -4 28.166 -10.5 38.499 -19.5s17.333 -17 21 -24s7.83398 -16.833 12.501 -29.5l25 -63c8 -19.333 16.333 -32 25 -38c8 -6 18 -10 30 -12l18 -4l-24 -92l-44 3
c-51.333 3.33301 -85.333 14.333 -102 33c-13.333 15.333 -23 36.666 -29 63.999l-17 71c-5.33301 23.333 -13.666 39.666 -24.999 48.999c-10.667 8.66699 -27 13 -49 13h-24v-223h-132v500z" />
    <glyph glyph-name="afii10077" unicode="&#x43b;" horiz-adv-x="522" 
d="M320 0l0.000976562 418h-91l-2 -43c-3.33301 -64 -5.33301 -103 -6 -117c-6 -74 -12.333 -124.667 -19 -152c-9.33301 -36 -23.333 -62 -42 -78c-21.333 -18.667 -52.333 -29.667 -93 -33l-50 -5l-24 92l25 7c23.333 6 40.666 17.667 51.999 35c8 12.667 14.667 33 20 61
c6 30 11 74.667 15 134c2.66699 38 4.66699 81 6 129l2 64h339v-512h-132z" />
    <glyph glyph-name="afii10078" unicode="&#x43c;" horiz-adv-x="696" 
d="M653 0l-119 -0.000976562l-21 266c-2 28 -3 56.667 -3 86c-8 -36 -15.333 -62.333 -22 -79l-94 -273h-102l-84 261c-10 30 -18 60.333 -24 91c0 -32 -1 -63 -3 -93l-19 -259h-119l53 512h156l74 -253c11.333 -37.333 18.333 -64.333 21 -81
c4.66699 24.667 11.667 52.334 21 83.001l76 251h156z" />
    <glyph glyph-name="afii10079" unicode="&#x43d;" horiz-adv-x="542" 
d="M202 0h-132v500l132 25v-208h138v183l132 25v-525h-132v223h-138v-223z" />
    <glyph glyph-name="afii10080" unicode="&#x43e;" horiz-adv-x="536" 
d="M268 524c70 0 126.667 -24.333 170 -73c42 -47.333 63 -112.333 63 -195s-21 -147.667 -63 -195c-43.333 -48.667 -100 -73 -170 -73s-126.667 24.333 -170 73c-42 47.333 -63 112.333 -63 195s21 147.667 63 195c43.333 48.667 100 73 170 73zM268 426
c-25.333 0 -44.666 -9.33301 -57.999 -28c-18 -24 -27 -71.333 -27 -142s9 -118 27 -142c13.333 -18.667 32.666 -28 57.999 -28s44.666 9.33301 57.999 28c18 24 27 71.333 27 142s-9 118 -27 142c-13.333 18.667 -32.666 28 -57.999 28z" />
    <glyph glyph-name="afii10081" unicode="&#x43f;" horiz-adv-x="534" 
d="M202 0h-132v512h394v-512h-132v418h-130v-418z" />
    <glyph glyph-name="afii10082" unicode="&#x440;" horiz-adv-x="555" 
d="M62 501l122 20.999c2.66699 -6.66699 5.66699 -22.667 9 -48c30 33.333 72 50 126 50c34.667 0 68.334 -10.667 101.001 -32c63.333 -42.667 95 -120 95 -232c0 -94 -23.667 -165 -71 -213c-39.333 -39.333 -85 -59 -137 -59c-40.667 0 -76.334 9.33301 -107.001 28
c1.33301 -13.333 2 -23.666 2 -30.999v-171l-132 -35v593c0 63.333 -2.66699 106.333 -8 129zM202 373.999l-0.000976562 -249c25.333 -20 51 -30 77 -30c34 0 58.333 14.667 73 44c11.333 24 17 63.333 17 118c0 54 -4.33301 91.667 -13 113
c-10.667 28.667 -31.667 43 -63 43c-33.333 0 -63.666 -13 -90.999 -39z" />
    <glyph glyph-name="afii10083" unicode="&#x441;" horiz-adv-x="455" 
d="M374 139l61.002 -81c-16.667 -17.333 -32.334 -30 -47.001 -38c-36.667 -21.333 -78.334 -32 -125.001 -32c-66 0 -118.667 21 -158 63c-43.333 46.667 -65 113.667 -65 201c0 38 4.16699 72.333 12.5 103s19.333 55 33 73s24.834 31.333 33.501 40
s17.334 15.667 26.001 21c35.333 23.333 78.666 35 129.999 35c35.333 0 67.333 -7.66699 96 -23c21.333 -11.333 38 -23.333 50 -36l-65 -88c-28.667 26.667 -56.667 40 -84 40c-30 0 -52.333 -16 -67 -48c-11.333 -24 -17 -66.333 -17 -127
c0 -59.333 8.66699 -100.333 26 -123c15.333 -19.333 35.333 -29 60 -29c15.333 0 31.666 4 48.999 12c10 4.66699 24.333 14.667 43 30z" />
    <glyph glyph-name="afii10084" unicode="&#x442;" horiz-adv-x="391" 
d="M272 0h-132v418h-130v94h401l-18 -94h-121v-418z" />
    <glyph glyph-name="afii10085" unicode="&#x443;" horiz-adv-x="497" 
d="M361 512l140.999 -0.00195312l-186 -520c-31.333 -88 -64 -144.333 -98 -169c-32 -24.667 -73.333 -40.334 -124 -47.001l-46 88c34.667 8 62.334 19.667 83.001 35c16.667 12.667 29 25.334 37 38.001c9.33301 14.667 19.333 35.667 30 63h-34l-18 55l-14 40
c-2.66699 7.33301 -8 23.666 -16 48.999l-121 360l137 16l89 -299l27 -105c0.666992 2.66699 2.16699 10.334 4.5 23.001l6.5 35c2 10.667 3.66699 18.334 5 23.001c9.33301 34.667 16 58.334 20 71.001z" />
    <glyph glyph-name="afii10086" unicode="&#x444;" horiz-adv-x="752" 
d="M442 16l-0.00195312 -218h-132v218c-25.333 -18.667 -52.333 -28 -81 -28c-54 0 -98.667 21 -134 63c-40 48 -60 117.333 -60 208c0 91.333 20.333 161 61 209c32 37.333 71.667 56 119 56c34.667 0 66.334 -11 95.001 -33v218l132 32v-250
c28.667 22 60.334 33 95.001 33c47.333 0 87 -18.667 119 -56c40.667 -48 61 -117.667 61 -209c0 -90.667 -20 -160 -60 -208c-35.333 -42 -80 -63 -134 -63c-28.667 0 -55.667 9.33301 -81 28zM309.998 121l-0.000976562 268c-20.667 18.667 -42 28 -64 28
c-21.333 0 -38 -9.33301 -50 -28c-14 -22.667 -21 -64 -21 -124c0 -68 6.33301 -113.333 19 -136s32.334 -34 59.001 -34c19.333 0 38.333 8.66699 57 26zM441.997 389l-0.000976562 -268c18.667 -17.333 37.667 -26 57 -26c26.667 0 46.334 11.333 59.001 34s19 68 19 136
c0 60 -7 101.333 -21 124c-12 18.667 -28.667 28 -50 28c-22 0 -43.333 -9.33301 -64 -28z" />
    <glyph glyph-name="afii10087" unicode="&#x445;" horiz-adv-x="500" 
d="M515 0h-169.999l-54 94c-3.33301 6 -10.5 19.667 -21.5 41s-17.167 33 -18.5 35c-8 -23.333 -25 -56.333 -51 -99l-43 -71h-172l189 273l-142 215l139 39c30 -50 53 -91.667 69 -125c5.33301 -10.667 10.666 -22 15.999 -34c7.33301 20 22.333 53.333 45 100
c8.66699 18 16.667 32.667 24 44h158l-152 -236z" />
    <glyph glyph-name="afii10088" unicode="&#x446;" horiz-adv-x="549" 
d="M328 500l132 25v-431h64v-234h-125v140h-329v500l132 25v-431h126v406z" />
    <glyph glyph-name="afii10089" unicode="&#x447;" horiz-adv-x="487" 
d="M285 500l131.999 25v-525h-132v198c-34.667 -13.333 -68 -20 -100 -20c-55.333 0 -95.666 15.333 -120.999 46c-19.333 22.667 -29 56 -29 100v176l132 25v-188c0 -23.333 5.33301 -40.333 16 -51c9.33301 -9.33301 23 -14 41 -14c20.667 0 41 5 61 15v213z" />
    <glyph glyph-name="afii10090" unicode="&#x448;" horiz-adv-x="772" 
d="M321 500l130 25v-435h121v410l130 25v-525h-632v500l130 25v-435h121v410z" />
    <glyph glyph-name="afii10091" unicode="&#x449;" horiz-adv-x="791" 
d="M321 500l130 25v-435h121v410l130 25v-431h64v-234h-125v140h-571v500l130 25v-435h121v410z" />
    <glyph glyph-name="afii10092" unicode="&#x44a;" 
d="M263 331l84.999 0.00195312c54.667 0 98.334 -13.667 131.001 -41c34 -28.667 51 -72.334 51 -131.001c0 -52.667 -17.333 -93.334 -52 -122.001c-29.333 -24.667 -69.333 -37 -120 -37h-227v418h-121l-10 94h263v-181zM262.999 239.002l-0.00195312 -147.001h53
c22.667 0 40.334 5.33301 53.001 16c14 12.667 21 31.334 21 56.001c0 26 -6.66699 45 -20 57s-32.666 18 -57.999 18h-49z" />
    <glyph glyph-name="afii10093" unicode="&#x44b;" horiz-adv-x="745" 
d="M70 500l131.999 25.002v-194h75c54.667 0 98.334 -13.667 131.001 -41c34 -28.667 51 -72.334 51 -131.001c0 -52.667 -17.333 -93.334 -52 -122.001c-29.333 -24.667 -69.333 -37 -120 -37h-217v500zM542.999 500.002l132 25v-525h-132v500zM201.999 239.002
l-0.00195312 -147.001h49c22.667 0 40.334 5.33301 53.001 16c14 12.667 21 31.334 21 56.001c0 26 -6.66699 45 -20 57s-32.666 18 -57.999 18h-45z" />
    <glyph glyph-name="afii10094" unicode="&#x44c;" horiz-adv-x="499" 
d="M70 500l131.999 25.002v-194h85c54.667 0 98.334 -13.667 131.001 -41c34 -28.667 51 -72.334 51 -131.001c0 -52.667 -17.333 -93.334 -52 -122.001c-29.333 -24.667 -69.333 -37 -120 -37h-227v500zM201.999 239.002l-0.00195312 -147.001h53
c22.667 0 40.334 5.33301 53.001 16c14 12.667 21 31.334 21 56.001c0 26 -6.66699 45 -20 57s-32.666 18 -57.999 18h-49z" />
    <glyph glyph-name="afii10095" unicode="&#x44d;" horiz-adv-x="474" 
d="M163 223l0.000976562 93.998h128v13c0 34 -7.66699 59 -23 75c-14 16 -35 24 -63 24c-22.667 0 -44 -5 -64 -15c-14 -6.66699 -26 -15 -36 -25l-61 79c19.333 16.667 40 29.667 62 39c31.333 13.333 68 20 110 20c70 0 123.333 -21.667 160 -65
c21.333 -24.667 37.166 -56.167 47.499 -94.5s15.5 -75.833 15.5 -112.5c0 -107.333 -32.667 -183.666 -98 -228.999c-37.333 -25.333 -83.666 -38 -138.999 -38c-46.667 0 -87.667 10.667 -123 32c-14.667 8.66699 -31 21.334 -49 38.001l61 77
c6.66699 -8 17 -16.667 31 -26c23.333 -15.333 49.666 -23 78.999 -23c32.667 0 56.667 9.66699 72 29c12 14.667 18 41.667 18 81v27h-128z" />
    <glyph glyph-name="afii10096" unicode="&#x44e;" horiz-adv-x="760" 
d="M202 525v-208h79c7.33301 54 23 96.333 47 127c15.333 20 37.5 38 66.5 54s63.5 24 103.5 24c69.333 0 124.666 -23.667 165.999 -71c40.667 -46 61 -111 61 -195c0 -82.667 -20.333 -147.334 -61 -194.001c-43.333 -48 -98.666 -72 -165.999 -72c-76 0 -133 26 -171 78
c-28 36.667 -44.333 88.334 -49 155.001h-76v-223h-132v500zM497 424c-23.333 0 -41.666 -9.33301 -54.999 -28c-16.667 -23.333 -25 -70 -25 -140s8.33301 -116.667 25 -140c13.333 -18.667 31.666 -28 54.999 -28s41.666 9.33301 54.999 28c16.667 23.333 25 70 25 140
s-8.33301 116.667 -25 140c-13.333 18.667 -31.666 28 -54.999 28z" />
    <glyph glyph-name="afii10097" unicode="&#x44f;" horiz-adv-x="501" 
d="M456 512l-0.000976562 -511.999h-132v195h-31c-20.667 0 -37 -5 -49 -15c-11.333 -10 -19.666 -25.667 -24.999 -47l-10 -43c-6.66699 -28.667 -16.334 -50 -29.001 -64c-16.667 -18.667 -50.667 -29.667 -102 -33l-44 -3l-24 92l18 4c12 2 22 6 30 12
c8.66699 6 17 18.667 25 38l15 37c8 18.667 17 32.667 27 42c12.667 11.333 27.334 19.333 44.001 24c-31.333 3.33301 -57 16.333 -77 39s-30 52 -30 88c0 49.333 17.333 86.666 52 111.999c30 22.667 73 34 129 34h213zM323.999 418.001l-48.999 0.000976562
c-26.667 0 -46 -5.66699 -58 -17s-18 -26.333 -18 -45c0 -26.667 4.66699 -45.334 14 -56.001c11.333 -13.333 30.666 -20 57.999 -20h53v138z" />
    <glyph glyph-name="afii10071" unicode="&#x451;" horiz-adv-x="506" 
d="M481 214h-296.001v-11c0 -38 11 -67.333 33 -88c18.667 -18 44.334 -27 77.001 -27c44 0 86.667 17 128 51l52 -80c-56.667 -47.333 -121 -71 -193 -71c-71.333 0 -129 22.667 -173 68c-46 48.667 -69 115.667 -69 201c0 83.333 21.333 149 64 197
c42 46.667 95.667 70 161 70c62 0 111.333 -18.333 148 -55c45.333 -46 68 -120.667 68 -224v-31zM444.999 635c0 -20.667 -7.66699 -38.667 -23 -54s-33.333 -23 -54 -23s-38.5 7.66699 -53.5 23s-22.5 33.333 -22.5 54s7.66699 38.667 23 54s33.666 23 54.999 23
c20.667 0 38.334 -7.5 53.001 -22.5s22 -33.167 22 -54.5zM233.999 635c0 -20.667 -7.66895 -38.667 -23.002 -54s-33.333 -23 -54 -23c-20 0 -37.667 7.66699 -53 23s-23 33.333 -23 54s7.83301 38.667 23.5 54s33.834 23 54.501 23s38.334 -7.66699 53.001 -23
s22 -33.333 22 -54zM341.997 312v6c0 38 -6.33301 65.333 -19 82c-14 17.333 -32.667 26 -56 26c-24 0 -42.667 -8.33301 -56 -25c-16 -19.333 -24 -48.333 -24 -87v-2h155z" />
    <glyph glyph-name="afii10099" unicode="&#x452;" horiz-adv-x="558" 
d="M71 718l132 32.002v-117h195l-23 -68h-172v-66l-2 -43c42 36.667 90.333 55 145 55c98 0 147 -52 147 -156v-301c0 -90.667 -21 -159.334 -63 -206.001c-24 -27.333 -56.667 -50 -98 -68l-56 74c20.667 19.333 37 37.666 49 54.999c24 34 36 81 36 141v279
c0 25.333 -3.83301 43.333 -11.5 54s-20.5 16 -38.5 16c-37.333 0 -73.333 -15.667 -108 -47v-352h-132v565h-51v68h51v85z" />
    <glyph glyph-name="afii10100" unicode="&#x453;" horiz-adv-x="403" 
d="M202 0h-132v512h338l-14 -94h-192v-418zM377 658l-224 -100l-41 74l207 130z" />
    <glyph glyph-name="afii10101" unicode="&#x454;" horiz-adv-x="469" 
d="M311 223l-127.999 0.00195312v-27c0 -39.333 6 -66.333 18 -81c15.333 -19.333 39.333 -29 72 -29c29.333 0 55.666 7.66699 78.999 23c14 9.33301 24.333 18 31 26l61 -77c-18 -16.667 -34.333 -29.334 -49 -38.001c-35.333 -21.333 -76.333 -32 -123 -32
c-55.333 0 -101.666 12.667 -138.999 38c-65.333 45.333 -98 121.666 -98 228.999c0 36.667 5.16699 74.167 15.5 112.5s26.166 69.833 47.499 94.5c36.667 43.333 90 65 160 65c42 0 78.667 -6.66699 110 -20c22 -9.33301 42.667 -22.333 62 -39l-61 -79
c-10 10 -22 18.333 -36 25c-20 10 -41.333 15 -64 15c-28 0 -49 -8 -63 -24c-15.333 -16 -23 -41 -23 -75v-13h128v-94z" />
    <glyph glyph-name="afii10102" unicode="&#x455;" horiz-adv-x="477" 
d="M25 47l47.999 96.001c25.333 -15.333 54.166 -28.666 86.499 -39.999s59.5 -17 81.5 -17s39.333 6.66699 52 20c10 10 15 22.333 15 37c0 15.333 -4.66699 27.666 -14 36.999c-11.333 11.333 -32.666 20 -63.999 26l-59 11c-41.333 7.33301 -72.333 24.333 -93 51
c-19.333 25.333 -29 55.666 -29 90.999c0 55.333 22.667 98.666 68 129.999c34.667 23.333 76.334 35 125.001 35c57.333 0 113.666 -13.333 168.999 -40l15 -7l-44 -89c-45.333 24 -86.666 36 -123.999 36c-20 0 -36 -4.66699 -48 -14c-11.333 -9.33301 -17 -21 -17 -35
c0 -11.333 4.33301 -21.333 13 -30c10 -9.33301 27 -16.666 51 -21.999l61 -15c46 -10.667 79.667 -30 101 -58c18.667 -24.667 28 -53.334 28 -86.001c0 -51.333 -18.667 -92.666 -56 -123.999c-41.333 -34.667 -95 -52 -161 -52c-64 0 -132.333 19.667 -205 59z" />
    <glyph glyph-name="afii10103" unicode="&#x456;" horiz-adv-x="274" 
d="M203 0h-132v503l132 21v-524zM220 653c0 -23.333 -8 -43 -24 -59s-35.667 -24 -59 -24c-22.667 0 -42 8 -58 24s-24 35.667 -24 59c0 22.667 8.16699 42.167 24.5 58.5s36.166 24.5 59.499 24.5c22.667 0 41.834 -8 57.501 -24s23.5 -35.667 23.5 -59z" />
    <glyph glyph-name="afii10104" unicode="&#x457;" horiz-adv-x="274" 
d="M204 0h-134v503l134 21v-524zM319 635c0 -20.667 -7.66699 -38.667 -23 -54s-33.333 -23 -54 -23s-38.5 7.66699 -53.5 23s-22.5 33.333 -22.5 54s7.66699 38.667 23 54s33.666 23 54.999 23c20.667 0 38.334 -7.5 53.001 -22.5s22 -33.167 22 -54.5zM108 635
c0 -20.667 -7.66895 -38.667 -23.002 -54s-33.333 -23 -54 -23c-20 0 -37.667 7.66699 -53 23s-23 33.333 -23 54s7.83301 38.667 23.5 54s33.834 23 54.501 23s38.334 -7.66699 53.001 -23s22 -33.333 22 -54z" />
    <glyph glyph-name="afii10105" unicode="&#x458;" horiz-adv-x="273" 
d="M202 523v-509c0 -72.667 -12.333 -125.667 -37 -159c-24 -32 -58.667 -57 -104 -75l-56 74c20 16.667 36.333 36 49 58c10.667 19.333 16 52 16 98v481zM221 655c0 -23.333 -8.16797 -43.166 -24.501 -59.499s-36.166 -24.5 -59.499 -24.5s-42.833 7.83301 -58.5 23.5
s-23.5 35.167 -23.5 58.5s8.16699 43.166 24.5 59.499s35.833 24.5 58.5 24.5c23.333 0 43 -8 59 -24s24 -35.333 24 -58z" />
    <glyph glyph-name="afii10106" unicode="&#x459;" horiz-adv-x="734" 
d="M447 331l75 0.00195312c54.667 0 98.334 -13.667 131.001 -41c34 -28.667 51 -72.334 51 -131.001c0 -52.667 -17.333 -93.334 -52 -122.001c-29.333 -24.667 -69.333 -37 -120 -37h-217v416h-86l-2 -41c-2 -48.667 -4 -87.667 -6 -117c-6 -74 -12.333 -124.667 -19 -152
c-9.33301 -36 -23.333 -62 -42 -78c-21.333 -18.667 -52.333 -29.667 -93 -33l-50 -5l-24 92l25 7c23.333 6 40.666 17.667 51.999 35c8 12.667 14.667 33 20 61c6 30 11 74.667 15 134c2.66699 38 4.66699 81 6 129l2 64h334v-181zM447 239.002l-0.00195312 -147.001h49
c22.667 0 40.334 5.33301 53.001 16c14 12.667 21 31.334 21 56.001c0 26 -6.66699 45 -20 57s-32.666 18 -57.999 18h-45z" />
    <glyph glyph-name="afii10107" unicode="&#x45a;" horiz-adv-x="752" 
d="M465 323l75 0.000976562c55.333 0 99 -13 131 -39c34 -27.333 51 -69 51 -125c0 -52.667 -17.333 -93.334 -52 -122.001c-29.333 -24.667 -69.333 -37 -120 -37h-217v231h-131v-231h-132v500l132 25v-200h131v175l132 25v-202zM465 231.001l-0.000976562 -139h49
c22.667 0 40.334 5.33301 53.001 16c14 12 21 29.667 21 53c0 25.333 -6.66699 43.333 -20 54c-12 10.667 -31.333 16 -58 16h-45z" />
    <glyph glyph-name="afii10108" unicode="&#x45b;" horiz-adv-x="558" 
d="M493 0h-132v329c0 26.667 -4.66699 45.667 -14 57c-7.33301 8.66699 -19.333 13 -36 13c-37.333 0 -73.333 -15.667 -108 -47v-352h-132v565h-51v68h51v85l132 32v-117h195l-23 -68h-172v-66l-2 -43c42 36.667 90.333 55 145 55c46 0 82 -12 108 -36s39 -64 39 -120v-355
z" />
    <glyph glyph-name="afii10109" unicode="&#x45c;" horiz-adv-x="541" 
d="M70 500l132.001 25v-208h33c23.333 0 40.666 5 51.999 15c8.66699 8 15.667 23.667 21 47l11 50c6.66699 29.333 17 50.333 31 63c16 14 42.333 22.667 79 26l48 4l24 -91l-22 -5c-12.667 -3.33301 -21.334 -6.66602 -26.001 -9.99902
c-8.66699 -6.66699 -15.667 -18 -21 -34l-17 -46c-12.667 -37.333 -35.667 -58.666 -69 -63.999c15.333 -4 28.166 -10.5 38.499 -19.5s17.333 -17 21 -24s7.83398 -16.833 12.501 -29.5l25 -63c8 -19.333 16.333 -32 25 -38c8 -6 18 -10 30 -12l18 -4l-24 -92l-44 3
c-51.333 3.33301 -85.333 14.333 -102 33c-13.333 15.333 -23 36.666 -29 63.999l-17 71c-5.33301 23.333 -13.666 39.666 -24.999 48.999c-10.667 8.66699 -27 13 -49 13h-24v-223h-132v500zM403.001 657l-224 -100l-41 74l207 130z" />
    <glyph glyph-name="afii10110" unicode="&#x45e;" horiz-adv-x="497" 
d="M361 512l140.999 -0.00195312l-186 -520c-31.333 -88 -64 -144.333 -98 -169c-32 -24.667 -73.333 -40.334 -124 -47.001l-46 88c34.667 8 62.334 19.667 83.001 35c16.667 12.667 29 25.334 37 38.001c9.33301 14.667 19.333 35.667 30 63h-34l-18 55l-14 40
c-2.66699 7.33301 -8 23.666 -16 48.999l-121 360l137 16l89 -299l27 -105c0.666992 2.66699 2.16699 10.334 4.5 23.001l6.5 35c2 10.667 3.66699 18.334 5 23.001c9.33301 34.667 16 58.334 20 71.001zM325.999 744.998l71 -29c-10 -38 -28.667 -67.333 -56 -88
c-28.667 -22 -66 -33 -112 -33c-46.667 0 -84 11 -112 33c-25.333 20 -44 49.333 -56 88l71 29c8.66699 -14.667 20.667 -26.667 36 -36s35.666 -14 60.999 -14c26.667 0 47.334 4.66699 62.001 14c15.333 8.66699 27 20.667 35 36z" />
    <glyph glyph-name="afii10193" unicode="&#x45f;" horiz-adv-x="530" 
d="M328 500l132 25v-525h-133v-140h-124v140h-133v500l132 25v-431h126v406z" />
    <glyph glyph-name="afii10050" unicode="&#x490;" horiz-adv-x="464" 
d="M70 695h254v87h135v-202h-247v-580h-142v695z" />
    <glyph glyph-name="afii10098" unicode="&#x491;" horiz-adv-x="418" 
d="M202 0h-132v512h222v97h121v-191h-211v-418z" />
    <glyph glyph-name="endash" unicode="&#x2013;" horiz-adv-x="567" 
d="M527 223h-487v103h487v-103z" />
    <glyph glyph-name="emdash" unicode="&#x2014;" horiz-adv-x="793" 
d="M753 223h-713v103h713v-103z" />
    <glyph glyph-name="quoteleft" unicode="&#x2018;" horiz-adv-x="259" 
d="M176 717l53 -56c-22 -5.33301 -39.5 -13 -52.5 -23s-19.5 -21.333 -19.5 -34c0 -12 8.66699 -22.667 26 -32c26 -14.667 39 -38 39 -70c0 -24 -8.5 -44.333 -25.5 -61s-37.5 -25 -61.5 -25c-28.667 0 -52.5 11.333 -71.5 34s-28.5 51.334 -28.5 86.001
c0 43.333 13 81.666 39 114.999s60 55.333 102 66z" />
    <glyph glyph-name="quoteright" unicode="&#x2019;" horiz-adv-x="259" 
d="M83 411l-53.001 55.002c22 5.33301 39.5 13.166 52.5 23.499s19.5 21.5 19.5 33.5c0 10.667 -8.66699 21.334 -26 32.001c-26 15.333 -39 38.666 -39 69.999c0 24 8.33301 44.333 25 61s37.334 25 62.001 25c29.333 0 53.333 -11.333 72 -34s28 -51.334 28 -86.001
c0 -43.333 -13 -81.5 -39 -114.5s-60 -54.833 -102 -65.5z" />
    <glyph glyph-name="quotesinglbase" unicode="&#x201a;" horiz-adv-x="259" 
d="M83 -145l-53 55.999c22 4.66699 39.5 12.334 52.5 23.001s19.5 22 19.5 34c0 10.667 -8.66699 21.334 -26 32.001c-26 15.333 -39 38.666 -39 69.999c0 24 8.5 44.333 25.5 61s37.5 25 61.5 25c29.333 0 53.333 -11.333 72 -34s28 -51.334 28 -86.001
c0 -43.333 -13 -81.666 -39 -114.999s-60 -55.333 -102 -66z" />
    <glyph glyph-name="quotedblleft" unicode="&#x201c;" horiz-adv-x="484" 
d="M176 718l53.001 -56c-22 -5.33301 -39.5 -13 -52.5 -23s-19.5 -21.333 -19.5 -34c0 -10.667 8.66699 -21.334 26 -32.001c26 -15.333 39 -38.666 39 -69.999c0 -24 -8.5 -44.333 -25.5 -61s-37.833 -25 -62.5 -25c-28.667 0 -52.334 11.333 -71.001 34
s-28 51.334 -28 86.001c0 43.333 13 81.666 39 114.999s60 55.333 102 66zM401.001 718l53.001 -55.9971c-21.333 -5.33301 -38.5 -13 -51.5 -23s-19.5 -21.333 -19.5 -34c0 -10.667 8.66699 -21.334 26 -32.001c26 -16 39 -39.333 39 -70c0 -24 -8.5 -44.333 -25.5 -61
s-37.833 -25 -62.5 -25c-28.667 0 -52.334 11.167 -71.001 33.5s-28 51.166 -28 86.499c0 43.333 13 81.666 39 114.999s59.667 55.333 101 66z" />
    <glyph glyph-name="quotedblright" unicode="&#x201d;" horiz-adv-x="484" 
d="M83 411l-53.001 55.002c22 5.33301 39.5 13.166 52.5 23.499s19.5 21.5 19.5 33.5c0 10.667 -8.66699 21.334 -26 32.001c-26 15.333 -39 38.666 -39 69.999c0 24 8.33301 44.333 25 61s37.334 25 62.001 25c29.333 0 53.333 -11.333 72 -34s28 -51.334 28 -86.001
c0 -43.333 -13 -81.5 -39 -114.5s-60 -54.833 -102 -65.5zM308.999 411.002l-53.002 55.001c21.333 5.33301 38.5 13.166 51.5 23.499s19.5 21.5 19.5 33.5c0 11.333 -8.33301 22 -25 32c-26 15.333 -39 38.666 -39 69.999c0 24 8.33301 44.333 25 61s37.334 25 62.001 25
c28.667 0 52.334 -11.167 71.001 -33.5s28 -51.166 28 -86.499c0 -43.333 -12.833 -81.5 -38.5 -114.5s-59.5 -54.833 -101.5 -65.5z" />
    <glyph glyph-name="quotedblbase" unicode="&#x201e;" horiz-adv-x="485" 
d="M309 -145l-53.001 56c21.333 4.66699 38.5 12.334 51.5 23.001s19.5 22 19.5 34c0 11.333 -8.33301 22 -25 32c-26 15.333 -39 38.666 -39 69.999c0 24 8.33301 44.333 25 61s37.334 25 62.001 25c29.333 0 53.333 -11.333 72 -34s28 -51.334 28 -86.001
c0 -43.333 -13 -81.666 -39 -114.999s-60 -55.333 -102 -66zM82.999 -145l-53 55.999c22 4.66699 39.5 12.334 52.5 23.001s19.5 22 19.5 34c0 10.667 -8.66699 21.334 -26 32.001c-26 15.333 -39 38.666 -39 69.999c0 24 8.5 44.333 25.5 61s37.5 25 61.5 25
c29.333 0 53.333 -11.333 72 -34s28 -51.334 28 -86.001c0 -43.333 -13 -81.666 -39 -114.999s-60 -55.333 -102 -66z" />
    <glyph glyph-name="dagger" unicode="&#x2020;" horiz-adv-x="484" 
d="M464 545l-23 -121h-139v-424h-132v424h-150v121h150v150h132v-150h162z" />
    <glyph glyph-name="daggerdbl" unicode="&#x2021;" horiz-adv-x="496" 
d="M476 545l-23 -121h-139v-153h150v-121h-150v-150h-132v150h-162l23 121h139v153h-150v121h150v150h132v-150h162z" />
    <glyph glyph-name="bullet" unicode="&#x2022;" horiz-adv-x="474" 
d="M414 354c0 -49.333 -17.333 -91.166 -52 -125.499s-76.334 -51.5 -125.001 -51.5s-90.334 17.167 -125.001 51.5s-52 76.166 -52 125.499s17.333 91.166 52 125.499s76.334 51.5 125.001 51.5s90.334 -17.167 125.001 -51.5s52 -76.166 52 -125.499z" />
    <glyph glyph-name="ellipsis" unicode="&#x2026;" horiz-adv-x="776" 
d="M726 73c0 -24.667 -8.66699 -45.667 -26 -63s-38 -26 -62 -26c-24.667 0 -45.5 8.66699 -62.5 26s-25.5 38.333 -25.5 63c0 24 8.5 44.5 25.5 61.5s37.5 25.5 61.5 25.5c24.667 0 45.667 -8.5 63 -25.5s26 -37.5 26 -61.5zM476 73c0 -24.667 -8.66699 -45.667 -26 -63
s-38 -26 -62 -26c-24.667 0 -45.5 8.66699 -62.5 26s-25.5 38.333 -25.5 63c0 24 8.5 44.5 25.5 61.5s37.5 25.5 61.5 25.5c24.667 0 45.667 -8.5 63 -25.5s26 -37.5 26 -61.5zM226 73c0 -24.667 -8.66699 -45.667 -26 -63s-38 -26 -62 -26
c-24.667 0 -45.5 8.66699 -62.5 26s-25.5 38.333 -25.5 63c0 24 8.5 44.5 25.5 61.5s37.5 25.5 61.5 25.5c24.667 0 45.667 -8.5 63 -25.5s26 -37.5 26 -61.5z" />
    <glyph glyph-name="perthousand" unicode="&#x2030;" horiz-adv-x="1210" 
d="M810 164c0 -54.667 -15.667 -97.333 -47 -128c-32 -30.667 -73.667 -46 -125 -46s-92.333 15.5 -123 46.5s-46 72.833 -46 125.5c0 52 15.5 94 46.5 126s71.833 48 122.5 48c52.667 0 95 -16 127 -48c30 -30 45 -71.333 45 -124zM1180 164.001
c0 -54.667 -15.668 -97.333 -47.001 -128c-32 -30.667 -73.667 -46 -125 -46s-92.333 15.5 -123 46.5s-46 72.833 -46 125.5c0 52 15.5 94 46.5 126s71.833 48 122.5 48c52.667 0 95.334 -16.333 128.001 -49c29.333 -29.333 44 -70.333 44 -123zM370.999 533.002
c0 -54.667 -15.667 -97.333 -47 -128c-32 -30.667 -73.667 -46 -125 -46s-92.333 15.5 -123 46.5s-46 72.833 -46 125.5c0 52 15.5 94 46.5 126s71.833 48 122.5 48c52 0 93.667 -15.667 125 -47s47 -73 47 -125zM649.999 695.003l-364 -695h-95l364 695h95z
M698.999 166.003c0 40 -6.66602 66.667 -19.999 80c-10.667 10.667 -24.667 16 -42 16c-24.667 0 -41.334 -10 -50.001 -30c-6 -14.667 -9 -37 -9 -67c0 -38.667 3.66699 -63.667 11 -75c10.667 -16.667 27.334 -25 50.001 -25c21.333 0 36.666 8 45.999 24s14 41.667 14 77
zM1069 166.003c0 40 -6.66602 66.667 -19.999 80c-10.667 10.667 -24.667 16 -42 16c-24.667 0 -41.334 -10 -50.001 -30c-6 -14.667 -9 -37 -9 -67c0 -38.667 3.66699 -63.667 11 -75c10.667 -16.667 27.334 -25 50.001 -25c21.333 0 36.666 8 45.999 24s14 41.667 14 77z
M260.001 535.003c0 40 -6.66602 66.667 -19.999 80c-10.667 10.667 -24.667 16 -42 16c-24.667 0 -41.334 -10 -50.001 -30c-6 -14.667 -9 -37 -9 -67c0 -38.667 3.66699 -63.667 11 -75c10.667 -16.667 27.334 -25 50.001 -25c21.333 0 36.666 8 45.999 24s14 41.667 14 77
z" />
    <glyph glyph-name="guilsinglleft" unicode="&#x2039;" horiz-adv-x="300" 
d="M275 76l-91 -61l-159 234l159 234l91 -61l-116 -173z" />
    <glyph glyph-name="guilsinglright" unicode="&#x203a;" horiz-adv-x="300" 
d="M275 249l-159 -234l-91 61l116 173l-116 173l91 61z" />
    <glyph glyph-name="Euro" unicode="&#x20ac;" horiz-adv-x="624" 
d="M570 141l34 -107.999c-26 -16.667 -50.333 -28.334 -73 -35.001s-52.667 -10 -90 -10c-95.333 0 -171 32 -227 96c-32.667 36.667 -56 80.667 -70 132h-114v98h100v19c0 26.667 0.666992 46 2 58h-102v98h122c7.33301 22.667 15.666 42.667 24.999 60
c26.667 50.667 63.667 90.167 111 118.5s99 42.5 155 42.5c57.333 0 106 -11.667 146 -35l-33 -115c-34.667 26 -71.667 39 -111 39c-23.333 0 -45.666 -5.33301 -66.999 -16s-38.333 -25.334 -51 -44.001c-8.66699 -12 -16.334 -28.667 -23.001 -50h193v-98h-208
c0 -3.33301 -0.166992 -8.33301 -0.5 -15s-0.5 -12 -0.5 -16c0 -21.333 0.333008 -36.666 1 -45.999h208v-98h-196c4 -16.667 9.33301 -30.667 16 -42c28.667 -52 73.334 -78 134.001 -78c42 0 81.667 15 119 45z" />
    <glyph glyph-name="afii61352" unicode="&#x2116;" horiz-adv-x="982" 
d="M539 0h-137l-117 274c-42 88.667 -74 164.667 -96 228c4.66699 -56 7 -116.667 7 -182v-320h-126v695h144l130 -289c42.667 -88 69.667 -153.667 81 -197c-2 29.333 -6 93 -12 191v295h126v-695zM917 530c0 -52.667 -13.332 -94.001 -39.999 -124.001
c-26.667 -29.333 -62 -44 -106 -44c-41.333 0 -75.5 14.333 -102.5 43s-40.5 69.334 -40.5 122.001c0 53.333 15 96.333 45 129c24 26 56.667 39 98 39c45.333 0 81.666 -15.667 108.999 -47c24.667 -28 37 -67.333 37 -118zM827.001 530.999
c0 44.667 -5.66797 73.667 -17.001 87c-10 10 -22 15 -36 15c-22 0 -37.333 -11 -46 -33c-6 -14 -9 -37.333 -9 -70c0 -34.667 3.66699 -60.667 11 -78c8.66699 -20 23.334 -30 44.001 -30c14 0 25.667 5.66699 35 17c12 15.333 18 46 18 92zM911 200.999h-277v61h277v-61z
" />
    <glyph glyph-name="trademark" unicode="&#x2122;" horiz-adv-x="1020" 
d="M960 295h-108v268h-2l-98 -268h-70l-98 268h-2v-268h-108v412h145l98 -268l98 268h145v-412zM386 611h-119v-316h-108v316h-119v96h346v-96z" />
    <glyph glyph-name="minus" unicode="&#x2212;" horiz-adv-x="567" 
d="M527 223h-487v103h487v-103z" />
    <glyph glyph-name="uni2219" unicode="&#x2219;" horiz-adv-x="258" 
d="M218 273c0 -24 -8.83301 -44.668 -26.5 -62.001s-38.834 -26 -63.501 -26s-45.5 8.66699 -62.5 26s-25.5 38.333 -25.5 63s8.83301 45.834 26.5 63.501s38.834 26.5 63.501 26.5s45.5 -8.83301 62.5 -26.5s25.5 -39.167 25.5 -64.5z" />
    <glyph glyph-name="radical" unicode="&#x221a;" horiz-adv-x="590" 
d="M590 722l-266 -730h-109l-149 426h-66v94h166l87 -239c3.33301 -8 7 -21 11 -39s6.66699 -29.333 8 -34c1.33301 4.66699 4 14.667 8 30s7 26.333 9 33l165 459h136z" />
    <glyph glyph-name="infinity" unicode="&#x221e;" horiz-adv-x="948" 
d="M918 262c0 -59.333 -20.665 -104.996 -61.998 -136.996s-88.333 -48 -141 -48c-61.333 0 -118.666 19 -171.999 57l-73 51l-66 -48c-56 -40.667 -114.667 -61 -176 -61c-17.333 0 -34.5 1.66699 -51.5 5s-34.5 9.16602 -52.5 17.499s-33.833 19 -47.5 32
s-24.834 30.167 -33.501 51.5s-13 45.333 -13 72c0 61.333 20.5 107.666 61.5 138.999s88.833 47 143.5 47c59.333 0 119 -20.667 179 -62l66 -46l67 50c53.333 39.333 111.666 59 174.999 59c22 0 43.667 -2.83301 65 -8.5s42.166 -14.834 62.499 -27.501
s36.833 -31.334 49.5 -56.001s19 -53.667 19 -87zM787.002 261.004c0 18.667 -6.66699 34 -20 46s-31 18 -53 18c-34 0 -68 -13 -102 -39l-33 -25l50 -33c32.667 -21.333 61 -32 85 -32c25.333 0 43.833 6.33301 55.5 19s17.5 28 17.5 46zM369.002 255.004l-49 35
c-28 20 -56.333 30 -85 30c-25.333 0 -43.833 -6.33301 -55.5 -19s-17.5 -28 -17.5 -46c0 -18.667 6.66699 -34 20 -46s31 -18 53 -18c30.667 0 64.667 13.667 102 41z" />
    <glyph glyph-name="uni2224" unicode="&#x2224;" horiz-adv-x="258" 
d="M218 273c0 -24 -8.83301 -44.668 -26.5 -62.001s-38.834 -26 -63.501 -26s-45.5 8.66699 -62.5 26s-25.5 38.333 -25.5 63s8.83301 45.834 26.5 63.501s38.834 26.5 63.501 26.5s45.5 -8.83301 62.5 -26.5s25.5 -39.167 25.5 -64.5z" />
    <glyph glyph-name="uni2227" unicode="&#x2227;" horiz-adv-x="258" 
d="M218 273c0 -24 -8.83301 -44.668 -26.5 -62.001s-38.834 -26 -63.501 -26s-45.5 8.66699 -62.5 26s-25.5 38.333 -25.5 63s8.83301 45.834 26.5 63.501s38.834 26.5 63.501 26.5s45.5 -8.83301 62.5 -26.5s25.5 -39.167 25.5 -64.5z" />
    <glyph glyph-name="approxequal" unicode="&#x2248;" horiz-adv-x="562" 
d="M512 362c-30 -57.333 -71.667 -86 -125 -86c-26 0 -63 10.667 -111 32l-21.5 9.5c-9.66699 4.33301 -17.334 7.66602 -23.001 9.99902l-20 8c-7.66699 3 -14.5 5.16699 -20.5 6.5s-11.667 2 -17 2c-12.667 0 -25 -4.16699 -37 -12.5s-20.5 -15.666 -25.5 -21.999
l-25.5 -33.5l-36 108c30 57.333 71.667 86 125 86c26 0 63 -10.667 111 -32l21.5 -9.5c9.66699 -4.33301 17.334 -7.66602 23.001 -9.99902l20 -8c7.66699 -3 14.5 -5.16699 20.5 -6.5s11.667 -2 17 -2c12.667 0 25 4.16699 37 12.5s20.5 15.666 25.5 21.999l25.5 33.5z
M512 162c-30 -57.333 -71.667 -86 -125 -86c-26 0 -63 10.667 -111 32l-21.5 9.5c-9.66699 4.33301 -17.334 7.66602 -23.001 9.99902l-20 8c-7.66699 3 -14.5 5.16699 -20.5 6.5s-11.667 2 -17 2c-12.667 0 -25 -4.16699 -37 -12.5s-20.5 -15.666 -25.5 -21.999
l-25.5 -33.5l-36 108c30 57.333 71.667 86 125 86c26 0 63 -10.667 111 -32l21.5 -9.5c9.66699 -4.33301 17.334 -7.66602 23.001 -9.99902l20 -8c7.66699 -3 14.5 -5.16699 20.5 -6.5s11.667 -2 17 -2c12.667 0 25 4.16699 37 12.5s20.5 15.666 25.5 21.999l25.5 33.5z" />
    <glyph glyph-name="notequal" unicode="&#x2260;" horiz-adv-x="648" 
d="M295 336h-245v126h315l91 153l80 -49l-33 -55l-38 -49h133v-126h-208l-37 -66h245v-126h-315l-91 -153l-80 49l33 55l38 49h-133v126h208z" />
    <glyph glyph-name="lessequal" unicode="&#x2264;" horiz-adv-x="433" 
d="M403 116l-383 142v96l383 178v-131l-206 -87l206 -70v-128zM403 0h-383v109h383v-109z" />
    <glyph glyph-name="greaterequal" unicode="&#x2265;" horiz-adv-x="433" 
d="M413 258l-383 -142v130l206 68l-206 87v131l383 -178v-96zM413 0h-383v109h383v-109z" />
    <glyph glyph-name="uni22C5" unicode="&#x22c5;" horiz-adv-x="258" 
d="M218 273c0 -24 -8.83301 -44.668 -26.5 -62.001s-38.834 -26 -63.501 -26s-45.5 8.66699 -62.5 26s-25.5 38.333 -25.5 63s8.83301 45.834 26.5 63.501s38.834 26.5 63.501 26.5s45.5 -8.83301 62.5 -26.5s25.5 -39.167 25.5 -64.5z" />
    <glyph glyph-name="nonmarkingreturn" horiz-adv-x="333" 
 />
    <glyph glyph-name="CR" horiz-adv-x="225" 
 />
  </font>
</defs>
</svg>
