<?xml version="1.0" standalone="no"?>
<!DOCTYPE svg PUBLIC "-//W3C//DTD SVG 1.1//EN" "http://www.w3.org/Graphics/SVG/1.1/DTD/svg11.dtd" >
<svg>
<metadata>
Created by FontForge 20090914 at Thu Jan 31 09:07:26 2013
 By www-data
Copyright 2001, Erik Spiekermann, Just van Rossum, Luk(as) de Groot,Tagir Safayev, Olga Chayeva, published by FSI Fonts und Software.
</metadata>
<defs>
<font id="MetaMediumCyrLF-Roman" horiz-adv-x="560" >
  <font-face 
    font-family="MetaMediumCyrLF-Roman"
    font-weight="500"
    font-stretch="normal"
    units-per-em="1000"
    panose-1="2 0 6 3 0 0 0 0 0 0"
    ascent="800"
    descent="-200"
    x-height="506"
    cap-height="692"
    bbox="-43.002 -216.001 1178 915.001"
    underline-thickness="50"
    underline-position="-100"
    unicode-range="U+0020-U+22C5"
  />
<missing-glyph horiz-adv-x="500" 
 />
    <glyph glyph-name=".notdef" horiz-adv-x="500" 
 />
    <glyph glyph-name="space" unicode=" " horiz-adv-x="225" 
 />
    <glyph glyph-name="exclam" unicode="!" horiz-adv-x="286" 
d="M216 64c0 -20.667 -7.33203 -38.167 -21.999 -52.5s-32 -21.5 -52 -21.5c-20.667 0 -37.834 7.16699 -51.501 21.5s-20.5 31.833 -20.5 52.5c0 20 7 37.167 21 51.5s31.333 21.5 52 21.5c20 0 37.167 -7.16699 51.5 -21.5s21.5 -31.5 21.5 -51.5zM184.001 212h-84
l-25 475l133 19z" />
    <glyph glyph-name="quotedbl" unicode="&#x22;" horiz-adv-x="443" 
d="M70 442v267h102v-267h-102zM271 442v267h102v-267h-102z" />
    <glyph glyph-name="numbersign" unicode="#" horiz-adv-x="556" 
d="M231 425l-20 -141h113l19 141h-112zM426 425l-20 -141h90v-77h-100l-29 -207h-83l29 207h-112l-29 -207h-82l28 207h-88v77h99l19 141h-89v77h100l28 206h83l-29 -206h112l29 206h82l-28 -206h90v-77h-100z" />
    <glyph glyph-name="dollar" unicode="$" horiz-adv-x="579" 
d="M539 210c0 -61.333 -21.502 -111.832 -64.502 -151.499s-95.5 -62.834 -157.5 -69.501v-88h-72v87c-73.333 2.66699 -141.666 22.667 -204.999 60l44 89c66.667 -37.333 130.667 -56 192 -56c43.333 0 76.333 10.167 99 30.5s34 46.5 34 78.5
c0 49.333 -31.667 83.666 -95 102.999l-84 25c-62.667 18.667 -106 44.667 -130 78c-22 30 -33 65.667 -33 107c0 55.333 17.5 100.333 52.5 135s83.167 56.334 144.5 65.001v76h72v-76c68.667 -4 131 -26 187 -66l-52 -81c-59.333 35.333 -112.333 53 -159 53
c-39.333 0 -68.833 -7.83301 -88.5 -23.5s-29.5 -37.167 -29.5 -64.5c0 -42.667 26.667 -71 80 -85l94 -26c54.667 -14.667 96.334 -39 125.001 -73c30.667 -34.667 46 -77 46 -127z" />
    <glyph glyph-name="percent" unicode="%" horiz-adv-x="834" 
d="M272 527c0 38 -6.16699 65.667 -18.5 83s-31.833 26 -58.5 26c-50 0 -75 -34.667 -75 -104c0 -39.333 6.16699 -67.5 18.5 -84.5s31.833 -25.5 58.5 -25.5c26 0 45 8.5 57 25.5s18 43.5 18 79.5zM713 160c0 39.333 -6.16699 67.333 -18.5 84s-31.833 25 -58.5 25
c-50 0 -75 -34.333 -75 -103c0 -40 5.83301 -68.333 17.5 -85s31.5 -25 59.5 -25c26 0 45 8.33301 57 25s18 43 18 79zM363 528c0 -52.667 -14.999 -94.001 -44.999 -124.001c-30.667 -30.667 -71.334 -46 -122.001 -46c-52 0 -92.667 15.333 -122 46
s-44 72.334 -44 125.001c0 52 15.167 93.5 45.5 124.5s70.166 46.5 119.499 46.5c52.667 0 93.834 -15 123.501 -45s44.5 -72.333 44.5 -127zM282.001 -0.000976562h-79l350 690h80zM804.001 161.999c0 -51.333 -14.8311 -92.668 -44.498 -124.001s-70.5 -47 -122.5 -47
s-92.667 15.333 -122 46s-44 72.334 -44 125.001c0 52 15.167 93.5 45.5 124.5s70.166 46.5 119.499 46.5c53.333 0 94.666 -15 123.999 -45s44 -72 44 -126z" />
    <glyph glyph-name="ampersand" unicode="&#x26;" horiz-adv-x="689" 
d="M242 289c-49.333 -27.333 -74 -65 -74 -113c0 -34 11.167 -60.667 33.5 -80s53.833 -29 94.5 -29c56.667 0 98 16 124 48zM362 507c0 23.333 -7.16602 42.333 -21.499 57s-32.833 22 -55.5 22s-41.167 -6.66699 -55.5 -20s-21.5 -32 -21.5 -56
c0 -16.667 5.16699 -33.167 15.5 -49.5s29.166 -36.833 56.499 -61.5c54.667 26.667 82 62.667 82 108zM538.001 0l-53 53.002c-44 -44 -108.333 -66 -193 -66c-78 0 -137.833 16.667 -179.5 50s-62.5 78.666 -62.5 135.999c0 40.667 11 74.5 33 101.5
s55.333 51.167 100 72.5c-33.333 26 -56.5 50.5 -69.5 73.5s-19.5 49.5 -19.5 79.5c0 46.667 17.833 85.5 53.5 116.5s81.167 46.5 136.5 46.5c56 0 102.333 -14.167 139 -42.5s55 -66.166 55 -113.499c0 -36.667 -11.5 -67.834 -34.5 -93.501
s-57.167 -48.834 -102.5 -69.501l136 -132c9.33301 24 14 64.667 14 122h92c0 -82 -11.333 -147 -34 -195l140 -139h-151z" />
    <glyph glyph-name="quotesingle" unicode="'" horiz-adv-x="242" 
d="M70 442v267h102v-267h-102z" />
    <glyph glyph-name="parenleft" unicode="(" horiz-adv-x="303" 
d="M294 -163c-46 16.667 -86.332 42.5039 -120.999 77.5039s-62 77.5 -82 127.5c-27.333 67.333 -41 160.666 -41 279.999c0 97.333 11.667 176 35 236c40.667 103.333 110 176.666 208 219.999l28 -61c-60 -40.667 -101.333 -88.334 -124 -143.001
c-24 -52.667 -36 -136 -36 -250c0 -86.667 7 -160.334 21 -221.001c12 -48.667 28.667 -90.167 50 -124.5s51.666 -61.5 90.999 -81.5z" />
    <glyph glyph-name="parenright" unicode=")" horiz-adv-x="304" 
d="M254 310c0 -93.333 -10.665 -173.998 -31.998 -241.998c-18 -52.667 -45.333 -99.334 -82 -140.001s-80.334 -71 -131.001 -91l-29 61c64 36 109 93.333 135 172c18 52 27 132 27 240c0 58.667 -6.33301 124 -19 196c-8.66699 48 -23.834 89 -45.501 123
s-53.5 63.333 -95.5 88l28 61c88 -34.667 154.333 -99.334 199 -194.001c30 -64.667 45 -156 45 -274z" />
    <glyph glyph-name="asterisk" unicode="*" horiz-adv-x="456" 
d="M295 486l86 -118l-67 -51l-87 121l-84 -118l-66 50l86 116l-138 47l27 79l136 -48v144h82v-144l136 46l25 -79z" />
    <glyph glyph-name="plus" unicode="+" horiz-adv-x="600" 
d="M351 232v-200h-102v200h-199v104h199v200h102v-200h199v-104h-199z" />
    <glyph glyph-name="comma" unicode="," horiz-adv-x="282" 
d="M222 35c0 -41.333 -12.332 -78 -36.999 -110s-56.334 -55 -95.001 -69l-40 50c20 6.66699 36.333 16.667 49 30s19 27 19 41c0 7.33301 -7.33301 14.333 -22 21c-28.667 12 -43 34.333 -43 67c0 22.667 7.66699 41.667 23 57s34 23 56 23c26 0 47.5 -10.333 64.5 -31
s25.5 -47 25.5 -79z" />
    <glyph glyph-name="hyphen" unicode="-" horiz-adv-x="319" 
d="M50 221v102h219v-102h-219z" />
    <glyph glyph-name="period" unicode="." horiz-adv-x="277" 
d="M217 67c0 -22.667 -7.66797 -42 -23.001 -58s-33.666 -24 -54.999 -24c-22 0 -40.667 8 -56 24s-23 35.333 -23 58c0 22 7.5 40.667 22.5 56s33.167 23 54.5 23c22 0 40.833 -7.66699 56.5 -23s23.5 -34 23.5 -56z" />
    <glyph glyph-name="slash" unicode="/" horiz-adv-x="440" 
d="M126 -151h-76l263 913h77z" />
    <glyph glyph-name="zero" unicode="0" 
d="M392 328c0 62.667 -5.00098 113.667 -15.001 153c-17.333 72 -49.666 108 -96.999 108c-38.667 0 -68 -28 -88 -84c-15.333 -42 -23 -99 -23 -171c0 -63.333 4.66699 -115.333 14 -156c18 -74 50 -111 96 -111c42.667 0 74 31.333 94 94c12.667 42 19 97.667 19 167z
M513.999 330c0 -103.333 -21.833 -186.667 -65.5 -250s-100.5 -95 -170.5 -95c-42 0 -78.667 11.167 -110 33.5s-55.5 51.5 -72.5 87.5s-29.5 73.167 -37.5 111.5s-12 76.833 -12 115.5c0 98 22.167 179 66.5 243s99.833 96 166.5 96c42.667 0 80 -10.833 112 -32.5
s56.5 -50 73.5 -85s29.5 -71.333 37.5 -109s12 -76.167 12 -115.5z" />
    <glyph glyph-name="one" unicode="1" 
d="M133 0l0.000976562 89h116v444c-26.667 -17.333 -49.334 -30.333 -68.001 -39c-34.667 -16.667 -60 -27.667 -76 -33l-27 59l201 141h78v-572h93v-89h-317z" />
    <glyph glyph-name="two" unicode="2" 
d="M482 0h-408v73c49.333 39.333 102.666 92 159.999 158c86 93.333 129 172.333 129 237c0 34.667 -9.33301 61.167 -28 79.5s-42.667 27.5 -72 27.5c-26.667 0 -50.667 -5.5 -72 -16.5s-46 -27.167 -74 -48.5l-56 65c74 64.667 152.667 97 236 97
c56 0 101.833 -17.833 137.5 -53.5s53.5 -80.834 53.5 -135.501c0 -62 -31.333 -130.333 -94 -205c-11.333 -13.333 -46.666 -50.666 -105.999 -111.999c-48 -48 -76 -74.333 -84 -79c18 2.66699 50.333 4 97 4h205z" />
    <glyph glyph-name="three" unicode="3" 
d="M493 202c0 -42.667 -14.1719 -81.6699 -42.5049 -117.003s-66.5 -63 -114.5 -83c-53.333 -22 -116.666 -33 -189.999 -33c-26 0 -48.667 1.33301 -68 4l-26 76c20 -4 41.667 -6 65 -6c38.667 0 75.834 4.83301 111.501 14.5s67.5 27.834 95.5 54.501s42 60 42 100
c0 19.333 -3.66699 35.833 -11 49.5s-15.666 23.834 -24.999 30.501s-22.666 11.667 -39.999 15s-31.666 5.33301 -42.999 6s-27 1 -47 1h-33v87h58c86.667 0 130 29.667 130 89c0 26.667 -8.83301 48.167 -26.5 64.5s-42.167 24.5 -73.5 24.5
c-28.667 0 -53.667 -4.66699 -75 -14s-46.666 -24.333 -75.999 -45l-56 68c30 24.667 65.333 44.834 106 60.501s80 23.5 118 23.5c59.333 0 108.166 -16 146.499 -48s57.5 -72.333 57.5 -121c0 -72 -36.667 -121.333 -110 -148c36.667 -11.333 67 -30.5 91 -57.5
s36 -58.833 36 -95.5z" />
    <glyph glyph-name="four" unicode="4" 
d="M466 125l-29 2.00098c2 -10 3 -22.667 3 -38v-104l-105 -19v130l1 31c-9.33301 -1.33301 -21 -2 -35 -2h-262v78l212 460h116l-170 -369c-4.66699 -10 -10.667 -21.667 -18 -35s-13 -24 -17 -32l-7 -12c10 1.33301 19.333 2 28 2h132l23 -1
c-0.666992 11.333 -1 18.666 -1 21.999c0 24.667 1.66699 57.667 5 99l12 143l86 22v-263l-1 -24c12 1.33301 21 2 27 2h49v-92h-49z" />
    <glyph glyph-name="five" unicode="5" 
d="M485 215c0 -43.333 -11.833 -83.666 -35.5 -120.999s-55.834 -66.333 -96.501 -87c-50 -26 -107.333 -39 -172 -39c-26.667 0 -51.667 2.66699 -75 8l-23 82c30 -9.33301 58.667 -14 86 -14c56.667 0 103.5 15.167 140.5 45.5s55.5 68.833 55.5 115.5
c0 38 -11.5 67 -34.5 87s-53.833 30 -92.5 30c-43.333 0 -89 -8.66699 -137 -26l32 361h322l-17 -93h-203l-16 -162c22.667 3.33301 41.334 5 56.001 5c60 0 110 -17.333 150 -52s60 -81.334 60 -140.001z" />
    <glyph glyph-name="six" unicode="6" 
d="M394 206c0 34.667 -9 63.332 -27 85.999s-44 34 -78 34c-36.667 0 -76 -14 -118 -42c-2 -34 -3 -52.667 -3 -56c0 -43.333 9 -80.666 27 -111.999s47 -47 87 -47c34.667 0 62 12.333 82 37s30 58 30 100zM513 207.998c0 -63.333 -21.8311 -116.333 -65.498 -159
s-97.834 -64 -162.501 -64c-70.667 0 -128.167 25.667 -172.5 77s-66.5 118 -66.5 200c0 60.667 14.833 119.834 44.5 177.501s68.5 107.167 116.5 148.5c63.333 55.333 137 95 221 119l25 -76c-90.667 -32.667 -159 -76.334 -205 -131.001c-17.333 -20 -30.5 -39 -39.5 -57
s-17.833 -41.667 -26.5 -71c31.333 27.333 72.666 41 123.999 41c58 0 107 -19.667 147 -59s60 -88 60 -146z" />
    <glyph glyph-name="seven" unicode="7" 
d="M500 556c-72 -108.667 -128 -204.667 -168 -288c-50.667 -106 -81.334 -198.333 -92.001 -277l-126 -32c30.667 134 81.334 267 152.001 399c46.667 86.667 91 154.667 133 204c-23.333 -1.33301 -44.333 -2 -63 -2h-264l25 97h424z" />
    <glyph glyph-name="eight" unicode="8" 
d="M402 163c0 31.333 -11 55.333 -33 72c-23.333 18.667 -66.333 41 -129 67c-56 -30.667 -84 -72 -84 -124c0 -35.333 11.5 -63.333 34.5 -84s54.167 -31 93.5 -31c35.333 0 63.833 9.16699 85.5 27.5s32.5 42.5 32.5 72.5zM381 507c0 26.667 -9.16699 47.5 -27.5 62.5
s-44.5 22.5 -78.5 22.5c-32 0 -57.667 -8 -77 -24s-29 -37 -29 -63c0 -44 38.667 -80.667 116 -110c64 32 96 69.333 96 112zM523 182c0 -60 -25.999 -108.5 -77.999 -145.5s-109.333 -55.5 -172 -55.5c-64 0 -119.333 16 -166 48s-70 79 -70 141
c0 39.333 11.667 74.333 35 105s54.333 53 93 67c-31.333 12.667 -57 33 -77 61s-30 58.667 -30 92c0 58.667 22.5 102.834 67.5 132.501s98.167 44.5 159.5 44.5c63.333 0 114.666 -15.333 153.999 -46s59 -70.334 59 -119.001c0 -68 -44.333 -119.333 -133 -154
c52 -21.333 91.333 -45.333 118 -72s40 -59.667 40 -99z" />
    <glyph glyph-name="nine" unicode="9" 
d="M393 433c0 48 -10.167 85.668 -30.5 113.001s-47.5 41 -81.5 41c-33.333 0 -60 -12.833 -80 -38.5s-30 -60.167 -30 -103.5c0 -40.667 9.83301 -72.834 29.5 -96.501s46.5 -35.5 80.5 -35.5c34.667 0 68.667 14.667 102 44c6.66699 24 10 49.333 10 76zM513 414.001
c0 -128 -50.335 -238.667 -151.002 -332c-75.333 -71.333 -157.333 -116.333 -246 -135l-58 67c34 8 61 17 81 27c88.667 40 154 95 196 165c8.66699 14 16.667 30 24 48c-31.333 -18 -64.666 -27 -99.999 -27c-59.333 0 -109 20.5 -149 61.5s-60 92.5 -60 154.5
c0 66 22.5 120.833 67.5 164.5s100.833 65.5 167.5 65.5c72.667 0 128.834 -24.667 168.501 -74s59.5 -111 59.5 -185z" />
    <glyph glyph-name="colon" unicode=":" horiz-adv-x="295" 
d="M224 63c0 -21.333 -7.66797 -39.5 -23.001 -54.5s-33.666 -22.5 -54.999 -22.5s-39.333 7.5 -54 22.5s-22 33.167 -22 54.5c0 22 7.5 41 22.5 57s33.5 23.667 55.5 23c21.333 0 39.333 -7.83301 54 -23.5s22 -34.5 22 -56.5zM224.999 372
c0 -22 -7.66797 -40.5 -23.001 -55.5s-33.666 -22.5 -54.999 -22.5s-39.333 7.33301 -54 22s-22 32.667 -22 54c0 22 7.5 40.667 22.5 56s33.167 23.333 54.5 24c21.333 0 39.5 -7.5 54.5 -22.5s22.5 -33.5 22.5 -55.5z" />
    <glyph glyph-name="semicolon" unicode=";" horiz-adv-x="313" 
d="M243 32c0 -39.333 -12.5 -75.332 -37.5 -107.999s-56.833 -56 -95.5 -70l-40 49c20.667 7.33301 37.167 17.5 49.5 30.5s18.5 26.167 18.5 39.5c0 6 -3.33301 11.333 -10 16s-14.167 8.83398 -22.5 12.501s-15.833 10.667 -22.5 21s-10 23.5 -10 39.5
c0 23.333 7.66699 42.666 23 57.999s34 23 56 23c26.667 0 48.5 -10.333 65.5 -31s25.5 -47.334 25.5 -80.001zM229 371.001c0 -21.333 -7.5 -39.666 -22.5 -54.999s-33.167 -23 -54.5 -23c-22 0 -40.5 7.66699 -55.5 23s-22.5 33.666 -22.5 54.999s7.5 39.833 22.5 55.5
s32.833 23.5 53.5 23.5c21.333 0 39.833 -7.66699 55.5 -23s23.5 -34 23.5 -56z" />
    <glyph glyph-name="less" unicode="&#x3c;" horiz-adv-x="368" 
d="M240 12l-220 287l220 288l88 -71l-165 -217l165 -218z" />
    <glyph glyph-name="equal" unicode="=" horiz-adv-x="635" 
d="M50 162v101h535v-101h-535zM50 344v101h535v-101h-535z" />
    <glyph glyph-name="greater" unicode="&#x3e;" horiz-adv-x="367" 
d="M128 12l-88 69l164 218l-164 217l88 71l219 -288z" />
    <glyph glyph-name="question" unicode="?" horiz-adv-x="463" 
d="M282 64c0 -21.333 -7.33301 -39.5 -22 -54.5s-32.667 -22.5 -54 -22.5c-20.667 0 -38.167 7.5 -52.5 22.5s-21.5 33.167 -21.5 54.5s7.16699 39 21.5 53s32.166 21 53.499 21c20.667 0 38.334 -7 53.001 -21s22 -31.667 22 -53zM403 543
c0 -21.333 -3.33398 -41.001 -10.001 -59.001s-16.334 -33.5 -29.001 -46.5s-22.5 -22.333 -29.5 -28s-16.5 -12.5 -28.5 -20.5c-44.667 -30.667 -67 -73 -67 -127c0 -13.333 1 -26.333 3 -39h-94c-5.33301 24.667 -8 45.334 -8 62.001c0 56.667 26 106 78 148
c3.33301 2.66699 11.5 8.66699 24.5 18s22 16.5 27 21.5s10.167 12.667 15.5 23s8 21.833 8 34.5c0 24.667 -8.16699 43.667 -24.5 57s-37.166 20 -62.499 20c-40.667 0 -80 -15 -118 -45l-48 71c50.667 46 113.334 69 188.001 69c49.333 0 90.833 -14.5 124.5 -43.5
s50.5 -67.5 50.5 -115.5z" />
    <glyph glyph-name="at" unicode="@" horiz-adv-x="911" 
d="M556 380c-9.33301 4.66699 -23.001 7 -41.001 7c-57.333 0 -101.166 -25.333 -131.499 -76s-45.5 -108 -45.5 -172c0 -25.333 4.16699 -43 12.5 -53s21.5 -15 39.5 -15c24 0 49 11.5 75 34.5s43.333 54.833 52 95.5zM860.999 276c0 -86 -22.002 -155.833 -66.002 -209.5
s-97.667 -80.5 -161 -80.5c-37.333 0 -65.333 8 -84 24s-29 37 -31 63c-40.667 -50 -90.667 -75 -150 -75c-33.333 0 -62.166 12.5 -86.499 37.5s-36.5 60.833 -36.5 107.5c0 84.667 24.5 157.5 73.5 218.5s116.5 91.5 202.5 91.5c46.667 0 92.334 -12 137.001 -36
c-14.667 -48 -35.667 -137.667 -63 -269c-7.33301 -38.667 -8.16602 -64.167 -2.49902 -76.5s20.167 -18.5 43.5 -18.5c36 0 66.833 21.333 92.5 64s38.5 95.667 38.5 159c0 79.333 -28.167 146.166 -84.5 200.499s-129.5 81.5 -219.5 81.5
c-94 0 -170.833 -35.167 -230.5 -105.5s-89.5 -152.833 -89.5 -247.5c0 -87.333 29 -159.333 87 -216s129.667 -85 215 -85c54 0 102 7.33301 144 22l18 -68c-46.667 -15.333 -100.667 -23 -162 -23c-72 0 -137.5 13.833 -196.5 41.5s-107 70 -144 127
s-55.5 124.167 -55.5 201.5c0 118.667 39.167 218.334 117.5 299.001s177.166 121 296.499 121c114 0 208.667 -32.167 284 -96.5s113 -148.5 113 -252.5z" />
    <glyph glyph-name="A" unicode="A" horiz-adv-x="577" 
d="M371 278c-34.667 115.333 -62 215.333 -82 300c-20.667 -75.333 -50 -175.333 -88 -300h170zM453 0l-56 182h-224l-56 -182h-119l227 692h133l221 -692h-126z" />
    <glyph glyph-name="B" unicode="B" horiz-adv-x="601" 
d="M423 206c0 25.333 -6.00098 47.333 -18.001 66s-27.667 30.667 -47 36c-13.333 4 -34.666 6 -63.999 6h-99v-220h102c42 0 73.5 10.333 94.5 31s31.5 47.667 31.5 81zM401.999 503c0 20 -5.16895 38 -15.502 54s-23.833 27 -40.5 33c-16 5.33301 -37.667 8 -65 8h-86
v-190h95c22.667 0 39.834 1.66699 51.501 5s22.834 10.333 33.501 21c18 20 27 43 27 69zM550.997 196c0 -67.333 -22.666 -116.834 -67.999 -148.501s-112.666 -47.5 -201.999 -47.5h-201v692h183c51.333 0 89.166 -2.33301 113.499 -7s47.166 -13.667 68.499 -27
c52 -33.333 78 -78.666 78 -135.999c0 -76.667 -39.667 -127 -119 -151c98 -24.667 147 -83 147 -175z" />
    <glyph glyph-name="C" unicode="C" horiz-adv-x="567" 
d="M537 51c-52.667 -40.667 -115.668 -61 -189.001 -61c-89.333 0 -162.333 33.333 -219 100c-52.667 63.333 -79 144.666 -79 243.999c0 82.667 15.333 152.334 46 209.001c26 50 61.5 89 106.5 117s94.5 42 148.5 42c72.667 0 130 -18 172 -54l-53 -75
c-35.333 26 -74.666 39 -117.999 39c-59.333 0 -105.333 -27.667 -138 -83c-24 -43.333 -36 -103.666 -36 -180.999c0 -76.667 9 -133.334 27 -170.001c30 -65.333 81.333 -98 154 -98c46 0 87.333 14.667 124 44z" />
    <glyph glyph-name="D" unicode="D" horiz-adv-x="621" 
d="M443 333c0 99.333 -14.668 169 -44.001 209c-16 22 -33.833 37.5 -53.5 46.5s-45.167 13.5 -76.5 13.5h-74v-508h77c60.667 0 104.334 19.5 131.001 58.5s40 99.167 40 180.5zM570.999 344c0 -102.667 -24.3311 -185 -72.998 -247
c-28.667 -36.667 -60.834 -62 -96.501 -76s-85.834 -21 -150.501 -21h-171v692h144c66 0 120 -7.33301 162 -22s78.667 -40 110 -76c50 -58 75 -141.333 75 -250z" />
    <glyph glyph-name="E" unicode="E" horiz-adv-x="499" 
d="M80 0v692h384l-15 -94h-252v-189h211v-94h-211v-217h277v-98h-394z" />
    <glyph glyph-name="F" unicode="F" horiz-adv-x="431" 
d="M432 598h-237v-188h193v-94h-193v-316h-115v692h366z" />
    <glyph glyph-name="G" unicode="G" horiz-adv-x="639" 
d="M569 48c-63.333 -38.667 -135.335 -58 -216.002 -58c-98 0 -173.333 32.667 -226 98c-51.333 62.667 -77 147 -77 253c0 140.667 43.333 243 130 307c47.333 36 104.333 54 171 54c80.667 0 149.334 -24.333 206.001 -73l-58 -70c-46 35.333 -94.667 53 -146 53
c-116.667 0 -175 -91.667 -175 -275c0 -98 17 -167 51 -207c29.333 -34.667 73 -52 131 -52c34.667 0 65.334 7.33301 92.001 22v180h-118l-16 94h251v-326z" />
    <glyph glyph-name="H" unicode="H" horiz-adv-x="626" 
d="M431 0v320h-236v-320h-115v692h115v-278h236v278h115v-692h-115z" />
    <glyph glyph-name="I" unicode="I" horiz-adv-x="278" 
d="M80 0v692h118v-692h-118z" />
    <glyph glyph-name="J" unicode="J" horiz-adv-x="283" 
d="M203 128c0 -55.333 -3 -96 -9 -122s-16.667 -49.667 -32 -71c-27.333 -38 -66.333 -66.333 -117 -85l-54 61c39.333 21.333 66.333 47.333 81 78c10.667 24 16 67 16 129v574h115v-564z" />
    <glyph glyph-name="K" unicode="K" horiz-adv-x="571" 
d="M80 0v692h115v-692h-115zM431 0l-233 369l225 323h142l-240 -321l256 -371h-150z" />
    <glyph glyph-name="L" unicode="L" horiz-adv-x="463" 
d="M434 0h-354v692h115v-598h258z" />
    <glyph glyph-name="M" unicode="M" horiz-adv-x="816" 
d="M643 0l-32 428.999c-3.33301 48 -5 88 -5 120c-10.667 -49.333 -19.667 -86.333 -27 -111l-126 -438h-98l-115 419c-16 54 -26 97.667 -30 131c0 -21.333 -2.33301 -65.333 -7 -132l-30 -418h-113l63 692h153l106 -392c8 -29.333 16.667 -68.666 26 -117.999
c4.66699 33.333 13 72 25 116l109 394h153l61 -692h-113z" />
    <glyph glyph-name="N" unicode="N" horiz-adv-x="629" 
d="M428 0l-154.999 325c-35.333 74 -65.333 142.333 -90 205l-3 -3c3.33301 -37.333 5.66602 -101.333 6.99902 -192l4 -335h-111v692h130l168 -338c32.667 -64.667 55.667 -124 69 -178l3 3c-6.66699 78 -10 143.667 -10 197l-2 316h111v-692h-121z" />
    <glyph glyph-name="O" unicode="O" horiz-adv-x="678" 
d="M500 340c0 90 -11.833 158.167 -35.5 204.5s-64.834 69.5 -123.501 69.5c-57.333 0 -98.833 -21.833 -124.5 -65.5s-38.5 -108.167 -38.5 -193.5c0 -92.667 13 -162 39 -208s68.333 -69 127 -69c52.667 0 91.834 20.833 117.501 62.5s38.5 108.167 38.5 199.5zM628 346
c0 -109.333 -25.001 -196.001 -75.001 -260.001s-119.667 -96 -209 -96c-95.333 0 -168.166 32.833 -218.499 98.5s-75.5 151.834 -75.5 258.501c0 111.333 26.333 198.333 79 261s122.667 94 210 94c94 0 165.667 -33 215 -99s74 -151.667 74 -257z" />
    <glyph glyph-name="P" unicode="P" horiz-adv-x="555" 
d="M407 479c0 39.333 -9.33301 68.333 -28 87c-20.667 22.667 -52.667 34 -96 34h-88v-244h88c42.667 0 74 10 94 30s30 51 30 93zM535 485c0 -66.667 -21.3311 -120.166 -63.998 -160.499s-96 -60.5 -160 -60.5h-116v-264h-115v692h184
c49.333 0 86.166 -2.33301 110.499 -7s46.166 -13.334 65.499 -26.001c63.333 -37.333 95 -95.333 95 -174z" />
    <glyph glyph-name="Q" unicode="Q" horiz-adv-x="680" 
d="M500 339c0 93.333 -12 162.499 -36 207.499s-65 67.5 -123 67.5c-56.667 0 -98 -21.333 -124 -64s-39 -108 -39 -196c0 -100 13.833 -171 41.5 -213s69.5 -63 125.5 -63c52 0 90.833 20.333 116.5 61s38.5 107.334 38.5 200.001zM671 -116.001
c-18 -7.33301 -35.998 -10.998 -53.998 -10.998c-39.333 0 -84 16.667 -134 50c-46 31.333 -93.667 53.666 -143 66.999c-93.333 0 -165 33 -215 99s-75 152 -75 258c0 112 26.167 199.167 78.5 261.5s122.166 93.5 209.499 93.5c92.667 0 164.167 -32 214.5 -96
s75.5 -151 75.5 -261c0 -153.333 -47.333 -259.333 -142 -318c19.333 -8.66699 44.666 -22.334 75.999 -41.001c32 -19.333 64.333 -29 97 -29c14.667 0 29 1.33301 43 4z" />
    <glyph glyph-name="R" unicode="R" horiz-adv-x="573" 
d="M396 494c0 36.667 -10.667 63.5 -32 80.5s-57.333 25.5 -108 25.5h-61v-220h57c56 0 93.667 9.66699 113 29c20.667 20.667 31 49 31 85zM416 0l-60.0029 106.999c-43.333 76.667 -82.666 133.667 -117.999 171c-13.333 13.333 -27.666 20.333 -42.999 21v-299h-115v692
h211c74 0 130 -18.667 168 -56s57 -84.666 57 -141.999c0 -52 -15.667 -96.667 -47 -134s-73 -56 -125 -56c20.667 -11.333 56.334 -57.333 107.001 -138l102 -166h-137z" />
    <glyph glyph-name="S" unicode="S" horiz-adv-x="587" 
d="M542 212c0 -61.333 -24 -113.666 -72 -156.999s-114 -65 -198 -65c-82.667 0 -158.334 20.667 -227.001 62l44 89c66.667 -38 129 -57 187 -57c42.667 0 76 9.66699 100 29s36 46.333 36 81c0 46.667 -34.333 79.667 -103 99l-74 21c-64 19.333 -108.667 47 -134 83
c-19.333 29.333 -29 62.666 -29 99.999c0 61.333 21.667 110.833 65 148.5s100 56.5 170 56.5c83.333 0 156.333 -22 219 -66l-52 -81c-61.333 35.333 -115.666 53 -162.999 53c-34 0 -61.333 -8.5 -82 -25.5s-31 -39.833 -31 -68.5c0 -21.333 6.83301 -38.166 20.5 -50.499
s37.5 -23.5 71.5 -33.5l82 -24c52.667 -15.333 94.167 -39.333 124.5 -72s45.5 -73.334 45.5 -122.001z" />
    <glyph glyph-name="T" unicode="T" horiz-adv-x="474" 
d="M479 596h-174v-596h-115v596h-175v96h479z" />
    <glyph glyph-name="U" unicode="U" horiz-adv-x="629" 
d="M554 196c0 -64.667 -20.999 -115.167 -62.999 -151.5s-101 -54.5 -177 -54.5c-84.667 0 -145.667 18.833 -183 56.5s-56 87.167 -56 148.5v497h115v-463c0 -52 9.66699 -88.5 29 -109.5s50.666 -31.5 93.999 -31.5c84 0 126 47 126 141v463h115v-496z" />
    <glyph glyph-name="V" unicode="V" horiz-adv-x="558" 
d="M330 -3l-107.001 -0.000976562l-233 695h126l125 -392c16 -49.333 28 -95.666 36 -138.999h1c14.667 56 28.334 102.333 41.001 139l129 392h120z" />
    <glyph glyph-name="W" unicode="W" horiz-adv-x="816" 
d="M647 -4h-132l-71 321c-12 50.667 -23.333 117.334 -34 200.001h-2c-0.666992 -5.33301 -3.5 -21.833 -8.5 -49.5l-15 -84c-5 -28.333 -9.16699 -49.5 -12.5 -63.5l-67 -324h-135l-165 696h123l69 -322c15.333 -70.667 27.666 -144.334 36.999 -221.001h2
c13.333 87.333 26.333 158.333 39 213l72 330h129l72 -344c12.667 -54 24 -119 34 -195h2c14.667 94 28.334 169 41.001 225l66 314h120z" />
    <glyph glyph-name="X" unicode="X" horiz-adv-x="540" 
d="M412 0l-143 274l-138 -274h-141l212 371l-186 321h140l111 -214l109 214h136l-176 -313l214 -379h-138z" />
    <glyph glyph-name="Y" unicode="Y" horiz-adv-x="518" 
d="M119 692l107 -223c5.33301 -9.33301 16.666 -37 33.999 -83c20.667 49.333 33.334 78.333 38.001 87l106 219h134l-223 -413v-279h-115v280l-220 412h139z" />
    <glyph glyph-name="Z" unicode="Z" horiz-adv-x="531" 
d="M462 0l-422 0.000976562v84l270 449c25.333 40 40.666 63 45.999 69c-22 -2.66699 -47 -4 -75 -4h-228l26 94h406v-87l-269 -454c-9.33301 -16.667 -22.666 -36.334 -39.999 -59.001c20 1.33301 43 2 69 2h246z" />
    <glyph glyph-name="bracketleft" unicode="[" horiz-adv-x="289" 
d="M80 -155v888h189v-76h-91v-738h91v-74h-189z" />
    <glyph glyph-name="backslash" unicode="\" horiz-adv-x="410" 
d="M308 -49l-298 776l91 31l299 -777z" />
    <glyph glyph-name="bracketright" unicode="]" horiz-adv-x="289" 
d="M20 -155v74h91v738h-91v76h189v-888h-189z" />
    <glyph glyph-name="asciicircum" unicode="^" horiz-adv-x="600" 
d="M438 318l-138 286l-138 -286h-112l194 390h112l194 -390h-112z" />
    <glyph glyph-name="underscore" unicode="_" horiz-adv-x="500" 
d="M0 -125v50h500v-50h-500z" />
    <glyph glyph-name="grave" unicode="`" horiz-adv-x="314" 
d="M250 560l-220 102l50 93l204 -132z" />
    <glyph glyph-name="a" unicode="a" horiz-adv-x="515" 
d="M327 238c-8 0.666992 -14.667 0.999023 -20 0.999023c-52.667 0 -89.667 -7.66699 -111 -23s-32 -39.666 -32 -72.999c0 -24 6.16699 -42.667 18.5 -56s29.5 -20 51.5 -20c36 0 66.333 17 91 51zM421 -21.001c-34 13.333 -57.002 36 -69.002 68
c-34.667 -40 -81 -60 -139 -60c-56 0 -98 13.5 -126 40.5s-42 63.5 -42 109.5c0 117.333 83.333 176 250 176h34v27c0 32 -4.66699 54.833 -14 68.5s-28 20.5 -56 20.5c-21.333 0 -44.666 -4.83301 -69.999 -14.5s-45 -19.167 -59 -28.5l-22 -15l-49 79
c72.667 46 144.334 69 215.001 69c80 0 131.333 -28 154 -84c5.33301 -15.333 8 -40.666 8 -75.999v-48l-2 -145c0 -36 2.5 -61.333 7.5 -76s17.167 -28.334 36.5 -41.001z" />
    <glyph glyph-name="b" unicode="b" horiz-adv-x="557" 
d="M385 260c0 52 -7 92.667 -21 122s-39.333 44 -76 44c-38.667 0 -71.667 -17 -99 -51v-249c29.333 -29.333 61.666 -44 96.999 -44c34.667 0 59.834 13.833 75.501 41.5s23.5 73.167 23.5 136.5zM507 262c0 -81.333 -18.833 -147.168 -56.5 -197.501
s-86.167 -75.5 -145.5 -75.5c-51.333 0 -92.333 19.333 -123 58c-4 -21.333 -8.66699 -37 -14 -47h-101c8.66699 26 13 63.667 13 113v477c0 54.667 -4.33301 95.334 -13 122.001l114 25c5.33301 -27.333 8 -61 8 -101v-117l-3 -48l4 -1c32.667 32.667 72.667 49 120 49
c60 0 107.833 -23.167 143.5 -69.5s53.5 -108.833 53.5 -187.5z" />
    <glyph glyph-name="c" unicode="c" horiz-adv-x="457" 
d="M427 54c-44.667 -44.667 -98.666 -67 -161.999 -67c-69.333 0 -122.5 22.667 -159.5 68s-55.5 109.333 -55.5 192c0 86.667 21.833 153.667 65.5 201s96.167 71 157.5 71c29.333 0 54.5 -4 75.5 -12s42.5 -22.333 64.5 -43l-55 -73c-29.333 26 -57.666 39 -84.999 39
c-36.667 0 -63.334 -17 -80.001 -51c-14 -28.667 -21 -75.667 -21 -141c0 -67.333 11.333 -113.333 34 -138c17.333 -19.333 39.666 -29 66.999 -29c34.667 0 68.667 16.667 102 50z" />
    <glyph glyph-name="d" unicode="d" horiz-adv-x="555" 
d="M366 386c-26 27.333 -56.667 41.001 -92 41.001c-26 0 -47 -8 -63 -24c-26 -26 -39 -77 -39 -153c0 -72.667 11.333 -120.334 34 -143.001c16.667 -16.667 39 -25 67 -25c40.667 0 71.667 16 93 48v256zM390 0.000976562c-5.33301 12 -8.33301 25 -9 39
c-33.333 -33.333 -74.666 -50 -123.999 -50c-56 0 -101.333 17.333 -136 52c-47.333 46 -71 116 -71 210c0 94.667 26 166.667 78 216c37.333 35.333 82 53 134 53c43.333 0 78.666 -15.333 105.999 -46l2 1c-2.66699 15.333 -4 29.333 -4 42v40v180l109 -17v-544
c0 -93.333 5.33301 -152 16 -176h-101z" />
    <glyph glyph-name="e" unicode="e" horiz-adv-x="513" 
d="M359 306c0 41.333 -8.16797 73.5 -24.501 96.5s-38.5 34.5 -66.5 34.5c-31.333 0 -55.166 -11.333 -71.499 -34s-24.5 -55 -24.5 -97h187zM170.999 224l0.000976562 -9.00098c0 -41.333 9.5 -75.666 28.5 -102.999s51.167 -41 96.5 -41c44.667 0 86.667 16.667 126 50
l43 -67c-52.667 -44.667 -113.334 -67 -182.001 -67c-71.333 0 -128 23.833 -170 71.5s-63 112.5 -63 194.5c0 83.333 21 149.333 63 198c39.333 45.333 91 68 155 68c54.667 0 101 -17.333 139 -52c44 -40 66 -113.333 66 -220v-23h-302z" />
    <glyph glyph-name="f" unicode="f" horiz-adv-x="307" 
d="M311 635c-23.333 12 -43.001 18.001 -59.001 18.001c-18.667 0 -33.667 -5.33301 -45 -16c-12.667 -12.667 -19 -33.334 -19 -62.001v-69h132l-28 -76h-103v-430h-109v430h-47v76h46c-1.33301 20 -2 36.333 -2 49c0 64 13.667 110 41 138c28 28 66.667 42 116 42
c40.667 0 78.334 -9.66699 113.001 -29z" />
    <glyph glyph-name="g" unicode="g" horiz-adv-x="536" 
d="M340 349c0 28.667 -7.33301 50.333 -22 65s-36.334 22 -65.001 22c-28 0 -49.667 -7.66699 -65 -23c-14.667 -15.333 -22 -37 -22 -65c0 -28.667 7.66699 -50.334 23 -65.001c14.667 -14 36 -21 64 -21c28.667 0 50.334 7.33301 65.001 22s22 36.334 22 65.001z
M551 457.999c-25.333 -22 -54.6689 -33.001 -88.002 -33.001c-12.667 0 -25.667 2 -39 6v1c22 -26.667 33 -56.334 33 -89.001c0 -40.667 -13.667 -74.667 -41 -102c-37.333 -37.333 -87.666 -55.333 -150.999 -54c-13.333 -4.66699 -27.666 -11.334 -42.999 -20.001
c-16.667 -10.667 -25 -20 -25 -28c0 -5.33301 1.66699 -9.66602 5 -12.999c4 -4 19 -6.33301 45 -7l52 -1c72 0 123.667 -15.667 155 -47c24.667 -24.667 37 -57 37 -97c0 -43.333 -14 -79 -42 -107c-39.333 -39.333 -101 -59 -185 -59c-90 0 -153.667 18.667 -191 56
c-22 22 -33 49.333 -33 82c0 20.667 3.33301 38.667 10 54h97c-1.33301 -9.33301 -2 -17.666 -2 -24.999c0 -24.667 7 -44 21 -58c18 -17.333 48 -26 90 -26c48 0 82.333 11 103 33c12 13.333 18 28.666 18 45.999c0 18 -5.66699 32.667 -17 44
c-12.667 12.667 -36.667 20.667 -72 24c-21.333 1.33301 -37 2 -47 2h-32c-6 0 -16.333 0.666992 -31 2c-36.667 2.66699 -66.334 11.667 -89.001 27c-12 12 -18 27.333 -18 46c0 20.667 6.66699 37.667 20 51c14.667 14.667 40 27.334 76 38.001
c-8 2 -15.833 4.66699 -23.5 8s-14.5 6.83301 -20.5 10.5s-11 7 -15 10l-11 8.5c-3.33301 2.66699 -5.33301 4.33398 -6 5.00098c-26 26 -39 60 -39 102c0 42.667 14 79.667 42 111c36.667 40 89.667 60 159 60c32 0 65.667 -5.33301 101 -16
c26.667 -6.66699 45.334 -10 56.001 -10c34.667 0 64.667 11.667 90 35z" />
    <glyph glyph-name="h" unicode="h" horiz-adv-x="564" 
d="M375 0l-0.000976562 345c0 30 -5.16699 51 -15.5 63s-26.5 18 -48.5 18c-41.333 0 -82 -20.667 -122 -62v-364h-109v602c0 47.333 -3.33301 84 -10 110l111 24c6.66699 -27.333 10 -67 10 -119v-107l-2 -57c48.667 44 100.334 66 155.001 66c28.667 0 54 -6 76 -18
s37.667 -26.667 47 -44c11.333 -22 17 -55 17 -99v-358h-109z" />
    <glyph glyph-name="i" unicode="i" horiz-adv-x="271" 
d="M81 0v498l109 20v-518h-109zM209 654c0 -20 -7.16699 -37.167 -21.5 -51.5s-31.833 -21.5 -52.5 -21.5c-20 0 -36.833 7.16699 -50.5 21.5s-20.5 31.5 -20.5 51.5c0 20.667 7 38.167 21 52.5s31.333 21.5 52 21.5c20 0 37 -7 51 -21s21 -31.667 21 -53z" />
    <glyph glyph-name="j" unicode="j" horiz-adv-x="271" 
d="M189 12c0 -68 -12.333 -118.667 -37 -152c-23.333 -29.333 -55 -53.333 -95 -72l-45 64c26 18 43.833 38.5 53.5 61.5s14.5 55.5 14.5 97.5v487l109 20v-506zM208 656c0 -21.333 -7.16699 -39.168 -21.5 -53.501s-31.833 -21.5 -52.5 -21.5c-20 0 -37 7 -51 21
s-21 31.333 -21 52c0 20 7.16699 37.333 21.5 52s31.5 22 51.5 22s37.167 -7.16699 51.5 -21.5s21.5 -31.166 21.5 -50.499z" />
    <glyph glyph-name="k" unicode="k" horiz-adv-x="511" 
d="M80 0v589.001c0 45.333 -3.66699 86 -11 122l110 27c6.66699 -30.667 10 -75.334 10 -134.001v-604h-109zM388 0.000976562l-191 286l150 220h133l-173 -214l214 -292h-133z" />
    <glyph glyph-name="l" unicode="l" horiz-adv-x="272" 
d="M257 1c-20 -8 -42 -12 -66 -12c-21.333 0 -39.5 3.83301 -54.5 11.5s-26 16.167 -33 25.5s-12.5 22 -16.5 38s-6.16699 28 -6.5 36s-0.5 18.667 -0.5 32v431c0 62.667 -3.33301 112 -10 148l110 25c6 -23.333 9 -69.666 9 -138.999v-429c0 -50.667 3.66699 -81 11 -91
c10 -12.667 23 -15.334 39 -8.00098z" />
    <glyph glyph-name="m" unicode="m" horiz-adv-x="798" 
d="M608 0v350c0 29.333 -3.66699 49.333 -11 60s-21 16 -41 16c-28.667 0 -63.667 -19.333 -105 -58v-368h-105v348c0 30 -3.83301 50.5 -11.5 61.5s-21.5 16.5 -41.5 16.5c-34 0 -68.667 -16.667 -104 -50v-376h-109v363c0 58 -6 100.667 -18 128l100 28
c10 -16 16 -37.333 18 -64c41.333 42.667 86 64 134 64c50 0 90.333 -24.667 121 -74c47.333 49.333 97.333 74 150 74c88 0 132 -49.333 132 -148v-371h-109z" />
    <glyph glyph-name="n" unicode="n" horiz-adv-x="542" 
d="M353 0l-0.00195312 338.002c0 34 -4.16699 57.167 -12.5 69.5s-23.166 18.5 -44.499 18.5c-16 0 -34.333 -5.33301 -55 -16s-39.334 -24.334 -56.001 -41.001v-369h-109v372c0 49.333 -6.33301 89.333 -19 120l100 28c12 -22.667 18 -46.334 18 -71.001
c54.667 46.667 106.334 70 155.001 70c40.667 0 72.834 -12 96.501 -36s35.5 -58.667 35.5 -104v-379h-109z" />
    <glyph glyph-name="o" unicode="o" horiz-adv-x="537" 
d="M370 251c0 68 -8.83203 115.999 -26.499 143.999s-43.5 42 -77.5 42c-34.667 0 -59.834 -13.833 -75.501 -41.5s-23.5 -72.5 -23.5 -134.5c0 -71.333 8.5 -121.166 25.5 -149.499s42.5 -42.5 76.5 -42.5c67.333 0 101 60.667 101 182zM492.001 251.999
c0 -82 -20.167 -146.668 -60.5 -194.001s-94.833 -71 -163.5 -71s-123 23.833 -163 71.5s-60 112.5 -60 194.5c0 80.667 20 145.167 60 193.5s93.667 72.5 161 72.5c70.667 0 126 -24.167 166 -72.5s60 -113.166 60 -194.499z" />
    <glyph glyph-name="p" unicode="p" horiz-adv-x="550" 
d="M186 125c32.667 -30 66.333 -45 101 -45c22 0 40.667 7 56 21c29.333 28 44 78.667 44 152c0 75.333 -11.667 125.333 -35 150c-14 15.333 -33 23 -57 23c-38 0 -74.333 -17.333 -109 -52v-249zM170.999 519c5.33301 -24.667 8 -44.6689 8 -60.002
c34.667 40 79.667 60 135 60c49.333 0 90.333 -16.333 123 -49c45.333 -45.333 68 -115.666 68 -210.999c0 -101.333 -24.333 -175.666 -73 -222.999c-34 -32.667 -77.333 -49 -130 -49c-43.333 0 -83 14 -119 42c2 -15.333 3 -38.333 3 -69v-148l-106 -27v590
c0 53.333 -3.33301 95.333 -10 126z" />
    <glyph glyph-name="q" unicode="q" horiz-adv-x="555" 
d="M369 376c-24.667 33.333 -57.333 50 -98 50c-68.667 0 -103 -55 -103 -165c0 -66.667 9 -113.5 27 -140.5s44.333 -40.5 79 -40.5c18.667 0 36.5 5.16699 53.5 15.5s30.833 23.5 41.5 39.5v241zM487.001 506c-8 -31.333 -11.999 -79.332 -11.999 -143.999v-551l-106 -27
v187l2 67c-34 -34 -73.667 -51 -119 -51c-57.333 0 -105.333 21.833 -144 65.5s-58 106.5 -58 188.5c0 88 18 156.333 54 205s86 73 150 73c26 0 50.667 -5.5 74 -16.5s41.666 -26.167 54.999 -45.5c0.666992 19.333 3.66699 35.666 9 48.999h95z" />
    <glyph glyph-name="r" unicode="r" horiz-adv-x="340" 
d="M316 410c-12.667 4.66699 -23.333 6.99902 -32 6.99902c-22.667 0 -42.667 -7.16699 -60 -21.5s-29 -32.166 -35 -53.499v-342h-109v357c0 56.667 -6 102 -18 136l101 26c12.667 -23.333 19 -50 19 -80c38.667 54 81.667 81 129 81c14 0 27 -2.66699 39 -8z" />
    <glyph glyph-name="s" unicode="s" horiz-adv-x="474" 
d="M434 158c0 -51.333 -19.002 -92.833 -57.002 -124.5s-87.333 -47.5 -148 -47.5c-62 0 -126.667 18.667 -194 56l39 79c58.667 -35.333 113.334 -53 164.001 -53c24 0 43.667 6.5 59 19.5s23 30.167 23 51.5c0 19.333 -6.5 34.5 -19.5 45.5s-33.833 19.5 -62.5 25.5
l-61 13c-38 8 -67.667 24.167 -89 48.5s-32 54.5 -32 90.5c0 48 17.167 86.167 51.5 114.5s79.833 42.5 136.5 42.5s112.334 -14.667 167.001 -44l-36 -76c-44 25.333 -85.333 38 -124 38c-24 0 -42.833 -5.33301 -56.5 -16s-20.5 -25.667 -20.5 -45c0 -16 5 -28.5 15 -37.5
s27.667 -16.833 53 -23.5l63 -16c86 -22.667 129 -69.667 129 -141z" />
    <glyph glyph-name="t" unicode="t" horiz-adv-x="331" 
d="M311 9c-31.333 -14.667 -64.332 -22.001 -98.999 -22.001c-46 0 -79.5 11.833 -100.5 35.5s-31.5 55.167 -31.5 94.5v313h-56v76h56c0 57.333 1.66699 99 5 125l113 27c-6 -49.333 -9 -100 -9 -152h121l-29 -76h-92v-284c0 -31.333 4.33301 -52.666 13 -63.999
s25 -17 49 -17c13.333 0 28.666 3.33301 45.999 10z" />
    <glyph glyph-name="u" unicode="u" horiz-adv-x="542" 
d="M417 -16c-20.667 14.667 -35.332 36.334 -43.999 65.001c-37.333 -41.333 -85.333 -62 -144 -62c-57.333 0 -99.333 16.667 -126 50c-18.667 22.667 -28 62.667 -28 120v341l109 20v-339c0 -36 4.83301 -63.167 14.5 -81.5s28.5 -27.5 56.5 -27.5
c18.667 0 37.667 6.5 57 19.5s33 28.5 41 46.5v362l109 20v-381c0 -22.667 2.66699 -42.334 8 -59.001s10.666 -28 15.999 -34l7 -8z" />
    <glyph glyph-name="v" unicode="v" horiz-adv-x="473" 
d="M284 -2h-97l-182 504l113 16l88 -273c8 -24 18.333 -61.667 31 -113h1c8 38.667 18.333 77.667 31 117l84 257h115z" />
    <glyph glyph-name="w" unicode="w" horiz-adv-x="698" 
d="M545 -2l-103.001 0.000976562l-62 233c-7.33301 27.333 -18.333 73.333 -33 138h-1c-20.667 -88 -32 -135.667 -34 -143l-61 -228h-103l-138 501l109 15l55 -245c10 -43.333 18.333 -87.666 25 -132.999h2c2.66699 13.333 13 58.666 31 135.999l65 234h108l57 -228
c11.333 -44 22.333 -92 33 -144h1c8.66699 51.333 17.334 96.666 26.001 135.999l52 236h114z" />
    <glyph glyph-name="x" unicode="x" horiz-adv-x="477" 
d="M349 0c-27.333 42.667 -64 105.67 -110 189.003c-10 -19.333 -28.5 -52.5 -55.5 -99.5s-45.167 -76.833 -54.5 -89.5h-139l188 274l-146 217l119 24c32 -50.667 62.667 -105.334 92 -164.001c8.66699 19.333 22.5 47.666 41.5 84.999s31.833 60.666 38.5 69.999h128
l-149 -230l185 -276h-138z" />
    <glyph glyph-name="y" unicode="y" horiz-adv-x="483" 
d="M478 506l-187.001 -540.001c-20 -57.333 -43 -99 -69 -125c-24.667 -25.333 -64.667 -44.333 -120 -57l-36 71c40 10.667 68 25.334 84 44.001c22.667 22.667 40.334 56.334 53.001 101.001h-35c-6.66699 26 -21 73.667 -43 143l-120 355l112 19l93 -308
c1.33301 -4.66699 10.333 -42.334 27 -113.001h2c8.66699 38.667 21 84 37 136l84 274h118z" />
    <glyph glyph-name="z" unicode="z" horiz-adv-x="459" 
d="M392 0h-357v73l254 355h-234v78h358v-78l-240 -350h251z" />
    <glyph glyph-name="braceleft" unicode="{" horiz-adv-x="348" 
d="M238 -155c-33.333 0 -61.333 11.6689 -84 35.002s-34 57.333 -34 102v174c0 29.333 -11.167 51.166 -33.5 65.499s-44.5 21.5 -66.5 21.5v91c21.333 0 43.333 7.5 66 22.5s34 36.833 34 65.5v175c0 44 11.167 77.667 33.5 101s50.5 35 84.5 35h90v-91h-49
c-24.667 0 -41 -6.5 -49 -19.5s-12 -30.167 -12 -51.5v-168c0 -66.667 -31 -104.334 -93 -113.001v-4c12 -1.33301 22.167 -3.5 30.5 -6.5s17.833 -8.16699 28.5 -15.5s19 -18.5 25 -33.5s9 -33.5 9 -55.5v-168c0 -48 20.333 -72 61 -72h49v-90h-90z" />
    <glyph glyph-name="bar" unicode="|" horiz-adv-x="260" 
d="M80 -207v964h100v-964h-100z" />
    <glyph glyph-name="braceright" unicode="}" horiz-adv-x="348" 
d="M328 243c-22.667 0 -45.001 -7.16699 -67.001 -21.5s-33 -36.166 -33 -65.499v-175c0 -44.667 -11.167 -78.5 -33.5 -101.5s-50.5 -34.5 -84.5 -34.5h-90v90h48c25.333 0 42 6.66699 50 20s12 30.666 12 51.999v167c0 22.667 3 41.5 9 56.5s14.5 26.167 25.5 33.5
s20.667 12.5 29 15.5s18.5 5.16699 30.5 6.5v5c-62.667 5.33301 -94 42.333 -94 111v169c0 21.333 -4 38.5 -12 51.5s-24.667 19.5 -50 19.5h-48v91h91c32.667 0 60.334 -11.667 83.001 -35s34 -57.333 34 -102v-174c0 -28.667 11.167 -50.5 33.5 -65.5
s44.5 -22.5 66.5 -22.5v-91z" />
    <glyph glyph-name="asciitilde" unicode="~" horiz-adv-x="556" 
d="M506 305c-32.667 -58.667 -73.6641 -87.999 -122.997 -87.999c-22 0 -57.667 11 -107 33c-2.66699 1.33301 -8.66699 4.16602 -18 8.49902l-19.5 9c-3.66699 1.66699 -9.5 4.16699 -17.5 7.5s-14.333 5.5 -19 6.5l-16 3.5c-6 1.33301 -11.667 2 -17 2
c-12.667 0 -24.834 -3.66699 -36.501 -11s-20.834 -15.166 -27.501 -23.499s-14.334 -19.5 -23.001 -33.5l-32 84c33.333 58 74.333 87 123 87c24.667 0 60.334 -10.667 107.001 -32c5.33301 -2.66699 14.166 -6.83398 26.499 -12.501l29 -13c7 -3 15.333 -5.83301 25 -8.5
s18.5 -4 26.5 -4c18 0 33.5 6 46.5 18s26.5 28.667 40.5 50z" />
    <glyph glyph-name="uni0080" horiz-adv-x="659" 
d="M456 596l-186.001 -0.000976562v-192c48.667 22 93.667 33 135 33c54 0 98 -15.333 132 -46c41.333 -37.333 62 -96.666 62 -177.999c0 -76.667 -18.333 -135 -55 -175c-31.333 -33.333 -71.666 -50 -120.999 -50c-31.333 0 -64.666 7.33301 -99.999 22l20 83
c19.333 -12 40.666 -18 63.999 -18c22.667 0 39.667 8 51 24c12.667 18.667 19 55.667 19 111c0 52.667 -7.66699 88 -23 106c-16 20.667 -41.667 31 -77 31s-71 -9 -107 -27v-320h-115v596h-165v96h480z" />
    <glyph glyph-name="uni0081" horiz-adv-x="471" 
d="M442 598h-247v-598h-115v692h376zM179 720l-34 63l204 132l50 -93z" />
    <glyph glyph-name="uni0088" horiz-adv-x="627" 
d="M597 30c-45.333 -27.333 -98.332 -41 -158.999 -41c-89.333 0 -162.333 33.333 -219 100c-30.667 38 -52.667 82.667 -66 134h-113v87h101c0 2.66699 -0.166992 7 -0.5 13s-0.5 10.333 -0.5 13c0 12 0.666992 28.667 2 50h-102v87h117c6 23.333 15.667 47.666 29 72.999
c26 50 61.5 89 106.5 117s94.5 42 148.5 42c57.333 0 104.666 -11.333 141.999 -34l-23 -96c-35.333 26 -74.666 39 -117.999 39c-59.333 0 -105.333 -27.667 -138 -83c-8.66699 -16 -16.334 -35.333 -23.001 -58h222v-87h-234c-0.666992 -4 -1 -10 -1 -18v-19
c0 -5.33301 0.166992 -12.166 0.5 -20.499s0.5 -14.5 0.5 -18.5h234v-87h-224c4 -16 9.33301 -31.333 16 -46c30 -65.333 81.333 -98 154 -98c46 0 87.333 14.667 124 44z" />
    <glyph glyph-name="uni008D" horiz-adv-x="610" 
d="M577 622l-31.998 -7.99902c-14.667 -0.666992 -27.667 -6.66699 -39 -18s-18.333 -26 -21 -44l-18 -72c-9.33301 -38.667 -23 -66.667 -41 -84c-13.333 -12.667 -29.666 -22 -48.999 -28v-2c15.333 -5.33301 29.666 -13.666 42.999 -24.999
c20.667 -18 35.334 -44.333 44.001 -79l31 -111c7.33301 -26.667 15 -43 23 -49c8.66699 -8.66699 22.667 -15.667 42 -21l30 -9l-21 -81l-38 4c-49.333 4.66699 -86 17.667 -110 39c-5.33301 5.33301 -9.83301 10.833 -13.5 16.5s-6.83398 12 -9.50098 19
s-4.5 12.833 -5.5 17.5l-4.5 20c-2 8.66699 -3.33301 14.334 -4 17.001l-23 106c-8 33.333 -18.667 56 -32 68c-15.333 14 -38 21 -68 21h-66v-319h-115v692h115v-279h76c31.333 0 54.666 7.33301 69.999 22c10.667 10.667 20 32.334 28 65.001l19 84
c8 36.667 20.333 63 37 79c3.33301 3.33301 6.5 6.16602 9.5 8.49902s6.83301 4.5 11.5 6.5s8.16699 3.66699 10.5 5s6.66602 2.66602 12.999 3.99902s10.5 2.16602 12.5 2.49902s7.33301 1.16602 16 2.49902s14 2.33301 16 3l41 6zM239.002 720.001l-34 63l204 132l50 -93z
" />
    <glyph glyph-name="uni008E" horiz-adv-x="653" 
d="M456 596h-185.999v-193c49.333 22.667 97 34 143 34c51.333 0 96.333 -15 135 -45c30 -28.667 45 -68.667 45 -120v-272h-115v241c0 36.667 -8.33301 63.667 -25 81c-16.667 16.667 -40.334 25 -71.001 25c-34 0 -71.333 -9 -112 -27v-320h-115v596h-165v96h481z" />
    <glyph glyph-name="uni008F" horiz-adv-x="615" 
d="M195 692v-598h225v598h115v-692h-173v-176h-108v176h-174v692h115z" />
    <glyph glyph-name="uni0090" horiz-adv-x="579" 
d="M386 620l-22.998 -64h-159v-58l-3 -54c46.667 42 99.334 63 158.001 63c46.667 0 81.667 -12.667 105 -38s35 -63.666 35 -114.999v-286c0 -92.667 -15.333 -160.334 -46 -203.001c-24.667 -35.333 -57.334 -60.333 -98.001 -75l-48 64c22 13.333 39.667 30.333 53 51
c13.333 19.333 21.666 38.5 24.999 57.5s5 44.833 5 77.5v294c0 32 -5.33301 53.333 -16 64s-26.334 16 -47.001 16c-22.667 0 -45 -6.33301 -67 -19c-21.333 -10 -40 -24 -56 -42v-353h-109v556h-55v64h55v117l109 -17v-100h182z" />
    <glyph glyph-name="uni009D" horiz-adv-x="518" 
d="M75 497l109 20.9971v-212h47c27.333 0 46 5 56 15c8.66699 8.66699 15.667 24.334 21 47.001l13 57c5.33301 26 14.333 45.333 27 58c14 15.333 41 25 81 29l37 4l20 -75l-25 -5c-15.333 -5.33301 -24.666 -9.33301 -27.999 -12c-6 -4.66699 -12 -16 -18 -34l-16 -54
c-4.66699 -18.667 -13 -34 -25 -46c-10.667 -10.667 -24 -17.667 -40 -21v-2c12.667 -3.33301 25 -10 37 -20c10.667 -10.667 20.667 -28.667 30 -54l25 -75c5.33301 -15.333 11.666 -26.666 18.999 -33.999c3.33301 -3.33301 7 -6 11 -8s8.5 -3.5 13.5 -4.5
s7.83301 -1.83301 8.5 -2.5l20 -4l-20 -75l-34 3c-16.667 1.33301 -28.667 2.5 -36 3.5s-17 3.66699 -29 8s-22.333 10.5 -31 18.5c-14 14 -24.333 36.333 -31 67l-16 71c-5.33301 24.667 -13 41.334 -23 50.001s-26.333 13 -49 13h-45v-224h-109v497zM189 559.997l-34 63
l204 132l50 -93z" />
    <glyph glyph-name="uni009E" horiz-adv-x="580" 
d="M391 0l0.000976562 334c0 30.667 -5.33301 52 -16 64c-10.667 10.667 -25.667 16 -45 16c-22 0 -45 -6.33301 -69 -19c-20.667 -11.333 -39.667 -25.333 -57 -42v-353h-109v556h-55v64h55v117l109 -17v-100h182l-23 -64h-159v-58l-2 -54c16.667 16 39.667 30.667 69 44
c28 12.667 57 19 87 19c45.333 0 80.666 -12.667 105.999 -38c24 -24 36 -62.333 36 -115v-354h-109z" />
    <glyph glyph-name="uni00A0" unicode="&#xa0;" horiz-adv-x="225" 
 />
    <glyph glyph-name="exclamdown" unicode="&#xa1;" horiz-adv-x="519" 
d="M427 855c-60 -77.333 -116.002 -116 -168.002 -116s-108 38.667 -168 116l33 43c14.667 -14.667 34.834 -29.5 60.501 -44.5s51.834 -22.5 78.501 -22.5c39.333 0 84 22.333 134 67zM229.998 398c23.333 -67.333 37.001 -108.667 41.001 -124c8 34 22.667 81.667 44 143
l93 275h121l-188 -523l-23 -63c-5.33301 -14 -12.333 -28.667 -21 -44s-18 -27.333 -28 -36c-25.333 -23.333 -65.333 -39.333 -120 -48l-29 -4l-21 84l19 5c31.333 6.66699 56.666 19.667 75.999 39c12 13.333 24.333 37.333 37 72l11 32l-56 -7l-196 493h128z" />
    <glyph glyph-name="cent" unicode="&#xa2;" horiz-adv-x="483" 
d="M361 695c-60 -77.333 -116.002 -116 -168.002 -116s-108 38.667 -168 116l33 43c14.667 -14.667 34.834 -29.5 60.501 -44.5s51.834 -22.5 78.501 -22.5c39.333 0 84 22.333 134 67zM429.998 506l-187.001 -540.001c-20 -57.333 -43 -99 -69 -125
c-24.667 -25.333 -64.667 -44.333 -120 -57l-36 71c40 10.667 68 25.334 84 44.001c22.667 22.667 40.334 56.334 53.001 101.001h-35c-6.66699 26 -21 73.667 -43 143l-120 355l112 19l93 -308c1.33301 -4.66699 10.333 -42.334 27 -113.001h2c8.66699 38.667 21 84 37 136
l84 274h118z" />
    <glyph glyph-name="sterling" unicode="&#xa3;" horiz-adv-x="283" 
d="M203 128c0 -55.333 -3 -96 -9 -122s-16.667 -49.667 -32 -71c-27.333 -38 -66.333 -66.333 -117 -85l-54 61c39.333 21.333 66.333 47.333 81 78c10.667 24 16 67 16 129v574h115v-564z" />
    <glyph glyph-name="currency" unicode="&#xa4;" horiz-adv-x="627" 
d="M311 567c-37.333 0 -69.166 -13.333 -95.499 -40s-39.5 -58.334 -39.5 -95.001c0 -37.333 13.167 -69 39.5 -95s58.166 -39 95.499 -39s69.166 13 95.499 39s39.5 57.667 39.5 95c0 36.667 -13.167 68.334 -39.5 95.001s-58.166 40 -95.499 40zM191 603
c34.667 25.333 74.334 38 119.001 38c45.333 0 85.666 -12.667 120.999 -38l99 99l51 -52l-99 -100c24.667 -34.667 37 -74 37 -118s-12.333 -83.333 -37 -118l99 -100l-51 -51l-99 99c-34.667 -25.333 -74.667 -38 -120 -38s-85.333 12.667 -120 38l-100 -99l-51 51l99 100
c-24.667 34.667 -37 74 -37 118s12.333 83.333 37 118l-99 100l51 52z" />
    <glyph glyph-name="yen" unicode="&#xa5;" horiz-adv-x="471" 
d="M80 0v692h272v156h104v-250h-261v-598h-115z" />
    <glyph glyph-name="brokenbar" unicode="&#xa6;" horiz-adv-x="260" 
d="M80 -207v394h100v-394h-100zM80 363v394h100v-394h-100z" />
    <glyph glyph-name="section" unicode="&#xa7;" horiz-adv-x="552" 
d="M398 260c0 33.333 -26.334 62.333 -79.001 87l-95 45c-36.667 -18 -55 -41.333 -55 -70c0 -12.667 2.16699 -23.667 6.5 -33s11.333 -17.666 21 -24.999s17.834 -12.833 24.501 -16.5s16.667 -8.5 30 -14.5l99 -46c32 17.333 48 41.666 48 72.999zM511.999 282
c0 -27.333 -7.83008 -52.498 -23.4971 -75.498s-36.834 -41.5 -63.501 -55.5c41.333 -31.333 62 -72 62 -122c0 -30 -6.83301 -56.667 -20.5 -80s-31.834 -41.833 -54.501 -55.5s-47.167 -24 -73.5 -31s-53.166 -10.5 -80.499 -10.5c-106.667 0 -179.334 41 -218.001 123
l106 51c7.33301 -24.667 21.833 -43.334 43.5 -56.001s46.167 -19 73.5 -19c24.667 0 46.334 5.66699 65.001 17s28 28.666 28 51.999c0 20 -8.83301 36.333 -26.5 49s-42.834 26 -75.501 40c-4.66699 1.33301 -8.33398 2.66602 -11.001 3.99902c-50 21.333 -90 42 -120 62
c-44.667 31.333 -67 72.333 -67 123c0 62.667 31.667 111.334 95 146.001c-47.333 30 -71 69 -71 117c0 52.667 20.5 93.5 61.5 122.5s88.833 43.5 143.5 43.5c44 0 84.667 -8 122 -24s64.666 -41.667 81.999 -77l-104 -59c-8 19.333 -20.833 34.333 -38.5 45
s-37.167 16 -58.5 16c-22 0 -41.167 -5.83301 -57.5 -17.5s-24.5 -28.167 -24.5 -49.5c0 -27.333 18 -50.333 54 -69c66.667 -29.333 100.334 -44.333 101.001 -45c24 -11.333 42.5 -20.833 55.5 -28.5s28.167 -18.334 45.5 -32.001s30 -29.167 38 -46.5
s12 -36.666 12 -57.999z" />
    <glyph glyph-name="dieresis" unicode="&#xa8;" horiz-adv-x="499" 
d="M80 0v692h384l-15 -94h-254v-189h213v-94h-211v-217h277v-98h-394zM232 807c0 -19.333 -6.5 -35.666 -19.5 -48.999s-28.5 -20 -46.5 -20s-33.5 6.66699 -46.5 20s-19.5 29.666 -19.5 48.999s6.5 35.5 19.5 48.5s28.5 19.5 46.5 19.5s33.5 -6.5 46.5 -19.5
s19.5 -29.167 19.5 -48.5zM445 807c0 -19.333 -6.66699 -35.666 -20 -48.999s-29 -20 -47 -20s-33.5 6.66699 -46.5 20s-19.5 29.666 -19.5 48.999s6.5 35.5 19.5 48.5s28.833 19.5 47.5 19.5c18 0 33.5 -6.5 46.5 -19.5s19.5 -29.167 19.5 -48.5z" />
    <glyph glyph-name="copyright" unicode="&#xa9;" horiz-adv-x="840" 
d="M546 179c-32 -26 -70.667 -39 -116 -39c-56.667 0 -102 19.333 -136 58c-33.333 39.333 -50 89 -50 149c0 52 9.33301 95.333 28 130c16 30.667 38.167 54.5 66.5 71.5s59.5 25.5 93.5 25.5c43.333 0 78.333 -11 105 -33l-38 -57c-21.333 15.333 -43.333 23 -66 23
c-32 0 -55.667 -12 -71 -36c-15.333 -23.333 -23 -59 -23 -107c0 -54.667 5.66699 -92 17 -112c17.333 -31.333 44 -47 80 -47c25.333 0 49.333 9 72 27zM706 355c0 82.667 -28 153 -84 211s-123.333 87 -202 87s-145.834 -29 -201.501 -87s-83.5 -128.333 -83.5 -211
s27.833 -153.334 83.5 -212.001s122.834 -88 201.501 -88s146 29.333 202 88s84 129.334 84 212.001zM790 355c0 -103.333 -36.167 -191.166 -108.5 -263.499s-159.5 -108.5 -261.5 -108.5s-189.167 36.167 -261.5 108.5s-108.5 160.166 -108.5 263.499
s36.167 191.166 108.5 263.499s159.5 108.5 261.5 108.5s189.167 -36.167 261.5 -108.5s108.5 -160.166 108.5 -263.499z" />
    <glyph glyph-name="ordfeminine" unicode="&#xaa;" horiz-adv-x="571" 
d="M382 313l-224 0.000976562v-9c0 -86 15 -145.667 45 -179c26.667 -30 66.667 -45 120 -45c57.333 0 107 18 149 54l49 -74c-21.333 -20 -49.333 -36.333 -84 -49c-38 -14 -78 -21 -120 -21c-86.667 0 -155.334 26 -206.001 78c-54 57.333 -81 145.666 -81 264.999
c0 36 1.5 67.833 4.5 95.5s12 60.5 27 98.5s36.167 70.667 63.5 98c53.333 51.333 120.333 77 201 77c70.667 0 132.334 -19 185.001 -57l-51 -78c-37.333 30 -82.333 45 -135 45c-48.667 0 -87 -14 -115 -42c-33.333 -33.333 -50 -86 -50 -158v-9h222v-90z" />
    <glyph glyph-name="guillemotleft" unicode="&#xab;" horiz-adv-x="507" 
d="M181 20l-151 226l151 227l74 -50l-115 -177l115 -176zM403 20l-152 226l152 227l74 -50l-116 -177l116 -176z" />
    <glyph glyph-name="logicalnot" unicode="&#xac;" horiz-adv-x="525" 
d="M368 66v140h-318v93h425v-233h-107z" />
    <glyph glyph-name="uni00AD" unicode="&#xad;" horiz-adv-x="319" 
d="M50 221v102h219v-102h-219z" />
    <glyph glyph-name="registered" unicode="&#xae;" horiz-adv-x="840" 
d="M479 442c0 26 -10 43 -30 51c-12 4 -27.667 6 -47 6h-30v-113h28c32.667 0 53.667 4.66699 63 14c10.667 10.667 16 24.667 16 42zM493 149l-39.001 69c-34.667 64 -57.667 98 -69 102c-4 2 -8.33301 3 -13 3v-174h-82v417h155c37.333 0 67.166 -11.167 89.499 -33.5
s33.5 -51.833 33.5 -88.5c0 -31.333 -9.16699 -58.333 -27.5 -81s-40.166 -34 -65.499 -34c7.33301 -6.66699 13 -12.667 17 -18c6.66699 -8.66699 18.334 -26.5 35.001 -53.5l45 -74.5l20 -34h-99zM705.999 355c0 82.667 -28 153 -84 211s-123.333 87 -202 87
s-145.834 -29 -201.501 -87s-83.5 -128.333 -83.5 -211s27.833 -153.334 83.5 -212.001s122.834 -88 201.501 -88s146 29.333 202 88s84 129.334 84 212.001zM789.999 355c0 -103.333 -36.167 -191.166 -108.5 -263.499s-159.5 -108.5 -261.5 -108.5
s-189.167 36.167 -261.5 108.5s-108.5 160.166 -108.5 263.499s36.167 191.166 108.5 263.499s159.5 108.5 261.5 108.5s189.167 -36.167 261.5 -108.5s108.5 -160.166 108.5 -263.499z" />
    <glyph glyph-name="macron" unicode="&#xaf;" horiz-adv-x="278" 
d="M124 808c0 -19.333 -5.83301 -35.833 -17.5 -49.5s-25.167 -20.5 -40.5 -20.5s-28.666 6.83301 -39.999 20.5s-17 30.167 -17 49.5s5.66699 35.833 17 49.5s24.666 20.5 39.999 20.5s28.833 -6.83301 40.5 -20.5s17.5 -30.167 17.5 -49.5zM269 808
c0 -19.333 -5.66602 -35.833 -16.999 -49.5s-25 -20.5 -41 -20.5c-15.333 0 -28.833 6.83301 -40.5 20.5s-17.5 30.167 -17.5 49.5s5.83301 35.833 17.5 49.5s25.5 20.5 41.5 20.5c15.333 0 28.666 -6.83301 39.999 -20.5s17 -30.167 17 -49.5zM80.001 0v692h118v-692h-118z
" />
    <glyph glyph-name="degree" unicode="&#xb0;" horiz-adv-x="393" 
d="M272 527c0 38 -6.16699 65.667 -18.5 83s-31.833 26 -58.5 26c-50 0 -75 -34.667 -75 -104c0 -38.667 6 -66.667 18 -84s31.667 -26 59 -26c26 0 45 8.5 57 25.5s18 43.5 18 79.5zM363 528c0 -53.333 -14.833 -95.001 -44.5 -125.001s-70.5 -45 -122.5 -45
s-92.667 15.333 -122 46s-44 72.334 -44 125.001c0 52 15.167 93.5 45.5 124.5s70.166 46.5 119.499 46.5c52.667 0 93.834 -15.167 123.501 -45.5s44.5 -72.5 44.5 -126.5z" />
    <glyph glyph-name="plusminus" unicode="&#xb1;" horiz-adv-x="507" 
d="M52 0v100h403v-100h-403zM307 277v-143h-107v143h-150v100h150v137h107v-137h150v-100h-150z" />
    <glyph glyph-name="twosuperior" unicode="&#xb2;" horiz-adv-x="278" 
d="M80 0v692h118v-692h-118z" />
    <glyph glyph-name="threesuperior" unicode="&#xb3;" horiz-adv-x="271" 
d="M81 0v498l109 20v-518h-109zM209 654c0 -20 -7.16699 -37.167 -21.5 -51.5s-31.833 -21.5 -52.5 -21.5c-20 0 -36.833 7.16699 -50.5 21.5s-20.5 31.5 -20.5 51.5c0 20.667 7 38.167 21 52.5s31.333 21.5 52 21.5c20 0 37 -7 51 -21s21 -31.667 21 -53z" />
    <glyph glyph-name="acute" unicode="&#xb4;" horiz-adv-x="423" 
d="M184 0h-109v506h223v144h100v-226h-214v-424z" />
    <glyph glyph-name="paragraph" unicode="&#xb6;" horiz-adv-x="597" 
d="M438 -125l-0.000976562 767h-115v-767h-80v458c-63.333 0 -114.666 17.167 -153.999 51.5s-59 77.833 -59 130.5c0 64 20.333 112.333 61 145s96.667 49 168 49h258v-834h-79z" />
    <glyph glyph-name="periodcentered" unicode="&#xb7;" horiz-adv-x="276" 
d="M216 276c0 -22 -7.66699 -41 -23 -57s-33.666 -24 -54.999 -24c-22 0 -40.5 8 -55.5 24s-22.5 35 -22.5 57c0 22.667 7.66699 41.834 23 57.501s33.666 23.5 54.999 23.5c22 0 40.5 -7.83301 55.5 -23.5s22.5 -34.834 22.5 -57.501z" />
    <glyph glyph-name="cedilla" unicode="&#xb8;" horiz-adv-x="513" 
d="M359 306c0 41.333 -8.16797 73.5 -24.501 96.5s-38.5 34.5 -66.5 34.5c-31.333 0 -55.166 -11.333 -71.499 -34s-24.5 -55 -24.5 -97h187zM170.999 224l0.000976562 -9.00098c0 -41.333 9.5 -75.666 28.5 -102.999s51.167 -41 96.5 -41c44.667 0 86.667 16.667 126 50
l43 -67c-52.667 -44.667 -113.334 -67 -182.001 -67c-71.333 0 -128 23.833 -170 71.5s-63 112.5 -63 194.5c0 83.333 21 149.333 63 198c39.333 45.333 91 68 155 68c54.667 0 101 -17.333 139 -52c44 -40 66 -113.333 66 -220v-23h-302zM232 647.999
c0 -18.667 -6.33301 -34.5 -19 -47.5s-27.667 -19.5 -45 -19.5s-32.166 6.5 -44.499 19.5s-18.5 28.833 -18.5 47.5s6.16699 34.334 18.5 47.001s27.166 19 44.499 19s32.333 -6.33301 45 -19s19 -28.334 19 -47.001zM431 647.999c0 -18.667 -6.33203 -34.5 -18.999 -47.5
s-27.667 -19.5 -45 -19.5s-32.333 6.5 -45 19.5s-19 28.833 -19 47.5s6.33301 34.334 19 47.001s28 19 46 19c17.333 0 32.166 -6.33301 44.499 -19s18.5 -28.334 18.5 -47.001z" />
    <glyph glyph-name="onesuperior" unicode="&#xb9;" horiz-adv-x="978" 
d="M777 634c-16 0 -28.333 -4.33398 -37 -13.001c-14 -13.333 -21 -44.333 -21 -93c0 -49.333 7 -80.666 21 -93.999c8.66699 -8.66699 21 -13 37 -13c16.667 0 29.334 4.33301 38.001 13c14 14 21 45.333 21 94c0 48 -7 79 -21 93c-8.66699 8.66699 -21.334 13 -38.001 13z
M918 527.999c0 -57.333 -14 -100 -42 -128c-24.667 -24.667 -57.334 -37 -98.001 -37c-41.333 0 -74.333 12.333 -99 37c-28 28 -42 70.667 -42 128c0 54.667 14 97 42 127c24.667 24.667 57.667 37 99 37c40.667 0 73.334 -12.333 98.001 -37c28 -30 42 -72.333 42 -127z
M428 -0.000976562l-155.002 325c-20.667 42 -39.334 82.667 -56.001 122c-15.333 34 -26.666 61.667 -33.999 83l-3 -3c4 -45.333 6.33301 -106.666 7 -183.999l4 -343h-111v692h130l168 -338c14.667 -32 29.334 -66 44.001 -102c10.667 -26.667 19 -52 25 -76l3 3
c0 3.33301 -0.666992 15.166 -2 35.499s-2.66602 37.5 -3.99902 51.5c-2.66699 24 -4 60.667 -4 110l-2 316h111v-692h-121zM641.998 201.999v58h271v-58h-271z" />
    <glyph glyph-name="ordmasculine" unicode="&#xba;" horiz-adv-x="467" 
d="M167 219l-0.000976562 -10c0 -55.333 10 -93.333 30 -114c16.667 -17.333 42 -26 76 -26c26.667 0 50.667 6.66699 72 20c0.666992 0.666992 3 2.33398 7 5.00098s9 6.33398 15 11.001s11.667 9.66699 17 15l53 -65c-19.333 -19.333 -40 -34.333 -62 -45
c-31.333 -15.333 -67.666 -23 -108.999 -23c-69.333 0 -122 20 -158 60c-42 44 -63 111.333 -63 202c0 96 24 168 72 216c36 36 85 54 147 54c37.333 0 68.333 -5.66699 93 -17c26 -10.667 48 -24.334 66 -41.001l-53 -66c-11.333 11.333 -24.333 20.666 -39 27.999
c-20 9.33301 -40.333 14 -61 14c-30 0 -54 -9 -72 -27c-20.667 -22 -31 -53.667 -31 -95v-14h145v-82h-145z" />
    <glyph glyph-name="guillemotright" unicode="&#xbb;" horiz-adv-x="508" 
d="M105 20l-75 50l117 176l-117 177l75 50l151 -227zM326 20l-74 50l116 176l-116 177l74 50l152 -227z" />
    <glyph glyph-name="onequarter" unicode="&#xbc;" horiz-adv-x="271" 
d="M189 12c0 -68 -12.333 -118.667 -37 -152c-23.333 -29.333 -55 -53.333 -95 -72l-45 64c26 18 43.833 38.5 53.5 61.5s14.5 55.5 14.5 97.5v487l109 20v-506zM208 656c0 -21.333 -7.16699 -39.168 -21.5 -53.501s-31.833 -21.5 -52.5 -21.5c-20 0 -37 7 -51 21
s-21 31.333 -21 52c0 20 7.16699 37.333 21.5 52s31.5 22 51.5 22s37.167 -7.16699 51.5 -21.5s21.5 -31.166 21.5 -50.499z" />
    <glyph glyph-name="onehalf" unicode="&#xbd;" horiz-adv-x="587" 
d="M542 212c0 -61.333 -24 -113.666 -72 -156.999s-114 -65 -198 -65c-82.667 0 -158.334 20.667 -227.001 62l44 89c66.667 -38 129 -57 187 -57c42.667 0 76 9.66699 100 29s36 46.333 36 81c0 46.667 -34.333 79.667 -103 99l-74 21c-64 19.333 -108.667 47 -134 83
c-19.333 29.333 -29 62.666 -29 99.999c0 61.333 21.667 110.833 65 148.5s100 56.5 170 56.5c83.333 0 156.333 -22 219 -66l-52 -81c-61.333 35.333 -115.666 53 -162.999 53c-34 0 -61.333 -8.5 -82 -25.5s-31 -39.833 -31 -68.5c0 -21.333 6.83301 -38.166 20.5 -50.499
s37.5 -23.5 71.5 -33.5l82 -24c52.667 -15.333 94.167 -39.333 124.5 -72s45.5 -73.334 45.5 -122.001z" />
    <glyph glyph-name="threequarters" unicode="&#xbe;" horiz-adv-x="474" 
d="M434 158c0 -51.333 -19.002 -92.833 -57.002 -124.5s-87.333 -47.5 -148 -47.5c-62 0 -126.667 18.667 -194 56l39 79c58.667 -35.333 113.334 -53 164.001 -53c24 0 43.667 6.5 59 19.5s23 30.167 23 51.5c0 19.333 -6.5 34.5 -19.5 45.5s-33.833 19.5 -62.5 25.5
l-61 13c-38 8 -67.667 24.167 -89 48.5s-32 54.5 -32 90.5c0 48 17.167 86.167 51.5 114.5s79.833 42.5 136.5 42.5s112.334 -14.667 167.001 -44l-36 -76c-44 25.333 -85.333 38 -124 38c-24 0 -42.833 -5.33301 -56.5 -16s-20.5 -25.667 -20.5 -45c0 -16 5 -28.5 15 -37.5
s27.667 -16.833 53 -23.5l63 -16c86 -22.667 129 -69.667 129 -141z" />
    <glyph glyph-name="questiondown" unicode="&#xbf;" horiz-adv-x="271" 
d="M122 648c0 -18 -5.5 -33.668 -16.5 -47.001s-23.833 -20 -38.5 -20c-15.333 0 -28.333 6.5 -39 19.5s-16 28.833 -16 47.5s5.33301 34.334 16 47.001s23.667 19 39 19c14.667 0 27.5 -6.5 38.5 -19.5s16.5 -28.5 16.5 -46.5zM259 647.999
c0 -18.667 -5.33203 -34.5 -15.999 -47.5s-23.667 -19.5 -39 -19.5c-14.667 0 -27.5 6.66699 -38.5 20s-16.5 29 -16.5 47c0 18.667 5.5 34.334 16.5 47.001s24.167 19 39.5 19s28.166 -6.33301 38.499 -19s15.5 -28.334 15.5 -47.001zM81.001 -0.000976562v498l109 20v-518
h-109z" />
    <glyph glyph-name="Agrave" unicode="&#xc0;" horiz-adv-x="577" 
d="M371 278c-34.667 115.333 -62 215.333 -82 300c-20.667 -75.333 -50 -175.333 -88 -300h170zM453 0l-56 182h-224l-56 -182h-119l227 692h133l221 -692h-126z" />
    <glyph glyph-name="Aacute" unicode="&#xc1;" horiz-adv-x="599" 
d="M293 94c43.333 0 76 10.332 98 30.999c20 18.667 30 46.334 30 83.001c0 34.667 -10 62 -30 82s-52.667 30 -98 30h-98v-226h98zM496 691.999l-15 -94.001h-286v-184h96c26 0 47.333 -0.666992 64 -2s39.167 -6.66602 67.5 -15.999s51.833 -23.333 70.5 -42
c37.333 -37.333 56 -88 56 -152c0 -59.333 -16.333 -105.333 -49 -138c-40.667 -42.667 -112 -64 -214 -64h-206v692h416z" />
    <glyph glyph-name="Acircumflex" unicode="&#xc2;" horiz-adv-x="601" 
d="M423 206c0 25.333 -6.00098 47.333 -18.001 66s-27.667 30.667 -47 36c-13.333 4 -34.666 6 -63.999 6h-99v-220h102c42 0 73.5 10.333 94.5 31s31.5 47.667 31.5 81zM401.999 503c0 20 -5.16895 38 -15.502 54s-23.833 27 -40.5 33c-16 5.33301 -37.667 8 -65 8h-86
v-190h95c22.667 0 39.834 1.66699 51.501 5s22.834 10.333 33.501 21c18 20 27 43 27 69zM550.997 196c0 -67.333 -22.666 -116.834 -67.999 -148.501s-112.666 -47.5 -201.999 -47.5h-201v692h183c51.333 0 89.166 -2.33301 113.499 -7s47.166 -13.667 68.499 -27
c52 -33.333 78 -78.666 78 -135.999c0 -76.667 -39.667 -127 -119 -151c98 -24.667 147 -83 147 -175z" />
    <glyph glyph-name="Atilde" unicode="&#xc3;" horiz-adv-x="471" 
d="M442 598h-247v-598h-115v692h376z" />
    <glyph glyph-name="Adieresis" unicode="&#xc4;" horiz-adv-x="636" 
d="M262 520c-5.33301 -82.667 -15.333 -156.333 -30 -221c-22 -81.333 -48 -150.333 -78 -207h271v508h-158zM540 92.001h70.998v-266h-108v174h-390v-174h-108v266h45c38.667 76 68.334 160.667 89.001 254c14.667 64 24.334 153 29.001 267l3 79h369v-600z" />
    <glyph glyph-name="Aring" unicode="&#xc5;" horiz-adv-x="499" 
d="M80 0v692h384l-15 -94h-252v-189h211v-94h-211v-217h277v-98h-394z" />
    <glyph glyph-name="AE" unicode="&#xc6;" horiz-adv-x="891" 
d="M863 623l-32.9893 -8c-14 -3.33301 -26.667 -9.66602 -38 -18.999c-8 -8 -15 -23 -21 -45l-21 -78c-4 -12.667 -7.33301 -22.5 -10 -29.5s-7.33398 -16.333 -14.001 -28s-15 -21.5 -25 -29.5s-22 -14.333 -36 -19v-2c16.667 -6 31 -14.667 43 -26
c18 -17.333 32 -43 42 -77l30 -107c6.66699 -26 15 -44 25 -54s27.333 -18 52 -24l19 -5l-21 -81l-46 5c-16.667 1.33301 -29.5 2.83301 -38.5 4.5s-19 5 -30 10s-20.833 11.833 -29.5 20.5c-18.667 18.667 -32.334 49.667 -41.001 93l-21 99c-6.66699 36 -17 61 -31 75
c-15.333 14 -39 21 -71 21h-44v-319h-115v319h-44c-32 0 -55.667 -7 -71 -21c-14 -14 -24.333 -39 -31 -75l-21 -99c-8.66699 -43.333 -22.334 -74.333 -41.001 -93c-8.66699 -8.66699 -18.5 -15.5 -29.5 -20.5s-21 -8.33301 -30 -10s-21.833 -3.16699 -38.5 -4.5l-46 -5
l-21 81l19 5c24.667 6 42 14 52 24s18.333 28 25 54l30 107c10 34 24 59.667 42 77c11.333 11.333 25.666 20 42.999 26v2c-14 4.66699 -26 11 -36 19s-18.333 17.833 -25 29.5s-11.334 21 -14.001 28s-6 16.833 -10 29.5l-21 78c-6 22 -13 37 -21 45
c-11.333 9.33301 -24 15.666 -38 18.999l-33 8l23 79l38 -6c3.33301 -0.666992 10.166 -1.83398 20.499 -3.50098s17.5 -3 21.5 -4s9.66699 -2.66699 17 -5s13.666 -5.33301 18.999 -9s10.666 -8.16699 15.999 -13.5c14.667 -13.333 25.334 -36 32.001 -68l21 -93
c8.66699 -33.333 18.667 -55.333 30 -66c15.333 -14 36.666 -21 63.999 -21h58v279h115v-279h58c27.333 0 48.666 7 63.999 21c11.333 10.667 21.333 32.667 30 66l21 93c6.66699 32 17.334 54.667 32.001 68c5.33301 5.33301 10.666 9.83301 15.999 13.5
s11.666 6.66699 18.999 9s13 4 17 5s11.167 2.33301 21.5 4s17.166 2.83398 20.499 3.50098l38 6z" />
    <glyph glyph-name="Ccedilla" unicode="&#xc7;" horiz-adv-x="552" 
d="M161 313v88h70c38 0 67.333 9 88 27c20.667 17.333 31 44 31 80c0 32.667 -9.66699 57.334 -29 74.001c-20 20 -49.667 30 -89 30c-28.667 0 -54.334 -5 -77.001 -15c-18.667 -8 -35.667 -18.333 -51 -31l-54 76c24 17.333 52.333 31.666 85 42.999s71.334 17 116.001 17
c64 0 115 -13.667 153 -41c47.333 -34.667 71 -82.334 71 -143.001c0 -47.333 -14.667 -84.666 -44 -111.999c-19.333 -18.667 -43.333 -32.667 -72 -42c42 -8.66699 74.667 -24.667 98 -48c30 -30 45 -69 45 -117c0 -56 -19 -103 -57 -141
c-45.333 -45.333 -112 -68 -200 -68c-54 0 -99.667 7.33301 -137 22c-33.333 13.333 -59.333 27.333 -78 42l53 78c45.333 -34.667 97.333 -52 156 -52c43.333 0 76 10.667 98 32s33 51.333 33 90c0 34.667 -10.333 61.667 -31 81c-22 20 -60.333 30 -115 30h-63z" />
    <glyph glyph-name="Egrave" unicode="&#xc8;" horiz-adv-x="645" 
d="M450 0v397c0 40 2 86.667 6 140c-15.333 -44.667 -32 -84.667 -50 -120l-207 -417h-119v692h115v-401c0 -35.333 -2.33301 -79.333 -7 -132c12 36.667 29.667 78.667 53 126l200 407h124v-692h-115z" />
    <glyph glyph-name="Eacute" unicode="&#xc9;" horiz-adv-x="645" 
d="M479 841c-8 -23.333 -20 -43 -36 -59c-27.333 -29.333 -67 -44 -119 -44c-51.333 0 -92 15.667 -122 47c-14 14 -25.667 32.667 -35 56l57 31c10 -17.333 23 -31 39 -41s36 -15 60 -15s44 5 60 15c16.667 10 29.667 24 39 42zM450 0v397c0 40 2 86.667 6 140
c-15.333 -44.667 -32 -84.667 -50 -120l-207 -417h-119v692h115v-401c0 -35.333 -2.33301 -79.333 -7 -132c12 36.667 29.667 78.667 53 126l200 407h124v-692h-115z" />
    <glyph glyph-name="Ecircumflex" unicode="&#xca;" horiz-adv-x="610" 
d="M577 622l-31.998 -7.99902c-14.667 -0.666992 -27.667 -6.66699 -39 -18s-18.333 -26 -21 -44l-18 -72c-9.33301 -38.667 -23 -66.667 -41 -84c-13.333 -12.667 -29.666 -22 -48.999 -28v-2c15.333 -5.33301 29.666 -13.666 42.999 -24.999
c20.667 -18 35.334 -44.333 44.001 -79l31 -111c7.33301 -26.667 15 -43 23 -49c8.66699 -8.66699 22.667 -15.667 42 -21l30 -9l-21 -81l-38 4c-49.333 4.66699 -86 17.667 -110 39c-5.33301 5.33301 -9.83301 10.833 -13.5 16.5s-6.83398 12 -9.50098 19
s-4.5 12.833 -5.5 17.5l-4.5 20c-2 8.66699 -3.33301 14.334 -4 17.001l-23 106c-8 33.333 -18.667 56 -32 68c-15.333 14 -38 21 -68 21h-66v-319h-115v692h115v-279h76c31.333 0 54.666 7.33301 69.999 22c10.667 10.667 20 32.334 28 65.001l19 84
c8 36.667 20.333 63 37 79c3.33301 3.33301 6.5 6.16602 9.5 8.49902s6.83301 4.5 11.5 6.5s8.16699 3.66699 10.5 5s6.66602 2.66602 12.999 3.99902s10.5 2.16602 12.5 2.49902s7.33301 1.16602 16 2.49902s14 2.33301 16 3l41 6z" />
    <glyph glyph-name="Edieresis" unicode="&#xcb;" horiz-adv-x="594" 
d="M247 486c0 -70.667 -7.99805 -166.331 -23.998 -286.998c-8.66699 -72 -28.334 -123.333 -59.001 -154c-26.667 -26.667 -67.334 -43.334 -122.001 -50.001l-31 -4l-21 81l20 5c26.667 8 47 18.667 61 32c13.333 12.667 24 29.667 32 51s13.167 39.833 15.5 55.5
s5.16602 41.5 8.49902 77.5c8.66699 89.333 14.334 184.666 17.001 285.999l3 113h367v-692h-115v598h-147z" />
    <glyph glyph-name="Igrave" unicode="&#xcc;" horiz-adv-x="816" 
d="M643 0l-32 428.999c-3.33301 48 -5 88 -5 120c-10.667 -49.333 -19.667 -86.333 -27 -111l-126 -438h-98l-115 419c-16 54 -26 97.667 -30 131c0 -21.333 -2.33301 -65.333 -7 -132l-30 -418h-113l63 692h153l106 -392c8 -29.333 16.667 -68.666 26 -117.999
c4.66699 33.333 13 72 25 116l109 394h153l61 -692h-113z" />
    <glyph glyph-name="Iacute" unicode="&#xcd;" horiz-adv-x="626" 
d="M431 0v320h-236v-320h-115v692h115v-278h236v278h115v-692h-115z" />
    <glyph glyph-name="Icircumflex" unicode="&#xce;" horiz-adv-x="678" 
d="M500 340c0 90 -11.833 158.167 -35.5 204.5s-64.834 69.5 -123.501 69.5c-57.333 0 -98.833 -21.833 -124.5 -65.5s-38.5 -108.167 -38.5 -193.5c0 -92.667 13 -162 39 -208s68.333 -69 127 -69c52.667 0 91.834 20.833 117.501 62.5s38.5 108.167 38.5 199.5zM628 346
c0 -109.333 -25.001 -196.001 -75.001 -260.001s-119.667 -96 -209 -96c-95.333 0 -168.166 32.833 -218.499 98.5s-75.5 151.834 -75.5 258.501c0 111.333 26.333 198.333 79 261s122.667 94 210 94c94 0 165.667 -33 215 -99s74 -151.667 74 -257z" />
    <glyph glyph-name="Idieresis" unicode="&#xcf;" horiz-adv-x="606" 
d="M411 0v598h-216v-598h-115v692h446v-692h-115z" />
    <glyph glyph-name="Eth" unicode="&#xd0;" horiz-adv-x="555" 
d="M407 479c0 39.333 -9.33301 68.333 -28 87c-20.667 22.667 -52.667 34 -96 34h-88v-244h88c42.667 0 74 10 94 30s30 51 30 93zM535 485c0 -66.667 -21.3311 -120.166 -63.998 -160.499s-96 -60.5 -160 -60.5h-116v-264h-115v692h184
c49.333 0 86.166 -2.33301 110.499 -7s46.166 -13.334 65.499 -26.001c63.333 -37.333 95 -95.333 95 -174z" />
    <glyph glyph-name="Ntilde" unicode="&#xd1;" horiz-adv-x="567" 
d="M537 51c-52.667 -40.667 -115.668 -61 -189.001 -61c-89.333 0 -162.333 33.333 -219 100c-52.667 63.333 -79 144.666 -79 243.999c0 82.667 15.333 152.334 46 209.001c26 50 61.5 89 106.5 117s94.5 42 148.5 42c72.667 0 130 -18 172 -54l-53 -75
c-35.333 26 -74.666 39 -117.999 39c-59.333 0 -105.333 -27.667 -138 -83c-24 -43.333 -36 -103.666 -36 -180.999c0 -76.667 9 -133.334 27 -170.001c30 -65.333 81.333 -98 154 -98c46 0 87.333 14.667 124 44z" />
    <glyph glyph-name="Ograve" unicode="&#xd2;" horiz-adv-x="474" 
d="M479 596h-174v-596h-115v596h-175v96h479z" />
    <glyph glyph-name="Oacute" unicode="&#xd3;" horiz-adv-x="519" 
d="M230 398c23.333 -67.333 37.001 -108.667 41.001 -124c8 34 22.667 81.667 44 143l93 275h121l-188 -523l-23 -63c-5.33301 -14 -12.333 -28.667 -21 -44s-18 -27.333 -28 -36c-25.333 -23.333 -65.333 -39.333 -120 -48l-29 -4l-21 84l19 5
c31.333 6.66699 56.666 19.667 75.999 39c12 13.333 24.333 37.333 37 72l11 32l-56 -7l-196 493h128z" />
    <glyph glyph-name="Ocircumflex" unicode="&#xd4;" horiz-adv-x="749" 
d="M309 550c-41.333 0 -73.333 -11.332 -96 -33.999c-27.333 -27.333 -41 -79 -41 -155c0 -64.667 13.333 -111.334 40 -140.001c22.667 -23.333 55 -35 97 -35h13v364h-13zM427 186.001l13 -0.000976562c42 0 74.333 11.667 97 35c26.667 28.667 40 75.334 40 140.001
c0 76 -13.667 127.667 -41 155c-22.667 22.667 -54.667 34 -96 34h-13v-364zM317 0v106h-10c-80.667 0 -144 23 -190 69c-44.667 44.667 -67 108.334 -67 191.001c0 88 23 154.333 69 199c43.333 43.333 106.333 65 189 65h9v103h115v-103h9
c82.667 0 145.667 -21.667 189 -65c46 -44.667 69 -111 69 -199c0 -82.667 -22.333 -146.334 -67 -191.001c-46 -46 -109.333 -69 -190 -69h-10v-106h-115z" />
    <glyph glyph-name="Otilde" unicode="&#xd5;" horiz-adv-x="540" 
d="M412 0l-143 274l-138 -274h-141l212 371l-186 321h140l111 -214l109 214h136l-176 -313l214 -379h-138z" />
    <glyph glyph-name="Odieresis" unicode="&#xd6;" horiz-adv-x="631" 
d="M195 692v-598h225v598h115v-598h71v-270h-108v176h-418v692h115z" />
    <glyph glyph-name="multiply" unicode="&#xd7;" horiz-adv-x="580" 
d="M385 0l0.000976562 296.999c-44.667 -21.333 -94.334 -32 -149.001 -32c-60 0 -106 16 -138 48c-28.667 28.667 -43 69.334 -43 122.001v257h115v-225c0 -40 8 -68.333 24 -85c18 -18 44.333 -27 79 -27c36.667 0 74 8 112 24v313h115v-692h-115z" />
    <glyph glyph-name="Oslash" unicode="&#xd8;" horiz-adv-x="885" 
d="M195 94h190v598h115v-598h190v598h115v-692h-725v692h115v-598z" />
    <glyph glyph-name="Ugrave" unicode="&#xd9;" horiz-adv-x="904" 
d="M195 94h191v598h115v-598h191v598h115v-598h72v-270h-108v176h-691v692h115v-598z" />
    <glyph glyph-name="Uacute" unicode="&#xda;" horiz-adv-x="701" 
d="M389 94c52.667 0 90.334 10.667 113.001 32c20.667 20.667 31 48 31 82s-10 61 -30 81c-20.667 20.667 -53.334 31 -98.001 31h-91v-226h75zM199 598h-192.001l-7 94h314v-278h96c77.333 0 136.333 -15.333 177 -46c49.333 -38 74 -92 74 -162
c0 -58.667 -17.667 -105.667 -53 -141c-43.333 -43.333 -112.666 -65 -207.999 -65h-201v598z" />
    <glyph glyph-name="Ucircumflex" unicode="&#xdb;" horiz-adv-x="826" 
d="M270 94c52.667 0 90.333 10.667 113 32c20.667 18.667 31 46.667 31 84c0 34 -10 60.333 -30 79c-22 20.667 -58.333 31 -109 31h-80v-226h75zM745.999 692v-692h-115v692h115zM194.999 692l-0.000976562 -278h90c77.333 0 136.333 -15.333 177 -46
c49.333 -38 74 -92 74 -162c0 -58.667 -17.667 -105.667 -53 -141c-43.333 -43.333 -112.666 -65 -207.999 -65h-195v692h115z" />
    <glyph glyph-name="Udieresis" unicode="&#xdc;" horiz-adv-x="582" 
d="M270 94c52.667 0 90.334 10.667 113.001 32c20.667 20.667 31 48 31 82s-10 61 -30 81c-20.667 20.667 -53.334 31 -98.001 31h-91v-226h75zM80 692h114.999v-278h96c77.333 0 136.333 -15.333 177 -46c49.333 -38 74 -92 74 -162c0 -58.667 -17.667 -105.667 -53 -141
c-43.333 -43.333 -112.666 -65 -207.999 -65h-201v692z" />
    <glyph glyph-name="Yacute" unicode="&#xdd;" horiz-adv-x="575" 
d="M395 408v4.00098c0 75.333 -17 129 -51 161c-26 26 -63.333 39 -112 39c-31.333 0 -58.666 -5 -81.999 -15c-20.667 -8 -39 -18.667 -55 -32l-48 76c19.333 15.333 44.666 29.333 75.999 42c32 12.667 69 19 111 19c80 0 145.667 -25.667 197 -77
c62.667 -62.667 94 -156.334 94 -281.001c0 -120 -29.667 -210.667 -89 -272c-52.667 -54.667 -124.334 -82 -215.001 -82c-44 0 -84.333 7.33301 -121 22c-25.333 10 -48.666 24 -69.999 42l53 80c18 -15.333 36 -27.333 54 -36c25.333 -12 55.333 -18 90 -18
c54 0 94.333 15.667 121 47c32.667 36.667 49 97 49 181v10h-224v90h222z" />
    <glyph glyph-name="Thorn" unicode="&#xde;" horiz-adv-x="913" 
d="M735 346c0 117.333 -19.333 195.333 -58 234c-24 22.667 -55.667 34 -95 34s-71 -11.333 -95 -34s-39.667 -53.5 -47 -92.5s-11 -86.167 -11 -141.5s3.66699 -102.5 11 -141.5s23 -69.833 47 -92.5s55.667 -34 95 -34s71 11.333 95 34c38.667 38.667 58 116.667 58 234z
M306 414c5.33301 88 33.998 159.333 85.998 214c48.667 49.333 111.334 74 188.001 74c77.333 0 140 -24.333 188 -73c63.333 -65.333 95 -159 95 -281c0 -124.667 -33 -220 -99 -286c-50 -48 -111 -72 -183 -72c-74 0 -133.667 22.333 -179 67
c-31.333 30 -55.166 69.167 -71.499 117.5s-24.5 96.833 -24.5 145.5h-111v-320h-115v692h115v-278h111z" />
    <glyph glyph-name="germandbls" unicode="&#xdf;" horiz-adv-x="606" 
d="M328 600c-42.667 0 -74 -10.001 -94 -30.001c-18.667 -17.333 -28 -42.666 -28 -75.999c0 -35.333 10.333 -62.333 31 -81c20.667 -18 55 -27 103 -27h71v214h-83zM411 -0.000976562l0.00195312 294h-55c-42 0 -72 -8.33301 -90 -25c-15.333 -13.333 -27 -38.333 -35 -75
l-15 -72c-9.33301 -43.333 -22.666 -73.666 -39.999 -90.999c-8.66699 -8 -19.334 -14.667 -32.001 -20s-22.334 -8.5 -29.001 -9.5s-18 -2.5 -34 -4.5l-50 -6l-21 81l25 7c18.667 5.33301 34 12.666 46 21.999c11.333 10.667 20.333 28.667 27 54l19 74
c8.66699 34.667 22 61 40 79c15.333 15.333 34.666 26 57.999 32v3c-42 8.66699 -74 24 -96 46c-30.667 30.667 -46 70.667 -46 120c0 51.333 16.667 93 50 125c40 38.667 101.333 58 184 58h209v-692h-115z" />
    <glyph glyph-name="agrave" unicode="&#xe0;" horiz-adv-x="515" 
d="M327 238c-8 0.666992 -14.667 0.999023 -20 0.999023c-52.667 0 -89.667 -7.66699 -111 -23s-32 -39.666 -32 -72.999c0 -24 6.16699 -42.667 18.5 -56s29.5 -20 51.5 -20c36 0 66.333 17 91 51zM421 -21.001c-34 13.333 -57.002 36 -69.002 68
c-34.667 -40 -81 -60 -139 -60c-56 0 -98 13.5 -126 40.5s-42 63.5 -42 109.5c0 117.333 83.333 176 250 176h34v27c0 32 -4.66699 54.833 -14 68.5s-28 20.5 -56 20.5c-21.333 0 -44.666 -4.83301 -69.999 -14.5s-45 -19.167 -59 -28.5l-22 -15l-49 79
c72.667 46 144.334 69 215.001 69c80 0 131.333 -28 154 -84c5.33301 -15.333 8 -40.666 8 -75.999v-48l-2 -145c0 -36 2.5 -61.333 7.5 -76s17.167 -28.334 36.5 -41.001z" />
    <glyph glyph-name="aacute" unicode="&#xe1;" horiz-adv-x="543" 
d="M274 424c-34 0 -59.333 -14 -76 -42c-17.333 -28 -26 -73.333 -26 -136c0 -60.667 8.66699 -105.667 26 -135c16.667 -28 42 -42 76 -42s59.333 14 76 42c17.333 28 26 73 26 135c0 58.667 -8.66699 104 -26 136c-16.667 28 -42 42 -76 42zM481 685
c-8.66699 -6 -27.667 -16 -57 -30c-8.66699 -4 -19.5 -8.5 -32.5 -13.5s-21.833 -8.5 -26.5 -10.5l-131 -54c-54 -23.333 -84 -65.333 -90 -126l-4 -31l5 -1c12.667 22.667 29.334 41.334 50.001 56.001c28 20.667 62 31 102 31c58 0 106 -22.333 144 -67s57 -108 57 -190
c0 -80 -20 -143.667 -60 -191s-95 -71 -165 -71c-68 0 -122 23.667 -162 71c-18 21.333 -31.833 47.166 -41.5 77.499s-15.334 57.333 -17.001 81s-2.5 54.167 -2.5 91.5c0 88.667 8 158 24 208c12.667 39.333 33 73 61 101c30 28 66.333 51 109 69l158 67l39 21z" />
    <glyph glyph-name="acircumflex" unicode="&#xe2;" horiz-adv-x="526" 
d="M184 74l80 -0.000976562c32 0 56 6.66699 72 20c13.333 11.333 20 29 20 53c0 30.667 -8.66699 52.334 -26 65.001c-12.667 10 -34.667 15 -66 15h-80v-153zM184 298.999h71.001c31.333 0 53.666 6.66699 66.999 20c12 12 18 27.667 18 47c0 21.333 -6.33301 38 -19 50
c-12 10.667 -32.667 16 -62 16h-75v-133zM285.001 505.999c60.667 0 104.333 -13.334 131 -40.001c22 -22 33 -51.333 33 -88c0 -30.667 -9.33301 -56.667 -28 -78c-14 -15.333 -30.667 -26 -50 -32c26 -4.66699 48 -16 66 -34c22.667 -22.667 34 -52 34 -88
c0 -44 -13.667 -79 -41 -105c-4 -4 -10 -8.66699 -18 -14s-22.5 -11.166 -43.5 -17.499s-43.5 -9.5 -67.5 -9.5h-226v506h210z" />
    <glyph glyph-name="atilde" unicode="&#xe3;" horiz-adv-x="411" 
d="M184 0h-109v506h316l-13 -82h-194v-424z" />
    <glyph glyph-name="adieresis" unicode="&#xe4;" horiz-adv-x="524" 
d="M219 426l-2 -47c-3.33301 -60 -10.333 -113 -21 -159c-11.333 -45.333 -29.333 -92 -54 -140h190v346h-113zM504 -143h-102v143h-295v-143h-102v223h39c29.333 52 51.333 108.333 66 169c12.667 54.667 19.667 115.667 21 183l2 74h308v-426h63v-223z" />
    <glyph glyph-name="aring" unicode="&#xe5;" horiz-adv-x="513" 
d="M359 306c0 41.333 -8.16797 73.5 -24.501 96.5s-38.5 34.5 -66.5 34.5c-31.333 0 -55.166 -11.333 -71.499 -34s-24.5 -55 -24.5 -97h187zM170.999 224l0.000976562 -9.00098c0 -41.333 9.5 -75.666 28.5 -102.999s51.167 -41 96.5 -41c44.667 0 86.667 16.667 126 50
l43 -67c-52.667 -44.667 -113.334 -67 -182.001 -67c-71.333 0 -128 23.833 -170 71.5s-63 112.5 -63 194.5c0 83.333 21 149.333 63 198c39.333 45.333 91 68 155 68c54.667 0 101 -17.333 139 -52c44 -40 66 -113.333 66 -220v-23h-302z" />
    <glyph glyph-name="ae" unicode="&#xe6;" horiz-adv-x="713" 
d="M411 518l-0.00292969 -212h39c20 0 35.333 5.33301 46 16c8 8 14.333 23.333 19 46l12 56c5.33301 26 15.333 46.333 30 61c16 16 38.667 25 68 27l47 4l20 -75l-26 -5c-13.333 -2.66699 -22.666 -7 -27.999 -13c-5.33301 -4.66699 -10.333 -14.334 -15 -29.001l-18 -58
c-6 -19.333 -14 -34 -24 -44c-6 -6 -20 -13.667 -42 -23v-2c14.667 -4 27.334 -11.333 38.001 -22c11.333 -11.333 21.666 -30.333 30.999 -57l21 -63c6.66699 -20 13.334 -33 20.001 -39c9.33301 -8.66699 23 -14.667 41 -18l13 -3l-20 -75l-38 3
c-43.333 4 -73.333 14 -90 30c-14 13.333 -24.333 35.666 -31 66.999l-12 60c-6.66699 30 -14.667 49.667 -24 59c-10.667 10 -27.667 15 -51 15h-26v-224h-109v224h-26c-23.333 0 -40.333 -5 -51 -15c-9.33301 -9.33301 -17.333 -29 -24 -59l-12 -60
c-6.66699 -31.333 -17 -53.666 -31 -66.999c-16.667 -16 -46.667 -26 -90 -30l-38 -3l-20 75l13 3c18 3.33301 31.667 9.33301 41 18c6.66699 6 13.334 19 20.001 39l21 63c9.33301 26.667 19.666 45.667 30.999 57c10.667 10.667 23.334 18 38.001 22v2
c-22 9.33301 -36 17 -42 23c-10 10 -18 24.667 -24 44l-18 58c-4.66699 14.667 -9.66699 24.334 -15 29.001c-6 6 -15.333 10.333 -28 13l-26 5l20 75l47 -4c29.333 -2 52 -11 68 -27c14.667 -14.667 24.667 -35 30 -61l12 -56c4.66699 -22.667 11 -38 19 -46
c10.667 -10.667 26 -16 46 -16h39v191z" />
    <glyph glyph-name="ccedilla" unicode="&#xe7;" horiz-adv-x="448" 
d="M190 306c30 0 51.6641 6.66602 64.9971 19.999c12 10.667 18 25.334 18 44.001c0 19.333 -5.66699 34 -17 44c-14 14 -35.667 21 -65 21c-20 0 -41.667 -4.33301 -65 -13c-17.333 -8 -32.666 -16.667 -45.999 -26l-44 69c20 15.333 43.333 27.666 70 36.999
c28 11.333 63 17 105 17c61.333 0 107.666 -15 138.999 -45c26 -23.333 39 -54.666 39 -93.999c0 -32 -11.667 -59.667 -35 -83c-13.333 -13.333 -29.666 -23 -48.999 -29c24.667 -6 46 -18 64 -36c22.667 -22.667 34 -51 34 -85c0 -44.667 -15 -81 -45 -109
c-35.333 -34 -86.666 -51 -153.999 -51c-57.333 0 -103.333 10.333 -138 31c-5.33301 3.33301 -20.666 14 -45.999 32l48 71c14.667 -12.667 31.334 -23.667 50.001 -33c24 -11.333 48.667 -17 74 -17c29.333 0 51.666 7 66.999 21c15.333 13.333 23 31.666 23 54.999
c0 22.667 -7 40.334 -21 53.001c-16.667 14.667 -41.667 22 -75 22h-54v84h58z" />
    <glyph glyph-name="egrave" unicode="&#xe8;" 
d="M75 498l109 21v-265c0 -44.667 -1.33301 -82.667 -4 -114h2c17.333 44.667 35.333 84 54 118l135 241l114 20v-519h-109v230c0 48 1.66699 91.667 5 131h-2c-15.333 -40.667 -32.333 -78 -51 -112l-139 -249h-114v498z" />
    <glyph glyph-name="eacute" unicode="&#xe9;" 
d="M439 668c-11.333 -31.333 -29.999 -57 -55.999 -77c-26.667 -20.667 -61.334 -31 -104.001 -31s-77.334 10.333 -104.001 31c-26 20 -44.667 45.667 -56 77l55 31c8 -11.333 15 -20.333 21 -27c20.667 -22 49.334 -33 86.001 -33c32.667 0 60 11 82 33
c6 6.66699 13 15.667 21 27zM75.001 498l109 21v-265c0 -44.667 -1.33301 -82.667 -4 -114h2c17.333 44.667 35.333 84 54 118l135 241l114 20v-519h-109v230c0 48 1.66699 91.667 5 131h-2c-15.333 -40.667 -32.333 -78 -51 -112l-139 -249h-114v498z" />
    <glyph glyph-name="ecircumflex" unicode="&#xea;" horiz-adv-x="518" 
d="M75 497l109 20.9971v-212h47c27.333 0 46 5 56 15c8.66699 8.66699 15.667 24.334 21 47.001l13 57c5.33301 26 14.333 45.333 27 58c14 15.333 41 25 81 29l37 4l20 -75l-25 -5c-15.333 -5.33301 -24.666 -9.33301 -27.999 -12c-6 -4.66699 -12 -16 -18 -34l-16 -54
c-4.66699 -18.667 -13 -34 -25 -46c-10.667 -10.667 -24 -17.667 -40 -21v-2c12.667 -3.33301 25 -10 37 -20c10.667 -10.667 20.667 -28.667 30 -54l25 -75c5.33301 -15.333 11.666 -26.666 18.999 -33.999c3.33301 -3.33301 7 -6 11 -8s8.5 -3.5 13.5 -4.5
s7.83301 -1.83301 8.5 -2.5l20 -4l-20 -75l-34 3c-16.667 1.33301 -28.667 2.5 -36 3.5s-17 3.66699 -29 8s-22.333 10.5 -31 18.5c-14 14 -24.333 36.333 -31 67l-16 71c-5.33301 24.667 -13 41.334 -23 50.001s-26.333 13 -49 13h-45v-224h-109v497z" />
    <glyph glyph-name="edieresis" unicode="&#xeb;" horiz-adv-x="529" 
d="M454 506l-0.000976562 -506h-109v424h-114l-4 -55c-0.666992 -10 -2 -28.167 -4 -54.5s-3.66699 -47.166 -5 -62.499c-6 -54.667 -11 -97.667 -15 -129c-6 -41.333 -19 -72 -39 -92c-22.667 -20.667 -57.667 -33.334 -105 -38.001l-27 -3l-22 75l22 5
c20.667 5.33301 37 14 49 26c6 6 11 12.833 15 20.5s7.16699 17.167 9.5 28.5s4 20.833 5 28.5s2.33301 19.834 4 36.501s2.83398 28.667 3.50098 36c2.66699 20 4.66699 38.667 6 56s2.5 36.166 3.5 56.499s2.16699 37.833 3.5 52.5l6 95h317z" />
    <glyph glyph-name="igrave" unicode="&#xec;" horiz-adv-x="685" 
d="M234 506l81.001 -266c13.333 -42 22 -73 26 -93c4 16 12.667 46.333 26 91l83 268h134l51 -506h-103l-25 295c-1.33301 22.667 -2 51 -2 85h-4c-7.33301 -35.333 -14 -61.333 -20 -78l-99 -302h-87l-92 293c-10.667 32 -18.334 61 -23.001 87h-4v-17v-22
c0 -16 -0.666992 -30 -2 -42l-23 -299h-101l50 506h134z" />
    <glyph glyph-name="iacute" unicode="&#xed;" horiz-adv-x="539" 
d="M184 0h-109v497l109 21v-208h171v187l109 21v-518h-109v228h-171v-228z" />
    <glyph glyph-name="icircumflex" unicode="&#xee;" horiz-adv-x="537" 
d="M370 251c0 68 -8.83203 115.999 -26.499 143.999s-43.5 42 -77.5 42c-34.667 0 -59.834 -13.833 -75.501 -41.5s-23.5 -72.5 -23.5 -134.5c0 -71.333 8.5 -121.166 25.5 -149.499s42.5 -42.5 76.5 -42.5c67.333 0 101 60.667 101 182zM492.001 251.999
c0 -82 -20.167 -146.668 -60.5 -194.001s-94.833 -71 -163.5 -71s-123 23.833 -163 71.5s-60 112.5 -60 194.5c0 80.667 20 145.167 60 193.5s93.667 72.5 161 72.5c70.667 0 126 -24.167 166 -72.5s60 -113.166 60 -194.499z" />
    <glyph glyph-name="idieresis" unicode="&#xef;" horiz-adv-x="530" 
d="M75 0v506h380v-506h-109v424h-162v-424h-109z" />
    <glyph glyph-name="eth" unicode="&#xf0;" horiz-adv-x="550" 
d="M186 125c32.667 -30 66.333 -45 101 -45c22 0 40.667 7 56 21c29.333 28 44 78.667 44 152c0 75.333 -11.667 125.333 -35 150c-14 15.333 -33 23 -57 23c-38 0 -74.333 -17.333 -109 -52v-249zM170.999 519c5.33301 -24.667 8 -44.6689 8 -60.002
c34.667 40 79.667 60 135 60c49.333 0 90.333 -16.333 123 -49c45.333 -45.333 68 -115.666 68 -210.999c0 -101.333 -24.333 -175.666 -73 -222.999c-34 -32.667 -77.333 -49 -130 -49c-43.333 0 -83 14 -119 42c2 -15.333 3 -38.333 3 -69v-148l-106 -27v590
c0 53.333 -3.33301 95.333 -10 126z" />
    <glyph glyph-name="ntilde" unicode="&#xf1;" horiz-adv-x="457" 
d="M427 54c-44.667 -44.667 -98.666 -67 -161.999 -67c-69.333 0 -122.5 22.667 -159.5 68s-55.5 109.333 -55.5 192c0 86.667 21.833 153.667 65.5 201s96.167 71 157.5 71c29.333 0 54.5 -4 75.5 -12s42.5 -22.333 64.5 -43l-55 -73c-29.333 26 -57.666 39 -84.999 39
c-36.667 0 -63.334 -17 -80.001 -51c-14 -28.667 -21 -75.667 -21 -141c0 -67.333 11.333 -113.333 34 -138c17.333 -19.333 39.666 -29 66.999 -29c34.667 0 68.667 16.667 102 50z" />
    <glyph glyph-name="ograve" unicode="&#xf2;" horiz-adv-x="380" 
d="M240 0h-109v424h-136v82h390l-14 -82h-131v-424z" />
    <glyph glyph-name="oacute" unicode="&#xf3;" horiz-adv-x="483" 
d="M478 506l-187.001 -540.001c-20 -57.333 -43 -99 -69 -125c-24.667 -25.333 -64.667 -44.333 -120 -57l-36 71c40 10.667 68 25.334 84 44.001c22.667 22.667 40.334 56.334 53.001 101.001h-35c-6.66699 26 -21 73.667 -43 143l-120 355l112 19l93 -308
c1.33301 -4.66699 10.333 -42.334 27 -113.001h2c8.66699 38.667 21 84 37 136l84 274h118z" />
    <glyph glyph-name="ocircumflex" unicode="&#xf4;" horiz-adv-x="739" 
d="M315 398c-23.333 21.333 -47.333 32 -72 32s-44 -10 -58 -30c-16 -22.667 -24 -69 -24 -139c0 -78 7.33301 -128.667 22 -152c14.667 -22.667 35.667 -34 63 -34c26 0 49 9.33301 69 28v295zM424 103c20 -18.667 43 -28 69 -28c27.333 0 48.333 11.333 63 34
c14.667 23.333 22 74 22 152c0 70 -8 116.333 -24 139c-14 20 -33.333 30 -58 30s-48.667 -10.667 -72 -32v-295zM424 482c27.333 24 59.3311 36 95.998 36c48 0 87.667 -19.667 119 -59c36.667 -46.667 55 -112.667 55 -198c0 -90.667 -17 -159.334 -51 -206.001
c-33.333 -45.333 -76.666 -68 -129.999 -68c-35.333 0 -65 10 -89 30v-217h-109v217c-24 -20 -53.667 -30 -89 -30c-53.333 0 -96.666 22.667 -129.999 68c-34 46.667 -51 115.334 -51 206.001c0 85.333 18.333 151.333 55 198c31.333 39.333 71 59 119 59
c36.667 0 68.667 -12 96 -36v230l109 25v-255z" />
    <glyph glyph-name="otilde" unicode="&#xf5;" horiz-adv-x="477" 
d="M349 0c-27.333 42.667 -64 105.67 -110 189.003c-10 -19.333 -28.5 -52.5 -55.5 -99.5s-45.167 -76.833 -54.5 -89.5h-139l188 274l-146 217l119 24c32 -50.667 62.667 -105.334 92 -164.001c8.66699 19.333 22.5 47.666 41.5 84.999s31.833 60.666 38.5 69.999h128
l-149 -230l185 -276h-138z" />
    <glyph glyph-name="odieresis" unicode="&#xf6;" horiz-adv-x="538" 
d="M450 518v-436h63v-225h-102v143h-336v497l109 21v-436h157v415z" />
    <glyph glyph-name="divide" unicode="&#xf7;" horiz-adv-x="489" 
d="M414 518l0.000976562 -518h-109v202c-36.667 -14 -71.334 -21 -104.001 -21c-53.333 0 -93.333 13.333 -120 40c-24 24 -36 59.667 -36 107v169l109 21v-178c0 -28 6.66699 -48.333 20 -61c12 -10.667 30.333 -16 55 -16c28.667 0 54 5.66699 76 17v217z" />
    <glyph glyph-name="oslash" unicode="&#xf8;" horiz-adv-x="753" 
d="M184 518v-436h138v415l109 21v-436h138v415l109 21v-518h-603v497z" />
    <glyph glyph-name="ugrave" unicode="&#xf9;" horiz-adv-x="766" 
d="M184 518v-436h138v415l109 21v-436h138v415l109 21v-436h63v-225h-102v143h-564v497z" />
    <glyph glyph-name="uacute" unicode="&#xfa;" horiz-adv-x="553" 
d="M247 78l63 0.000976562c33.333 0 57.333 7.33301 72 22c13.333 13.333 20 32.666 20 57.999c0 26.667 -7 47 -21 61c-15.333 14.667 -40 22 -74 22h-60v-163zM320 319.001c72 0 124.333 -16.333 157 -49c27.333 -28 41 -65.667 41 -113c0 -46.667 -13 -83.667 -39 -111
c-30 -30.667 -80 -46 -150 -46h-191v424h-129l-9 82h247v-187h73z" />
    <glyph glyph-name="ucircumflex" unicode="&#xfb;" horiz-adv-x="712" 
d="M184 78l57 0.000976562c34 0 58.667 7.33301 74 22c13.333 12 20 31 20 57c0 27.333 -7.66699 48.666 -23 63.999c-13.333 13.333 -37 20 -71 20h-57v-163zM637 518.001v-518h-109v497zM184 518.001v-199h69c72 0 124.333 -16.333 157 -49c27.333 -28 41 -65.667 41 -113
c0 -46.667 -13 -83.667 -39 -111c-30 -30.667 -80 -46 -150 -46h-187v497z" />
    <glyph glyph-name="udieresis" unicode="&#xfc;" horiz-adv-x="490" 
d="M184 78l63 0.000976562c33.333 0 57.333 7.33301 72 22c13.333 13.333 20 32.666 20 57.999c0 26.667 -7 47 -21 61c-15.333 14.667 -40 22 -74 22h-60v-163zM184 518.001v-199h73c72 0 124.333 -16.333 157 -49c27.333 -28 41 -65.667 41 -113
c0 -46.667 -13 -83.667 -39 -111c-30 -30.667 -80 -46 -150 -46h-191v497z" />
    <glyph glyph-name="yacute" unicode="&#xfd;" horiz-adv-x="467" 
d="M155 306h144.999v9c0 41.333 -10.333 73 -31 95c-18 18 -42 27 -72 27c-20.667 0 -41 -4.66699 -61 -14c-14.667 -7.33301 -27.667 -16.666 -39 -27.999l-53 66c18 16.667 40 30.334 66 41.001c24.667 11.333 55.667 17 93 17c62 0 111 -18 147 -54
c48 -48 72 -120 72 -216c0 -90.667 -21 -158 -63 -202c-36 -40 -88.667 -60 -158 -60c-41.333 0 -77.666 7.66699 -108.999 23c-22 10.667 -42.667 25.667 -62 45l53 65c5.33301 -5.33301 11 -10.333 17 -15s11 -8.33398 15 -11.001s6.33301 -4.33398 7 -5.00098
c21.333 -13.333 45.333 -20 72 -20c34 0 59.333 8.66699 76 26c20 20.667 30 58.667 30 114v15h-145v82z" />
    <glyph glyph-name="thorn" unicode="&#xfe;" horiz-adv-x="740" 
d="M379 253c0 -82.667 11.667 -136 35 -160c16 -16 36.333 -24 61 -24s45 8 61 24c23.333 24 35 77.333 35 160s-11.667 136 -35 160c-16 16 -36.333 24 -61 24s-45 -8 -61 -24c-23.333 -24 -35 -77.333 -35 -160zM265 307c2.66699 64 23.667 116 63 156
c37.333 37.333 86.333 56 147 56c62.667 0 113 -19.667 151 -59c46 -46 69 -115.667 69 -209c0 -92 -22 -161.333 -66 -208c-36 -37.333 -85 -56 -147 -56c-66 0 -117.333 19.333 -154 58c-23.333 24.667 -39.833 53.667 -49.5 87s-14.5 64.333 -14.5 93h-80v-225h-109v498
l109 21v-212h81z" />
    <glyph glyph-name="ydieresis" unicode="&#xff;" horiz-adv-x="514" 
d="M267 426c-30.667 0 -52.667 -6.33203 -66 -18.999s-20 -30.334 -20 -53.001c0 -23.333 6.66699 -41.333 20 -54c16.667 -14.667 39 -22 67 -22h62v148h-63zM439 0.000976562l-108.999 0.000976562v200h-46c-24 0 -41.667 -5.33301 -53 -16
c-8 -7.33301 -15.333 -23 -22 -47l-14 -50c-10.667 -32 -20.667 -52.667 -30 -62c-4 -4 -9 -7.83301 -15 -11.5s-11.333 -6.5 -16 -8.5s-10.5 -3.66699 -17.5 -5l-16 -3c-3.66699 -0.666992 -8.83398 -1.5 -15.501 -2.5s-10.667 -1.5 -12 -1.5l-39 -3l-19 75l16 4
c18 5.33301 31 11.333 39 18c8 7.33301 15.333 20.666 22 39.999l15 45c9.33301 22 18 36.667 26 44c12 12 26 19.667 42 23v2c-30 2.66699 -55.667 14.667 -77 36s-32 50.333 -32 87c0 42 13 74.667 39 98c30.667 29.333 79.667 44 147 44h187v-506z" />
    <glyph glyph-name="OE" unicode="&#x152;" horiz-adv-x="933" 
d="M621 94c52.667 0 90.334 10.667 113.001 32c20.667 20.667 31 48 31 82s-10 61 -30 81c-20.667 20.667 -53.334 31 -98.001 31h-91v-226h75zM431 320h-236.001v-320h-115v692h115v-278h236v278h115v-278h96c77.333 0 136.333 -15.333 177 -46c49.333 -38 74 -92 74 -162
c0 -58.667 -17.667 -105.667 -53 -141c-43.333 -43.333 -112.666 -65 -207.999 -65h-201v320z" />
    <glyph glyph-name="oe" unicode="&#x153;" horiz-adv-x="770" 
d="M464 78l63 0.000976562c33.333 0 57.333 7.33301 72 22c13.333 13.333 20 32.666 20 57.999c0 26.667 -7 47 -21 61c-15.333 14.667 -40 22 -74 22h-60v-163zM464 518.001v-199h73c72 0 124.333 -16.333 157 -49c27.333 -28 41 -65.667 41 -113
c0 -46.667 -13 -83.667 -39 -111c-30 -30.667 -80 -46 -150 -46h-191v241h-171v-241h-109v497l109 21v-199h171v178z" />
    <glyph glyph-name="Scaron" unicode="&#x160;" horiz-adv-x="901" 
d="M589 94c52.667 0 90.334 10.667 113.001 32c20.667 20.667 31 48 31 82s-10 61 -30 81c-20.667 20.667 -53.334 31 -98.001 31h-91v-226h75zM399 598l-146.999 0.00292969l-5 -112c0 -70.667 -8 -166.334 -24 -287.001c-8.66699 -72 -28.334 -123.333 -59.001 -154
c-26.667 -26.667 -67.334 -43.334 -122.001 -50.001l-31 -4l-21 81l20 5c26.667 8 47 18.667 61 32c13.333 12.667 24 29.667 32 51s13.167 39.833 15.5 55.5s5.16602 41.5 8.49902 77.5c8.66699 89.333 14.334 184.666 17.001 285.999l3 113h367v-278h96
c77.333 0 136.333 -15.333 177 -46c49.333 -38 74 -92 74 -162c0 -58.667 -17.667 -105.667 -53 -141c-43.333 -43.333 -112.666 -65 -207.999 -65h-201v598z" />
    <glyph glyph-name="scaron" unicode="&#x161;" horiz-adv-x="760" 
d="M454 78l63 0.000976562c33.333 0 57.333 7.33301 72 22c13.333 13.333 20 32.666 20 57.999c0 26.667 -7 47 -21 61c-15.333 14.667 -40 22 -74 22h-60v-163zM527 319.001c72 0 124.332 -16.333 156.999 -49c27.333 -28 41 -65.667 41 -113
c0 -46.667 -13 -83.667 -39 -111c-30 -30.667 -80 -46 -150 -46h-191v424h-114l-4 -55c-0.666992 -10 -2 -28.167 -4 -54.5s-3.66699 -47.166 -5 -62.499c-6 -54.667 -11 -97.667 -15 -129c-6 -41.333 -19 -72 -39 -92c-22.667 -20.667 -57.667 -33.334 -105 -38.001l-27 -3
l-22 75l22 5c20.667 5.33301 37 14 49 26c6 6 11 12.833 15 20.5s7.16699 17.167 9.5 28.5s4 20.833 5 28.5s2.33301 19.834 4 36.501s2.83398 28.667 3.50098 36c2.66699 20 4.66699 38.667 6 56s2.5 36.166 3.5 56.499s2.16699 37.833 3.5 52.5l6 95h317v-187h73z" />
    <glyph glyph-name="Ydieresis" unicode="&#x178;" horiz-adv-x="525" 
d="M450 518v-518h-138v-149h-98v149h-139v497l109 21v-436h157v415z" />
    <glyph glyph-name="florin" unicode="&#x192;" horiz-adv-x="411" 
d="M184 0h-109v506h316l-13 -82h-194v-424zM139 560l-34 63l204 132l50 -93z" />
    <glyph glyph-name="circumflex" unicode="&#x2c6;" horiz-adv-x="627" 
d="M597 30c-45.333 -27.333 -98.332 -41 -158.999 -41c-89.333 0 -162.333 33.333 -219 100c-30.667 38 -52.667 82.667 -66 134h-113v87h101c0 2.66699 -0.166992 7 -0.5 13s-0.5 10.333 -0.5 13c0 12 0.666992 28.667 2 50h-102v87h117c6 23.333 15.667 47.666 29 72.999
c26 50 61.5 89 106.5 117s94.5 42 148.5 42c57.333 0 104.666 -11.333 141.999 -34l-23 -96c-35.333 26 -74.666 39 -117.999 39c-59.333 0 -105.333 -27.667 -138 -83c-8.66699 -16 -16.334 -35.333 -23.001 -58h222v-87h-234c-0.666992 -4 -1 -10 -1 -18v-19
c0 -5.33301 0.166992 -12.166 0.5 -20.499s0.5 -14.5 0.5 -18.5h234v-87h-224c4 -16 9.33301 -31.333 16 -46c30 -65.333 81.333 -98 154 -98c46 0 87.333 14.667 124 44z" />
    <glyph glyph-name="mu" unicode="&#x3bc;" horiz-adv-x="546" 
d="M421 -14c-21.333 16 -36 37 -44 63c-36.667 -42 -84.667 -63 -144 -63c-19.333 0 -34.666 5.66699 -45.999 17c2 -22 3 -37 3 -45v-146l-110 -27v714l108 21v-349c0 -38 6 -63.667 18 -77c13.333 -14.667 31 -22 53 -22c20 0 39.667 6.16699 59 18.5s33 27.5 41 45.5v360
l107 22v-384c0 -21.333 2.66699 -40 8 -56s10.666 -26.667 15.999 -32l7 -9z" />
    <glyph glyph-name="afii10023" unicode="&#x401;" horiz-adv-x="499" 
d="M80 0v692h384l-15 -94h-254v-189h213v-94h-211v-217h277v-98h-394zM232 807c0 -19.333 -6.5 -35.666 -19.5 -48.999s-28.5 -20 -46.5 -20s-33.5 6.66699 -46.5 20s-19.5 29.666 -19.5 48.999s6.5 35.5 19.5 48.5s28.5 19.5 46.5 19.5s33.5 -6.5 46.5 -19.5
s19.5 -29.167 19.5 -48.5zM445 807c0 -19.333 -6.66699 -35.666 -20 -48.999s-29 -20 -47 -20s-33.5 6.66699 -46.5 20s-19.5 29.666 -19.5 48.999s6.5 35.5 19.5 48.5s28.833 19.5 47.5 19.5c18 0 33.5 -6.5 46.5 -19.5s19.5 -29.167 19.5 -48.5z" />
    <glyph glyph-name="afii10051" unicode="&#x402;" horiz-adv-x="659" 
d="M456 596l-186.001 -0.000976562v-192c48.667 22 93.667 33 135 33c54 0 98 -15.333 132 -46c41.333 -37.333 62 -96.666 62 -177.999c0 -76.667 -18.333 -135 -55 -175c-31.333 -33.333 -71.666 -50 -120.999 -50c-31.333 0 -64.666 7.33301 -99.999 22l20 83
c19.333 -12 40.666 -18 63.999 -18c22.667 0 39.667 8 51 24c12.667 18.667 19 55.667 19 111c0 52.667 -7.66699 88 -23 106c-16 20.667 -41.667 31 -77 31s-71 -9 -107 -27v-320h-115v596h-165v96h480z" />
    <glyph glyph-name="afii10052" unicode="&#x403;" horiz-adv-x="471" 
d="M442 598h-247v-598h-115v692h376zM179 720l-34 63l204 132l50 -93z" />
    <glyph glyph-name="afii10053" unicode="&#x404;" horiz-adv-x="571" 
d="M382 313l-224 0.000976562v-9c0 -86 15 -145.667 45 -179c26.667 -30 66.667 -45 120 -45c57.333 0 107 18 149 54l49 -74c-21.333 -20 -49.333 -36.333 -84 -49c-38 -14 -78 -21 -120 -21c-86.667 0 -155.334 26 -206.001 78c-54 57.333 -81 145.666 -81 264.999
c0 36 1.5 67.833 4.5 95.5s12 60.5 27 98.5s36.167 70.667 63.5 98c53.333 51.333 120.333 77 201 77c70.667 0 132.334 -19 185.001 -57l-51 -78c-37.333 30 -82.333 45 -135 45c-48.667 0 -87 -14 -115 -42c-33.333 -33.333 -50 -86 -50 -158v-9h222v-90z" />
    <glyph glyph-name="afii10054" unicode="&#x405;" horiz-adv-x="587" 
d="M542 212c0 -61.333 -24 -113.666 -72 -156.999s-114 -65 -198 -65c-82.667 0 -158.334 20.667 -227.001 62l44 89c66.667 -38 129 -57 187 -57c42.667 0 76 9.66699 100 29s36 46.333 36 81c0 46.667 -34.333 79.667 -103 99l-74 21c-64 19.333 -108.667 47 -134 83
c-19.333 29.333 -29 62.666 -29 99.999c0 61.333 21.667 110.833 65 148.5s100 56.5 170 56.5c83.333 0 156.333 -22 219 -66l-52 -81c-61.333 35.333 -115.666 53 -162.999 53c-34 0 -61.333 -8.5 -82 -25.5s-31 -39.833 -31 -68.5c0 -21.333 6.83301 -38.166 20.5 -50.499
s37.5 -23.5 71.5 -33.5l82 -24c52.667 -15.333 94.167 -39.333 124.5 -72s45.5 -73.334 45.5 -122.001z" />
    <glyph glyph-name="afii10055" unicode="&#x406;" horiz-adv-x="278" 
d="M80 0v692h118v-692h-118z" />
    <glyph glyph-name="afii10056" unicode="&#x407;" horiz-adv-x="278" 
d="M124 808c0 -19.333 -5.83301 -35.833 -17.5 -49.5s-25.167 -20.5 -40.5 -20.5s-28.666 6.83301 -39.999 20.5s-17 30.167 -17 49.5s5.66699 35.833 17 49.5s24.666 20.5 39.999 20.5s28.833 -6.83301 40.5 -20.5s17.5 -30.167 17.5 -49.5zM269 808
c0 -19.333 -5.66602 -35.833 -16.999 -49.5s-25 -20.5 -41 -20.5c-15.333 0 -28.833 6.83301 -40.5 20.5s-17.5 30.167 -17.5 49.5s5.83301 35.833 17.5 49.5s25.5 20.5 41.5 20.5c15.333 0 28.666 -6.83301 39.999 -20.5s17 -30.167 17 -49.5zM80.001 0v692h118v-692h-118z
" />
    <glyph glyph-name="afii10057" unicode="&#x408;" horiz-adv-x="283" 
d="M203 128c0 -55.333 -3 -96 -9 -122s-16.667 -49.667 -32 -71c-27.333 -38 -66.333 -66.333 -117 -85l-54 61c39.333 21.333 66.333 47.333 81 78c10.667 24 16 67 16 129v574h115v-564z" />
    <glyph glyph-name="afii10058" unicode="&#x409;" horiz-adv-x="901" 
d="M589 94c52.667 0 90.334 10.667 113.001 32c20.667 20.667 31 48 31 82s-10 61 -30 81c-20.667 20.667 -53.334 31 -98.001 31h-91v-226h75zM399 598l-146.999 0.00292969l-5 -112c0 -70.667 -8 -166.334 -24 -287.001c-8.66699 -72 -28.334 -123.333 -59.001 -154
c-26.667 -26.667 -67.334 -43.334 -122.001 -50.001l-31 -4l-21 81l20 5c26.667 8 47 18.667 61 32c13.333 12.667 24 29.667 32 51s13.167 39.833 15.5 55.5s5.16602 41.5 8.49902 77.5c8.66699 89.333 14.334 184.666 17.001 285.999l3 113h367v-278h96
c77.333 0 136.333 -15.333 177 -46c49.333 -38 74 -92 74 -162c0 -58.667 -17.667 -105.667 -53 -141c-43.333 -43.333 -112.666 -65 -207.999 -65h-201v598z" />
    <glyph glyph-name="afii10059" unicode="&#x40a;" horiz-adv-x="933" 
d="M621 94c52.667 0 90.334 10.667 113.001 32c20.667 20.667 31 48 31 82s-10 61 -30 81c-20.667 20.667 -53.334 31 -98.001 31h-91v-226h75zM431 320h-236.001v-320h-115v692h115v-278h236v278h115v-278h96c77.333 0 136.333 -15.333 177 -46c49.333 -38 74 -92 74 -162
c0 -58.667 -17.667 -105.667 -53 -141c-43.333 -43.333 -112.666 -65 -207.999 -65h-201v320z" />
    <glyph glyph-name="afii10060" unicode="&#x40b;" horiz-adv-x="653" 
d="M456 596h-185.999v-193c49.333 22.667 97 34 143 34c51.333 0 96.333 -15 135 -45c30 -28.667 45 -68.667 45 -120v-272h-115v241c0 36.667 -8.33301 63.667 -25 81c-16.667 16.667 -40.334 25 -71.001 25c-34 0 -71.333 -9 -112 -27v-320h-115v596h-165v96h481z" />
    <glyph glyph-name="afii10061" unicode="&#x40c;" horiz-adv-x="610" 
d="M577 622l-31.998 -7.99902c-14.667 -0.666992 -27.667 -6.66699 -39 -18s-18.333 -26 -21 -44l-18 -72c-9.33301 -38.667 -23 -66.667 -41 -84c-13.333 -12.667 -29.666 -22 -48.999 -28v-2c15.333 -5.33301 29.666 -13.666 42.999 -24.999
c20.667 -18 35.334 -44.333 44.001 -79l31 -111c7.33301 -26.667 15 -43 23 -49c8.66699 -8.66699 22.667 -15.667 42 -21l30 -9l-21 -81l-38 4c-49.333 4.66699 -86 17.667 -110 39c-5.33301 5.33301 -9.83301 10.833 -13.5 16.5s-6.83398 12 -9.50098 19
s-4.5 12.833 -5.5 17.5l-4.5 20c-2 8.66699 -3.33301 14.334 -4 17.001l-23 106c-8 33.333 -18.667 56 -32 68c-15.333 14 -38 21 -68 21h-66v-319h-115v692h115v-279h76c31.333 0 54.666 7.33301 69.999 22c10.667 10.667 20 32.334 28 65.001l19 84
c8 36.667 20.333 63 37 79c3.33301 3.33301 6.5 6.16602 9.5 8.49902s6.83301 4.5 11.5 6.5s8.16699 3.66699 10.5 5s6.66602 2.66602 12.999 3.99902s10.5 2.16602 12.5 2.49902s7.33301 1.16602 16 2.49902s14 2.33301 16 3l41 6zM239.002 720.001l-34 63l204 132l50 -93z
" />
    <glyph glyph-name="afii10062" unicode="&#x40e;" horiz-adv-x="519" 
d="M427 855c-60 -77.333 -116.002 -116 -168.002 -116s-108 38.667 -168 116l33 43c14.667 -14.667 34.834 -29.5 60.501 -44.5s51.834 -22.5 78.501 -22.5c39.333 0 84 22.333 134 67zM229.998 398c23.333 -67.333 37.001 -108.667 41.001 -124c8 34 22.667 81.667 44 143
l93 275h121l-188 -523l-23 -63c-5.33301 -14 -12.333 -28.667 -21 -44s-18 -27.333 -28 -36c-25.333 -23.333 -65.333 -39.333 -120 -48l-29 -4l-21 84l19 5c31.333 6.66699 56.666 19.667 75.999 39c12 13.333 24.333 37.333 37 72l11 32l-56 -7l-196 493h128z" />
    <glyph glyph-name="afii10145" unicode="&#x40f;" horiz-adv-x="615" 
d="M195 692v-598h225v598h115v-692h-173v-176h-108v176h-174v692h115z" />
    <glyph glyph-name="afii10017" unicode="&#x410;" horiz-adv-x="577" 
d="M371 278c-34.667 115.333 -62 215.333 -82 300c-20.667 -75.333 -50 -175.333 -88 -300h170zM453 0l-56 182h-224l-56 -182h-119l227 692h133l221 -692h-126z" />
    <glyph glyph-name="afii10018" unicode="&#x411;" horiz-adv-x="599" 
d="M293 94c43.333 0 76 10.332 98 30.999c20 18.667 30 46.334 30 83.001c0 34.667 -10 62 -30 82s-52.667 30 -98 30h-98v-226h98zM496 691.999l-15 -94.001h-286v-184h96c26 0 47.333 -0.666992 64 -2s39.167 -6.66602 67.5 -15.999s51.833 -23.333 70.5 -42
c37.333 -37.333 56 -88 56 -152c0 -59.333 -16.333 -105.333 -49 -138c-40.667 -42.667 -112 -64 -214 -64h-206v692h416z" />
    <glyph glyph-name="afii10019" unicode="&#x412;" horiz-adv-x="601" 
d="M423 206c0 25.333 -6.00098 47.333 -18.001 66s-27.667 30.667 -47 36c-13.333 4 -34.666 6 -63.999 6h-99v-220h102c42 0 73.5 10.333 94.5 31s31.5 47.667 31.5 81zM401.999 503c0 20 -5.16895 38 -15.502 54s-23.833 27 -40.5 33c-16 5.33301 -37.667 8 -65 8h-86
v-190h95c22.667 0 39.834 1.66699 51.501 5s22.834 10.333 33.501 21c18 20 27 43 27 69zM550.997 196c0 -67.333 -22.666 -116.834 -67.999 -148.501s-112.666 -47.5 -201.999 -47.5h-201v692h183c51.333 0 89.166 -2.33301 113.499 -7s47.166 -13.667 68.499 -27
c52 -33.333 78 -78.666 78 -135.999c0 -76.667 -39.667 -127 -119 -151c98 -24.667 147 -83 147 -175z" />
    <glyph glyph-name="afii10020" unicode="&#x413;" horiz-adv-x="471" 
d="M442 598h-247v-598h-115v692h376z" />
    <glyph glyph-name="afii10021" unicode="&#x414;" horiz-adv-x="636" 
d="M262 520c-5.33301 -82.667 -15.333 -156.333 -30 -221c-22 -81.333 -48 -150.333 -78 -207h271v508h-158zM540 92.001h70.998v-266h-108v174h-390v-174h-108v266h45c38.667 76 68.334 160.667 89.001 254c14.667 64 24.334 153 29.001 267l3 79h369v-600z" />
    <glyph glyph-name="afii10022" unicode="&#x415;" horiz-adv-x="499" 
d="M80 0v692h384l-15 -94h-252v-189h211v-94h-211v-217h277v-98h-394z" />
    <glyph glyph-name="afii10024" unicode="&#x416;" horiz-adv-x="891" 
d="M863 623l-32.9893 -8c-14 -3.33301 -26.667 -9.66602 -38 -18.999c-8 -8 -15 -23 -21 -45l-21 -78c-4 -12.667 -7.33301 -22.5 -10 -29.5s-7.33398 -16.333 -14.001 -28s-15 -21.5 -25 -29.5s-22 -14.333 -36 -19v-2c16.667 -6 31 -14.667 43 -26
c18 -17.333 32 -43 42 -77l30 -107c6.66699 -26 15 -44 25 -54s27.333 -18 52 -24l19 -5l-21 -81l-46 5c-16.667 1.33301 -29.5 2.83301 -38.5 4.5s-19 5 -30 10s-20.833 11.833 -29.5 20.5c-18.667 18.667 -32.334 49.667 -41.001 93l-21 99c-6.66699 36 -17 61 -31 75
c-15.333 14 -39 21 -71 21h-44v-319h-115v319h-44c-32 0 -55.667 -7 -71 -21c-14 -14 -24.333 -39 -31 -75l-21 -99c-8.66699 -43.333 -22.334 -74.333 -41.001 -93c-8.66699 -8.66699 -18.5 -15.5 -29.5 -20.5s-21 -8.33301 -30 -10s-21.833 -3.16699 -38.5 -4.5l-46 -5
l-21 81l19 5c24.667 6 42 14 52 24s18.333 28 25 54l30 107c10 34 24 59.667 42 77c11.333 11.333 25.666 20 42.999 26v2c-14 4.66699 -26 11 -36 19s-18.333 17.833 -25 29.5s-11.334 21 -14.001 28s-6 16.833 -10 29.5l-21 78c-6 22 -13 37 -21 45
c-11.333 9.33301 -24 15.666 -38 18.999l-33 8l23 79l38 -6c3.33301 -0.666992 10.166 -1.83398 20.499 -3.50098s17.5 -3 21.5 -4s9.66699 -2.66699 17 -5s13.666 -5.33301 18.999 -9s10.666 -8.16699 15.999 -13.5c14.667 -13.333 25.334 -36 32.001 -68l21 -93
c8.66699 -33.333 18.667 -55.333 30 -66c15.333 -14 36.666 -21 63.999 -21h58v279h115v-279h58c27.333 0 48.666 7 63.999 21c11.333 10.667 21.333 32.667 30 66l21 93c6.66699 32 17.334 54.667 32.001 68c5.33301 5.33301 10.666 9.83301 15.999 13.5
s11.666 6.66699 18.999 9s13 4 17 5s11.167 2.33301 21.5 4s17.166 2.83398 20.499 3.50098l38 6z" />
    <glyph glyph-name="afii10025" unicode="&#x417;" horiz-adv-x="552" 
d="M161 313v88h70c38 0 67.333 9 88 27c20.667 17.333 31 44 31 80c0 32.667 -9.66699 57.334 -29 74.001c-20 20 -49.667 30 -89 30c-28.667 0 -54.334 -5 -77.001 -15c-18.667 -8 -35.667 -18.333 -51 -31l-54 76c24 17.333 52.333 31.666 85 42.999s71.334 17 116.001 17
c64 0 115 -13.667 153 -41c47.333 -34.667 71 -82.334 71 -143.001c0 -47.333 -14.667 -84.666 -44 -111.999c-19.333 -18.667 -43.333 -32.667 -72 -42c42 -8.66699 74.667 -24.667 98 -48c30 -30 45 -69 45 -117c0 -56 -19 -103 -57 -141
c-45.333 -45.333 -112 -68 -200 -68c-54 0 -99.667 7.33301 -137 22c-33.333 13.333 -59.333 27.333 -78 42l53 78c45.333 -34.667 97.333 -52 156 -52c43.333 0 76 10.667 98 32s33 51.333 33 90c0 34.667 -10.333 61.667 -31 81c-22 20 -60.333 30 -115 30h-63z" />
    <glyph glyph-name="afii10026" unicode="&#x418;" horiz-adv-x="645" 
d="M450 0v397c0 40 2 86.667 6 140c-15.333 -44.667 -32 -84.667 -50 -120l-207 -417h-119v692h115v-401c0 -35.333 -2.33301 -79.333 -7 -132c12 36.667 29.667 78.667 53 126l200 407h124v-692h-115z" />
    <glyph glyph-name="afii10027" unicode="&#x419;" horiz-adv-x="645" 
d="M479 841c-8 -23.333 -20 -43 -36 -59c-27.333 -29.333 -67 -44 -119 -44c-51.333 0 -92 15.667 -122 47c-14 14 -25.667 32.667 -35 56l57 31c10 -17.333 23 -31 39 -41s36 -15 60 -15s44 5 60 15c16.667 10 29.667 24 39 42zM450 0v397c0 40 2 86.667 6 140
c-15.333 -44.667 -32 -84.667 -50 -120l-207 -417h-119v692h115v-401c0 -35.333 -2.33301 -79.333 -7 -132c12 36.667 29.667 78.667 53 126l200 407h124v-692h-115z" />
    <glyph glyph-name="afii10028" unicode="&#x41a;" horiz-adv-x="610" 
d="M577 622l-31.998 -7.99902c-14.667 -0.666992 -27.667 -6.66699 -39 -18s-18.333 -26 -21 -44l-18 -72c-9.33301 -38.667 -23 -66.667 -41 -84c-13.333 -12.667 -29.666 -22 -48.999 -28v-2c15.333 -5.33301 29.666 -13.666 42.999 -24.999
c20.667 -18 35.334 -44.333 44.001 -79l31 -111c7.33301 -26.667 15 -43 23 -49c8.66699 -8.66699 22.667 -15.667 42 -21l30 -9l-21 -81l-38 4c-49.333 4.66699 -86 17.667 -110 39c-5.33301 5.33301 -9.83301 10.833 -13.5 16.5s-6.83398 12 -9.50098 19
s-4.5 12.833 -5.5 17.5l-4.5 20c-2 8.66699 -3.33301 14.334 -4 17.001l-23 106c-8 33.333 -18.667 56 -32 68c-15.333 14 -38 21 -68 21h-66v-319h-115v692h115v-279h76c31.333 0 54.666 7.33301 69.999 22c10.667 10.667 20 32.334 28 65.001l19 84
c8 36.667 20.333 63 37 79c3.33301 3.33301 6.5 6.16602 9.5 8.49902s6.83301 4.5 11.5 6.5s8.16699 3.66699 10.5 5s6.66602 2.66602 12.999 3.99902s10.5 2.16602 12.5 2.49902s7.33301 1.16602 16 2.49902s14 2.33301 16 3l41 6z" />
    <glyph glyph-name="afii10029" unicode="&#x41b;" horiz-adv-x="594" 
d="M247 486c0 -70.667 -7.99805 -166.331 -23.998 -286.998c-8.66699 -72 -28.334 -123.333 -59.001 -154c-26.667 -26.667 -67.334 -43.334 -122.001 -50.001l-31 -4l-21 81l20 5c26.667 8 47 18.667 61 32c13.333 12.667 24 29.667 32 51s13.167 39.833 15.5 55.5
s5.16602 41.5 8.49902 77.5c8.66699 89.333 14.334 184.666 17.001 285.999l3 113h367v-692h-115v598h-147z" />
    <glyph glyph-name="afii10030" unicode="&#x41c;" horiz-adv-x="816" 
d="M643 0l-32 428.999c-3.33301 48 -5 88 -5 120c-10.667 -49.333 -19.667 -86.333 -27 -111l-126 -438h-98l-115 419c-16 54 -26 97.667 -30 131c0 -21.333 -2.33301 -65.333 -7 -132l-30 -418h-113l63 692h153l106 -392c8 -29.333 16.667 -68.666 26 -117.999
c4.66699 33.333 13 72 25 116l109 394h153l61 -692h-113z" />
    <glyph glyph-name="afii10031" unicode="&#x41d;" horiz-adv-x="626" 
d="M431 0v320h-236v-320h-115v692h115v-278h236v278h115v-692h-115z" />
    <glyph glyph-name="afii10032" unicode="&#x41e;" horiz-adv-x="678" 
d="M500 340c0 90 -11.833 158.167 -35.5 204.5s-64.834 69.5 -123.501 69.5c-57.333 0 -98.833 -21.833 -124.5 -65.5s-38.5 -108.167 -38.5 -193.5c0 -92.667 13 -162 39 -208s68.333 -69 127 -69c52.667 0 91.834 20.833 117.501 62.5s38.5 108.167 38.5 199.5zM628 346
c0 -109.333 -25.001 -196.001 -75.001 -260.001s-119.667 -96 -209 -96c-95.333 0 -168.166 32.833 -218.499 98.5s-75.5 151.834 -75.5 258.501c0 111.333 26.333 198.333 79 261s122.667 94 210 94c94 0 165.667 -33 215 -99s74 -151.667 74 -257z" />
    <glyph glyph-name="afii10033" unicode="&#x41f;" horiz-adv-x="606" 
d="M411 0v598h-216v-598h-115v692h446v-692h-115z" />
    <glyph glyph-name="afii10034" unicode="&#x420;" horiz-adv-x="555" 
d="M407 479c0 39.333 -9.33301 68.333 -28 87c-20.667 22.667 -52.667 34 -96 34h-88v-244h88c42.667 0 74 10 94 30s30 51 30 93zM535 485c0 -66.667 -21.3311 -120.166 -63.998 -160.499s-96 -60.5 -160 -60.5h-116v-264h-115v692h184
c49.333 0 86.166 -2.33301 110.499 -7s46.166 -13.334 65.499 -26.001c63.333 -37.333 95 -95.333 95 -174z" />
    <glyph glyph-name="afii10035" unicode="&#x421;" horiz-adv-x="567" 
d="M537 51c-52.667 -40.667 -115.668 -61 -189.001 -61c-89.333 0 -162.333 33.333 -219 100c-52.667 63.333 -79 144.666 -79 243.999c0 82.667 15.333 152.334 46 209.001c26 50 61.5 89 106.5 117s94.5 42 148.5 42c72.667 0 130 -18 172 -54l-53 -75
c-35.333 26 -74.666 39 -117.999 39c-59.333 0 -105.333 -27.667 -138 -83c-24 -43.333 -36 -103.666 -36 -180.999c0 -76.667 9 -133.334 27 -170.001c30 -65.333 81.333 -98 154 -98c46 0 87.333 14.667 124 44z" />
    <glyph glyph-name="afii10036" unicode="&#x422;" horiz-adv-x="474" 
d="M479 596h-174v-596h-115v596h-175v96h479z" />
    <glyph glyph-name="afii10037" unicode="&#x423;" horiz-adv-x="519" 
d="M230 398c23.333 -67.333 37.001 -108.667 41.001 -124c8 34 22.667 81.667 44 143l93 275h121l-188 -523l-23 -63c-5.33301 -14 -12.333 -28.667 -21 -44s-18 -27.333 -28 -36c-25.333 -23.333 -65.333 -39.333 -120 -48l-29 -4l-21 84l19 5
c31.333 6.66699 56.666 19.667 75.999 39c12 13.333 24.333 37.333 37 72l11 32l-56 -7l-196 493h128z" />
    <glyph glyph-name="afii10038" unicode="&#x424;" horiz-adv-x="749" 
d="M309 550c-41.333 0 -73.333 -11.332 -96 -33.999c-27.333 -27.333 -41 -79 -41 -155c0 -64.667 13.333 -111.334 40 -140.001c22.667 -23.333 55 -35 97 -35h13v364h-13zM427 186.001l13 -0.000976562c42 0 74.333 11.667 97 35c26.667 28.667 40 75.334 40 140.001
c0 76 -13.667 127.667 -41 155c-22.667 22.667 -54.667 34 -96 34h-13v-364zM317 0v106h-10c-80.667 0 -144 23 -190 69c-44.667 44.667 -67 108.334 -67 191.001c0 88 23 154.333 69 199c43.333 43.333 106.333 65 189 65h9v103h115v-103h9
c82.667 0 145.667 -21.667 189 -65c46 -44.667 69 -111 69 -199c0 -82.667 -22.333 -146.334 -67 -191.001c-46 -46 -109.333 -69 -190 -69h-10v-106h-115z" />
    <glyph glyph-name="afii10039" unicode="&#x425;" horiz-adv-x="540" 
d="M412 0l-143 274l-138 -274h-141l212 371l-186 321h140l111 -214l109 214h136l-176 -313l214 -379h-138z" />
    <glyph glyph-name="afii10040" unicode="&#x426;" horiz-adv-x="631" 
d="M195 692v-598h225v598h115v-598h71v-270h-108v176h-418v692h115z" />
    <glyph glyph-name="afii10041" unicode="&#x427;" horiz-adv-x="580" 
d="M385 0l0.000976562 296.999c-44.667 -21.333 -94.334 -32 -149.001 -32c-60 0 -106 16 -138 48c-28.667 28.667 -43 69.334 -43 122.001v257h115v-225c0 -40 8 -68.333 24 -85c18 -18 44.333 -27 79 -27c36.667 0 74 8 112 24v313h115v-692h-115z" />
    <glyph glyph-name="afii10042" unicode="&#x428;" horiz-adv-x="885" 
d="M195 94h190v598h115v-598h190v598h115v-692h-725v692h115v-598z" />
    <glyph glyph-name="afii10043" unicode="&#x429;" horiz-adv-x="904" 
d="M195 94h191v598h115v-598h191v598h115v-598h72v-270h-108v176h-691v692h115v-598z" />
    <glyph glyph-name="afii10044" unicode="&#x42a;" horiz-adv-x="701" 
d="M389 94c52.667 0 90.334 10.667 113.001 32c20.667 20.667 31 48 31 82s-10 61 -30 81c-20.667 20.667 -53.334 31 -98.001 31h-91v-226h75zM199 598h-192.001l-7 94h314v-278h96c77.333 0 136.333 -15.333 177 -46c49.333 -38 74 -92 74 -162
c0 -58.667 -17.667 -105.667 -53 -141c-43.333 -43.333 -112.666 -65 -207.999 -65h-201v598z" />
    <glyph glyph-name="afii10045" unicode="&#x42b;" horiz-adv-x="826" 
d="M270 94c52.667 0 90.333 10.667 113 32c20.667 18.667 31 46.667 31 84c0 34 -10 60.333 -30 79c-22 20.667 -58.333 31 -109 31h-80v-226h75zM745.999 692v-692h-115v692h115zM194.999 692l-0.000976562 -278h90c77.333 0 136.333 -15.333 177 -46
c49.333 -38 74 -92 74 -162c0 -58.667 -17.667 -105.667 -53 -141c-43.333 -43.333 -112.666 -65 -207.999 -65h-195v692h115z" />
    <glyph glyph-name="afii10046" unicode="&#x42c;" horiz-adv-x="582" 
d="M270 94c52.667 0 90.334 10.667 113.001 32c20.667 20.667 31 48 31 82s-10 61 -30 81c-20.667 20.667 -53.334 31 -98.001 31h-91v-226h75zM80 692h114.999v-278h96c77.333 0 136.333 -15.333 177 -46c49.333 -38 74 -92 74 -162c0 -58.667 -17.667 -105.667 -53 -141
c-43.333 -43.333 -112.666 -65 -207.999 -65h-201v692z" />
    <glyph glyph-name="afii10047" unicode="&#x42d;" horiz-adv-x="575" 
d="M395 408v4.00098c0 75.333 -17 129 -51 161c-26 26 -63.333 39 -112 39c-31.333 0 -58.666 -5 -81.999 -15c-20.667 -8 -39 -18.667 -55 -32l-48 76c19.333 15.333 44.666 29.333 75.999 42c32 12.667 69 19 111 19c80 0 145.667 -25.667 197 -77
c62.667 -62.667 94 -156.334 94 -281.001c0 -120 -29.667 -210.667 -89 -272c-52.667 -54.667 -124.334 -82 -215.001 -82c-44 0 -84.333 7.33301 -121 22c-25.333 10 -48.666 24 -69.999 42l53 80c18 -15.333 36 -27.333 54 -36c25.333 -12 55.333 -18 90 -18
c54 0 94.333 15.667 121 47c32.667 36.667 49 97 49 181v10h-224v90h222z" />
    <glyph glyph-name="afii10048" unicode="&#x42e;" horiz-adv-x="913" 
d="M735 346c0 117.333 -19.333 195.333 -58 234c-24 22.667 -55.667 34 -95 34s-71 -11.333 -95 -34s-39.667 -53.5 -47 -92.5s-11 -86.167 -11 -141.5s3.66699 -102.5 11 -141.5s23 -69.833 47 -92.5s55.667 -34 95 -34s71 11.333 95 34c38.667 38.667 58 116.667 58 234z
M306 414c5.33301 88 33.998 159.333 85.998 214c48.667 49.333 111.334 74 188.001 74c77.333 0 140 -24.333 188 -73c63.333 -65.333 95 -159 95 -281c0 -124.667 -33 -220 -99 -286c-50 -48 -111 -72 -183 -72c-74 0 -133.667 22.333 -179 67
c-31.333 30 -55.166 69.167 -71.499 117.5s-24.5 96.833 -24.5 145.5h-111v-320h-115v692h115v-278h111z" />
    <glyph glyph-name="afii10049" unicode="&#x42f;" horiz-adv-x="606" 
d="M328 600c-42.667 0 -74 -10.001 -94 -30.001c-18.667 -17.333 -28 -42.666 -28 -75.999c0 -35.333 10.333 -62.333 31 -81c20.667 -18 55 -27 103 -27h71v214h-83zM411 -0.000976562l0.00195312 294h-55c-42 0 -72 -8.33301 -90 -25c-15.333 -13.333 -27 -38.333 -35 -75
l-15 -72c-9.33301 -43.333 -22.666 -73.666 -39.999 -90.999c-8.66699 -8 -19.334 -14.667 -32.001 -20s-22.334 -8.5 -29.001 -9.5s-18 -2.5 -34 -4.5l-50 -6l-21 81l25 7c18.667 5.33301 34 12.666 46 21.999c11.333 10.667 20.333 28.667 27 54l19 74
c8.66699 34.667 22 61 40 79c15.333 15.333 34.666 26 57.999 32v3c-42 8.66699 -74 24 -96 46c-30.667 30.667 -46 70.667 -46 120c0 51.333 16.667 93 50 125c40 38.667 101.333 58 184 58h209v-692h-115z" />
    <glyph glyph-name="afii10065" unicode="&#x430;" horiz-adv-x="515" 
d="M327 238c-8 0.666992 -14.667 0.999023 -20 0.999023c-52.667 0 -89.667 -7.66699 -111 -23s-32 -39.666 -32 -72.999c0 -24 6.16699 -42.667 18.5 -56s29.5 -20 51.5 -20c36 0 66.333 17 91 51zM421 -21.001c-34 13.333 -57.002 36 -69.002 68
c-34.667 -40 -81 -60 -139 -60c-56 0 -98 13.5 -126 40.5s-42 63.5 -42 109.5c0 117.333 83.333 176 250 176h34v27c0 32 -4.66699 54.833 -14 68.5s-28 20.5 -56 20.5c-21.333 0 -44.666 -4.83301 -69.999 -14.5s-45 -19.167 -59 -28.5l-22 -15l-49 79
c72.667 46 144.334 69 215.001 69c80 0 131.333 -28 154 -84c5.33301 -15.333 8 -40.666 8 -75.999v-48l-2 -145c0 -36 2.5 -61.333 7.5 -76s17.167 -28.334 36.5 -41.001z" />
    <glyph glyph-name="afii10066" unicode="&#x431;" horiz-adv-x="543" 
d="M274 424c-34 0 -59.333 -14 -76 -42c-17.333 -28 -26 -73.333 -26 -136c0 -60.667 8.66699 -105.667 26 -135c16.667 -28 42 -42 76 -42s59.333 14 76 42c17.333 28 26 73 26 135c0 58.667 -8.66699 104 -26 136c-16.667 28 -42 42 -76 42zM481 685
c-8.66699 -6 -27.667 -16 -57 -30c-8.66699 -4 -19.5 -8.5 -32.5 -13.5s-21.833 -8.5 -26.5 -10.5l-131 -54c-54 -23.333 -84 -65.333 -90 -126l-4 -31l5 -1c12.667 22.667 29.334 41.334 50.001 56.001c28 20.667 62 31 102 31c58 0 106 -22.333 144 -67s57 -108 57 -190
c0 -80 -20 -143.667 -60 -191s-95 -71 -165 -71c-68 0 -122 23.667 -162 71c-18 21.333 -31.833 47.166 -41.5 77.499s-15.334 57.333 -17.001 81s-2.5 54.167 -2.5 91.5c0 88.667 8 158 24 208c12.667 39.333 33 73 61 101c30 28 66.333 51 109 69l158 67l39 21z" />
    <glyph glyph-name="afii10067" unicode="&#x432;" horiz-adv-x="526" 
d="M184 74l80 -0.000976562c32 0 56 6.66699 72 20c13.333 11.333 20 29 20 53c0 30.667 -8.66699 52.334 -26 65.001c-12.667 10 -34.667 15 -66 15h-80v-153zM184 298.999h71.001c31.333 0 53.666 6.66699 66.999 20c12 12 18 27.667 18 47c0 21.333 -6.33301 38 -19 50
c-12 10.667 -32.667 16 -62 16h-75v-133zM285.001 505.999c60.667 0 104.333 -13.334 131 -40.001c22 -22 33 -51.333 33 -88c0 -30.667 -9.33301 -56.667 -28 -78c-14 -15.333 -30.667 -26 -50 -32c26 -4.66699 48 -16 66 -34c22.667 -22.667 34 -52 34 -88
c0 -44 -13.667 -79 -41 -105c-4 -4 -10 -8.66699 -18 -14s-22.5 -11.166 -43.5 -17.499s-43.5 -9.5 -67.5 -9.5h-226v506h210z" />
    <glyph glyph-name="afii10068" unicode="&#x433;" horiz-adv-x="411" 
d="M184 0h-109v506h316l-13 -82h-194v-424z" />
    <glyph glyph-name="afii10069" unicode="&#x434;" horiz-adv-x="524" 
d="M219 426l-2 -47c-3.33301 -60 -10.333 -113 -21 -159c-11.333 -45.333 -29.333 -92 -54 -140h190v346h-113zM504 -143h-102v143h-295v-143h-102v223h39c29.333 52 51.333 108.333 66 169c12.667 54.667 19.667 115.667 21 183l2 74h308v-426h63v-223z" />
    <glyph glyph-name="afii10070" unicode="&#x435;" horiz-adv-x="513" 
d="M359 306c0 41.333 -8.16797 73.5 -24.501 96.5s-38.5 34.5 -66.5 34.5c-31.333 0 -55.166 -11.333 -71.499 -34s-24.5 -55 -24.5 -97h187zM170.999 224l0.000976562 -9.00098c0 -41.333 9.5 -75.666 28.5 -102.999s51.167 -41 96.5 -41c44.667 0 86.667 16.667 126 50
l43 -67c-52.667 -44.667 -113.334 -67 -182.001 -67c-71.333 0 -128 23.833 -170 71.5s-63 112.5 -63 194.5c0 83.333 21 149.333 63 198c39.333 45.333 91 68 155 68c54.667 0 101 -17.333 139 -52c44 -40 66 -113.333 66 -220v-23h-302z" />
    <glyph glyph-name="afii10072" unicode="&#x436;" horiz-adv-x="713" 
d="M411 518l-0.00292969 -212h39c20 0 35.333 5.33301 46 16c8 8 14.333 23.333 19 46l12 56c5.33301 26 15.333 46.333 30 61c16 16 38.667 25 68 27l47 4l20 -75l-26 -5c-13.333 -2.66699 -22.666 -7 -27.999 -13c-5.33301 -4.66699 -10.333 -14.334 -15 -29.001l-18 -58
c-6 -19.333 -14 -34 -24 -44c-6 -6 -20 -13.667 -42 -23v-2c14.667 -4 27.334 -11.333 38.001 -22c11.333 -11.333 21.666 -30.333 30.999 -57l21 -63c6.66699 -20 13.334 -33 20.001 -39c9.33301 -8.66699 23 -14.667 41 -18l13 -3l-20 -75l-38 3
c-43.333 4 -73.333 14 -90 30c-14 13.333 -24.333 35.666 -31 66.999l-12 60c-6.66699 30 -14.667 49.667 -24 59c-10.667 10 -27.667 15 -51 15h-26v-224h-109v224h-26c-23.333 0 -40.333 -5 -51 -15c-9.33301 -9.33301 -17.333 -29 -24 -59l-12 -60
c-6.66699 -31.333 -17 -53.666 -31 -66.999c-16.667 -16 -46.667 -26 -90 -30l-38 -3l-20 75l13 3c18 3.33301 31.667 9.33301 41 18c6.66699 6 13.334 19 20.001 39l21 63c9.33301 26.667 19.666 45.667 30.999 57c10.667 10.667 23.334 18 38.001 22v2
c-22 9.33301 -36 17 -42 23c-10 10 -18 24.667 -24 44l-18 58c-4.66699 14.667 -9.66699 24.334 -15 29.001c-6 6 -15.333 10.333 -28 13l-26 5l20 75l47 -4c29.333 -2 52 -11 68 -27c14.667 -14.667 24.667 -35 30 -61l12 -56c4.66699 -22.667 11 -38 19 -46
c10.667 -10.667 26 -16 46 -16h39v191z" />
    <glyph glyph-name="afii10073" unicode="&#x437;" horiz-adv-x="448" 
d="M190 306c30 0 51.6641 6.66602 64.9971 19.999c12 10.667 18 25.334 18 44.001c0 19.333 -5.66699 34 -17 44c-14 14 -35.667 21 -65 21c-20 0 -41.667 -4.33301 -65 -13c-17.333 -8 -32.666 -16.667 -45.999 -26l-44 69c20 15.333 43.333 27.666 70 36.999
c28 11.333 63 17 105 17c61.333 0 107.666 -15 138.999 -45c26 -23.333 39 -54.666 39 -93.999c0 -32 -11.667 -59.667 -35 -83c-13.333 -13.333 -29.666 -23 -48.999 -29c24.667 -6 46 -18 64 -36c22.667 -22.667 34 -51 34 -85c0 -44.667 -15 -81 -45 -109
c-35.333 -34 -86.666 -51 -153.999 -51c-57.333 0 -103.333 10.333 -138 31c-5.33301 3.33301 -20.666 14 -45.999 32l48 71c14.667 -12.667 31.334 -23.667 50.001 -33c24 -11.333 48.667 -17 74 -17c29.333 0 51.666 7 66.999 21c15.333 13.333 23 31.666 23 54.999
c0 22.667 -7 40.334 -21 53.001c-16.667 14.667 -41.667 22 -75 22h-54v84h58z" />
    <glyph glyph-name="afii10074" unicode="&#x438;" 
d="M75 498l109 21v-265c0 -44.667 -1.33301 -82.667 -4 -114h2c17.333 44.667 35.333 84 54 118l135 241l114 20v-519h-109v230c0 48 1.66699 91.667 5 131h-2c-15.333 -40.667 -32.333 -78 -51 -112l-139 -249h-114v498z" />
    <glyph glyph-name="afii10075" unicode="&#x439;" 
d="M439 668c-11.333 -31.333 -29.999 -57 -55.999 -77c-26.667 -20.667 -61.334 -31 -104.001 -31s-77.334 10.333 -104.001 31c-26 20 -44.667 45.667 -56 77l55 31c8 -11.333 15 -20.333 21 -27c20.667 -22 49.334 -33 86.001 -33c32.667 0 60 11 82 33
c6 6.66699 13 15.667 21 27zM75.001 498l109 21v-265c0 -44.667 -1.33301 -82.667 -4 -114h2c17.333 44.667 35.333 84 54 118l135 241l114 20v-519h-109v230c0 48 1.66699 91.667 5 131h-2c-15.333 -40.667 -32.333 -78 -51 -112l-139 -249h-114v498z" />
    <glyph glyph-name="afii10076" unicode="&#x43a;" horiz-adv-x="518" 
d="M75 497l109 20.9971v-212h47c27.333 0 46 5 56 15c8.66699 8.66699 15.667 24.334 21 47.001l13 57c5.33301 26 14.333 45.333 27 58c14 15.333 41 25 81 29l37 4l20 -75l-25 -5c-15.333 -5.33301 -24.666 -9.33301 -27.999 -12c-6 -4.66699 -12 -16 -18 -34l-16 -54
c-4.66699 -18.667 -13 -34 -25 -46c-10.667 -10.667 -24 -17.667 -40 -21v-2c12.667 -3.33301 25 -10 37 -20c10.667 -10.667 20.667 -28.667 30 -54l25 -75c5.33301 -15.333 11.666 -26.666 18.999 -33.999c3.33301 -3.33301 7 -6 11 -8s8.5 -3.5 13.5 -4.5
s7.83301 -1.83301 8.5 -2.5l20 -4l-20 -75l-34 3c-16.667 1.33301 -28.667 2.5 -36 3.5s-17 3.66699 -29 8s-22.333 10.5 -31 18.5c-14 14 -24.333 36.333 -31 67l-16 71c-5.33301 24.667 -13 41.334 -23 50.001s-26.333 13 -49 13h-45v-224h-109v497z" />
    <glyph glyph-name="afii10077" unicode="&#x43b;" horiz-adv-x="529" 
d="M454 506l-0.000976562 -506h-109v424h-114l-4 -55c-0.666992 -10 -2 -28.167 -4 -54.5s-3.66699 -47.166 -5 -62.499c-6 -54.667 -11 -97.667 -15 -129c-6 -41.333 -19 -72 -39 -92c-22.667 -20.667 -57.667 -33.334 -105 -38.001l-27 -3l-22 75l22 5
c20.667 5.33301 37 14 49 26c6 6 11 12.833 15 20.5s7.16699 17.167 9.5 28.5s4 20.833 5 28.5s2.33301 19.834 4 36.501s2.83398 28.667 3.50098 36c2.66699 20 4.66699 38.667 6 56s2.5 36.166 3.5 56.499s2.16699 37.833 3.5 52.5l6 95h317z" />
    <glyph glyph-name="afii10078" unicode="&#x43c;" horiz-adv-x="685" 
d="M234 506l81.001 -266c13.333 -42 22 -73 26 -93c4 16 12.667 46.333 26 91l83 268h134l51 -506h-103l-25 295c-1.33301 22.667 -2 51 -2 85h-4c-7.33301 -35.333 -14 -61.333 -20 -78l-99 -302h-87l-92 293c-10.667 32 -18.334 61 -23.001 87h-4v-17v-22
c0 -16 -0.666992 -30 -2 -42l-23 -299h-101l50 506h134z" />
    <glyph glyph-name="afii10079" unicode="&#x43d;" horiz-adv-x="539" 
d="M184 0h-109v497l109 21v-208h171v187l109 21v-518h-109v228h-171v-228z" />
    <glyph glyph-name="afii10080" unicode="&#x43e;" horiz-adv-x="537" 
d="M370 251c0 68 -8.83203 115.999 -26.499 143.999s-43.5 42 -77.5 42c-34.667 0 -59.834 -13.833 -75.501 -41.5s-23.5 -72.5 -23.5 -134.5c0 -71.333 8.5 -121.166 25.5 -149.499s42.5 -42.5 76.5 -42.5c67.333 0 101 60.667 101 182zM492.001 251.999
c0 -82 -20.167 -146.668 -60.5 -194.001s-94.833 -71 -163.5 -71s-123 23.833 -163 71.5s-60 112.5 -60 194.5c0 80.667 20 145.167 60 193.5s93.667 72.5 161 72.5c70.667 0 126 -24.167 166 -72.5s60 -113.166 60 -194.499z" />
    <glyph glyph-name="afii10081" unicode="&#x43f;" horiz-adv-x="530" 
d="M75 0v506h380v-506h-109v424h-162v-424h-109z" />
    <glyph glyph-name="afii10082" unicode="&#x440;" horiz-adv-x="550" 
d="M186 125c32.667 -30 66.333 -45 101 -45c22 0 40.667 7 56 21c29.333 28 44 78.667 44 152c0 75.333 -11.667 125.333 -35 150c-14 15.333 -33 23 -57 23c-38 0 -74.333 -17.333 -109 -52v-249zM170.999 519c5.33301 -24.667 8 -44.6689 8 -60.002
c34.667 40 79.667 60 135 60c49.333 0 90.333 -16.333 123 -49c45.333 -45.333 68 -115.666 68 -210.999c0 -101.333 -24.333 -175.666 -73 -222.999c-34 -32.667 -77.333 -49 -130 -49c-43.333 0 -83 14 -119 42c2 -15.333 3 -38.333 3 -69v-148l-106 -27v590
c0 53.333 -3.33301 95.333 -10 126z" />
    <glyph glyph-name="afii10083" unicode="&#x441;" horiz-adv-x="457" 
d="M427 54c-44.667 -44.667 -98.666 -67 -161.999 -67c-69.333 0 -122.5 22.667 -159.5 68s-55.5 109.333 -55.5 192c0 86.667 21.833 153.667 65.5 201s96.167 71 157.5 71c29.333 0 54.5 -4 75.5 -12s42.5 -22.333 64.5 -43l-55 -73c-29.333 26 -57.666 39 -84.999 39
c-36.667 0 -63.334 -17 -80.001 -51c-14 -28.667 -21 -75.667 -21 -141c0 -67.333 11.333 -113.333 34 -138c17.333 -19.333 39.666 -29 66.999 -29c34.667 0 68.667 16.667 102 50z" />
    <glyph glyph-name="afii10084" unicode="&#x442;" horiz-adv-x="380" 
d="M240 0h-109v424h-136v82h390l-14 -82h-131v-424z" />
    <glyph glyph-name="afii10085" unicode="&#x443;" horiz-adv-x="483" 
d="M478 506l-187.001 -540.001c-20 -57.333 -43 -99 -69 -125c-24.667 -25.333 -64.667 -44.333 -120 -57l-36 71c40 10.667 68 25.334 84 44.001c22.667 22.667 40.334 56.334 53.001 101.001h-35c-6.66699 26 -21 73.667 -43 143l-120 355l112 19l93 -308
c1.33301 -4.66699 10.333 -42.334 27 -113.001h2c8.66699 38.667 21 84 37 136l84 274h118z" />
    <glyph glyph-name="afii10086" unicode="&#x444;" horiz-adv-x="739" 
d="M315 398c-23.333 21.333 -47.333 32 -72 32s-44 -10 -58 -30c-16 -22.667 -24 -69 -24 -139c0 -78 7.33301 -128.667 22 -152c14.667 -22.667 35.667 -34 63 -34c26 0 49 9.33301 69 28v295zM424 103c20 -18.667 43 -28 69 -28c27.333 0 48.333 11.333 63 34
c14.667 23.333 22 74 22 152c0 70 -8 116.333 -24 139c-14 20 -33.333 30 -58 30s-48.667 -10.667 -72 -32v-295zM424 482c27.333 24 59.3311 36 95.998 36c48 0 87.667 -19.667 119 -59c36.667 -46.667 55 -112.667 55 -198c0 -90.667 -17 -159.334 -51 -206.001
c-33.333 -45.333 -76.666 -68 -129.999 -68c-35.333 0 -65 10 -89 30v-217h-109v217c-24 -20 -53.667 -30 -89 -30c-53.333 0 -96.666 22.667 -129.999 68c-34 46.667 -51 115.334 -51 206.001c0 85.333 18.333 151.333 55 198c31.333 39.333 71 59 119 59
c36.667 0 68.667 -12 96 -36v230l109 25v-255z" />
    <glyph glyph-name="afii10087" unicode="&#x445;" horiz-adv-x="477" 
d="M349 0c-27.333 42.667 -64 105.67 -110 189.003c-10 -19.333 -28.5 -52.5 -55.5 -99.5s-45.167 -76.833 -54.5 -89.5h-139l188 274l-146 217l119 24c32 -50.667 62.667 -105.334 92 -164.001c8.66699 19.333 22.5 47.666 41.5 84.999s31.833 60.666 38.5 69.999h128
l-149 -230l185 -276h-138z" />
    <glyph glyph-name="afii10088" unicode="&#x446;" horiz-adv-x="538" 
d="M450 518v-436h63v-225h-102v143h-336v497l109 21v-436h157v415z" />
    <glyph glyph-name="afii10089" unicode="&#x447;" horiz-adv-x="489" 
d="M414 518l0.000976562 -518h-109v202c-36.667 -14 -71.334 -21 -104.001 -21c-53.333 0 -93.333 13.333 -120 40c-24 24 -36 59.667 -36 107v169l109 21v-178c0 -28 6.66699 -48.333 20 -61c12 -10.667 30.333 -16 55 -16c28.667 0 54 5.66699 76 17v217z" />
    <glyph glyph-name="afii10090" unicode="&#x448;" horiz-adv-x="753" 
d="M184 518v-436h138v415l109 21v-436h138v415l109 21v-518h-603v497z" />
    <glyph glyph-name="afii10091" unicode="&#x449;" horiz-adv-x="766" 
d="M184 518v-436h138v415l109 21v-436h138v415l109 21v-436h63v-225h-102v143h-564v497z" />
    <glyph glyph-name="afii10092" unicode="&#x44a;" horiz-adv-x="553" 
d="M247 78l63 0.000976562c33.333 0 57.333 7.33301 72 22c13.333 13.333 20 32.666 20 57.999c0 26.667 -7 47 -21 61c-15.333 14.667 -40 22 -74 22h-60v-163zM320 319.001c72 0 124.333 -16.333 157 -49c27.333 -28 41 -65.667 41 -113c0 -46.667 -13 -83.667 -39 -111
c-30 -30.667 -80 -46 -150 -46h-191v424h-129l-9 82h247v-187h73z" />
    <glyph glyph-name="afii10093" unicode="&#x44b;" horiz-adv-x="712" 
d="M184 78l57 0.000976562c34 0 58.667 7.33301 74 22c13.333 12 20 31 20 57c0 27.333 -7.66699 48.666 -23 63.999c-13.333 13.333 -37 20 -71 20h-57v-163zM637 518.001v-518h-109v497zM184 518.001v-199h69c72 0 124.333 -16.333 157 -49c27.333 -28 41 -65.667 41 -113
c0 -46.667 -13 -83.667 -39 -111c-30 -30.667 -80 -46 -150 -46h-187v497z" />
    <glyph glyph-name="afii10094" unicode="&#x44c;" horiz-adv-x="490" 
d="M184 78l63 0.000976562c33.333 0 57.333 7.33301 72 22c13.333 13.333 20 32.666 20 57.999c0 26.667 -7 47 -21 61c-15.333 14.667 -40 22 -74 22h-60v-163zM184 518.001v-199h73c72 0 124.333 -16.333 157 -49c27.333 -28 41 -65.667 41 -113
c0 -46.667 -13 -83.667 -39 -111c-30 -30.667 -80 -46 -150 -46h-191v497z" />
    <glyph glyph-name="afii10095" unicode="&#x44d;" horiz-adv-x="467" 
d="M155 306h144.999v9c0 41.333 -10.333 73 -31 95c-18 18 -42 27 -72 27c-20.667 0 -41 -4.66699 -61 -14c-14.667 -7.33301 -27.667 -16.666 -39 -27.999l-53 66c18 16.667 40 30.334 66 41.001c24.667 11.333 55.667 17 93 17c62 0 111 -18 147 -54
c48 -48 72 -120 72 -216c0 -90.667 -21 -158 -63 -202c-36 -40 -88.667 -60 -158 -60c-41.333 0 -77.666 7.66699 -108.999 23c-22 10.667 -42.667 25.667 -62 45l53 65c5.33301 -5.33301 11 -10.333 17 -15s11 -8.33398 15 -11.001s6.33301 -4.33398 7 -5.00098
c21.333 -13.333 45.333 -20 72 -20c34 0 59.333 8.66699 76 26c20 20.667 30 58.667 30 114v15h-145v82z" />
    <glyph glyph-name="afii10096" unicode="&#x44e;" horiz-adv-x="740" 
d="M379 253c0 -82.667 11.667 -136 35 -160c16 -16 36.333 -24 61 -24s45 8 61 24c23.333 24 35 77.333 35 160s-11.667 136 -35 160c-16 16 -36.333 24 -61 24s-45 -8 -61 -24c-23.333 -24 -35 -77.333 -35 -160zM265 307c2.66699 64 23.667 116 63 156
c37.333 37.333 86.333 56 147 56c62.667 0 113 -19.667 151 -59c46 -46 69 -115.667 69 -209c0 -92 -22 -161.333 -66 -208c-36 -37.333 -85 -56 -147 -56c-66 0 -117.333 19.333 -154 58c-23.333 24.667 -39.833 53.667 -49.5 87s-14.5 64.333 -14.5 93h-80v-225h-109v498
l109 21v-212h81z" />
    <glyph glyph-name="afii10097" unicode="&#x44f;" horiz-adv-x="514" 
d="M267 426c-30.667 0 -52.667 -6.33203 -66 -18.999s-20 -30.334 -20 -53.001c0 -23.333 6.66699 -41.333 20 -54c16.667 -14.667 39 -22 67 -22h62v148h-63zM439 0.000976562l-108.999 0.000976562v200h-46c-24 0 -41.667 -5.33301 -53 -16
c-8 -7.33301 -15.333 -23 -22 -47l-14 -50c-10.667 -32 -20.667 -52.667 -30 -62c-4 -4 -9 -7.83301 -15 -11.5s-11.333 -6.5 -16 -8.5s-10.5 -3.66699 -17.5 -5l-16 -3c-3.66699 -0.666992 -8.83398 -1.5 -15.501 -2.5s-10.667 -1.5 -12 -1.5l-39 -3l-19 75l16 4
c18 5.33301 31 11.333 39 18c8 7.33301 15.333 20.666 22 39.999l15 45c9.33301 22 18 36.667 26 44c12 12 26 19.667 42 23v2c-30 2.66699 -55.667 14.667 -77 36s-32 50.333 -32 87c0 42 13 74.667 39 98c30.667 29.333 79.667 44 147 44h187v-506z" />
    <glyph glyph-name="afii10071" unicode="&#x451;" horiz-adv-x="513" 
d="M359 306c0 41.333 -8.16797 73.5 -24.501 96.5s-38.5 34.5 -66.5 34.5c-31.333 0 -55.166 -11.333 -71.499 -34s-24.5 -55 -24.5 -97h187zM170.999 224l0.000976562 -9.00098c0 -41.333 9.5 -75.666 28.5 -102.999s51.167 -41 96.5 -41c44.667 0 86.667 16.667 126 50
l43 -67c-52.667 -44.667 -113.334 -67 -182.001 -67c-71.333 0 -128 23.833 -170 71.5s-63 112.5 -63 194.5c0 83.333 21 149.333 63 198c39.333 45.333 91 68 155 68c54.667 0 101 -17.333 139 -52c44 -40 66 -113.333 66 -220v-23h-302zM232 647.999
c0 -18.667 -6.33301 -34.5 -19 -47.5s-27.667 -19.5 -45 -19.5s-32.166 6.5 -44.499 19.5s-18.5 28.833 -18.5 47.5s6.16699 34.334 18.5 47.001s27.166 19 44.499 19s32.333 -6.33301 45 -19s19 -28.334 19 -47.001zM431 647.999c0 -18.667 -6.33203 -34.5 -18.999 -47.5
s-27.667 -19.5 -45 -19.5s-32.333 6.5 -45 19.5s-19 28.833 -19 47.5s6.33301 34.334 19 47.001s28 19 46 19c17.333 0 32.166 -6.33301 44.499 -19s18.5 -28.334 18.5 -47.001z" />
    <glyph glyph-name="afii10099" unicode="&#x452;" horiz-adv-x="579" 
d="M386 620l-22.998 -64h-159v-58l-3 -54c46.667 42 99.334 63 158.001 63c46.667 0 81.667 -12.667 105 -38s35 -63.666 35 -114.999v-286c0 -92.667 -15.333 -160.334 -46 -203.001c-24.667 -35.333 -57.334 -60.333 -98.001 -75l-48 64c22 13.333 39.667 30.333 53 51
c13.333 19.333 21.666 38.5 24.999 57.5s5 44.833 5 77.5v294c0 32 -5.33301 53.333 -16 64s-26.334 16 -47.001 16c-22.667 0 -45 -6.33301 -67 -19c-21.333 -10 -40 -24 -56 -42v-353h-109v556h-55v64h55v117l109 -17v-100h182z" />
    <glyph glyph-name="afii10100" unicode="&#x453;" horiz-adv-x="411" 
d="M184 0h-109v506h316l-13 -82h-194v-424zM139 560l-34 63l204 132l50 -93z" />
    <glyph glyph-name="afii10101" unicode="&#x454;" horiz-adv-x="467" 
d="M167 219l-0.000976562 -10c0 -55.333 10 -93.333 30 -114c16.667 -17.333 42 -26 76 -26c26.667 0 50.667 6.66699 72 20c0.666992 0.666992 3 2.33398 7 5.00098s9 6.33398 15 11.001s11.667 9.66699 17 15l53 -65c-19.333 -19.333 -40 -34.333 -62 -45
c-31.333 -15.333 -67.666 -23 -108.999 -23c-69.333 0 -122 20 -158 60c-42 44 -63 111.333 -63 202c0 96 24 168 72 216c36 36 85 54 147 54c37.333 0 68.333 -5.66699 93 -17c26 -10.667 48 -24.334 66 -41.001l-53 -66c-11.333 11.333 -24.333 20.666 -39 27.999
c-20 9.33301 -40.333 14 -61 14c-30 0 -54 -9 -72 -27c-20.667 -22 -31 -53.667 -31 -95v-14h145v-82h-145z" />
    <glyph glyph-name="afii10102" unicode="&#x455;" horiz-adv-x="474" 
d="M434 158c0 -51.333 -19.002 -92.833 -57.002 -124.5s-87.333 -47.5 -148 -47.5c-62 0 -126.667 18.667 -194 56l39 79c58.667 -35.333 113.334 -53 164.001 -53c24 0 43.667 6.5 59 19.5s23 30.167 23 51.5c0 19.333 -6.5 34.5 -19.5 45.5s-33.833 19.5 -62.5 25.5
l-61 13c-38 8 -67.667 24.167 -89 48.5s-32 54.5 -32 90.5c0 48 17.167 86.167 51.5 114.5s79.833 42.5 136.5 42.5s112.334 -14.667 167.001 -44l-36 -76c-44 25.333 -85.333 38 -124 38c-24 0 -42.833 -5.33301 -56.5 -16s-20.5 -25.667 -20.5 -45c0 -16 5 -28.5 15 -37.5
s27.667 -16.833 53 -23.5l63 -16c86 -22.667 129 -69.667 129 -141z" />
    <glyph glyph-name="afii10103" unicode="&#x456;" horiz-adv-x="271" 
d="M81 0v498l109 20v-518h-109zM209 654c0 -20 -7.16699 -37.167 -21.5 -51.5s-31.833 -21.5 -52.5 -21.5c-20 0 -36.833 7.16699 -50.5 21.5s-20.5 31.5 -20.5 51.5c0 20.667 7 38.167 21 52.5s31.333 21.5 52 21.5c20 0 37 -7 51 -21s21 -31.667 21 -53z" />
    <glyph glyph-name="afii10104" unicode="&#x457;" horiz-adv-x="271" 
d="M122 648c0 -18 -5.5 -33.668 -16.5 -47.001s-23.833 -20 -38.5 -20c-15.333 0 -28.333 6.5 -39 19.5s-16 28.833 -16 47.5s5.33301 34.334 16 47.001s23.667 19 39 19c14.667 0 27.5 -6.5 38.5 -19.5s16.5 -28.5 16.5 -46.5zM259 647.999
c0 -18.667 -5.33203 -34.5 -15.999 -47.5s-23.667 -19.5 -39 -19.5c-14.667 0 -27.5 6.66699 -38.5 20s-16.5 29 -16.5 47c0 18.667 5.5 34.334 16.5 47.001s24.167 19 39.5 19s28.166 -6.33301 38.499 -19s15.5 -28.334 15.5 -47.001zM81.001 -0.000976562v498l109 20v-518
h-109z" />
    <glyph glyph-name="afii10105" unicode="&#x458;" horiz-adv-x="271" 
d="M189 12c0 -68 -12.333 -118.667 -37 -152c-23.333 -29.333 -55 -53.333 -95 -72l-45 64c26 18 43.833 38.5 53.5 61.5s14.5 55.5 14.5 97.5v487l109 20v-506zM208 656c0 -21.333 -7.16699 -39.168 -21.5 -53.501s-31.833 -21.5 -52.5 -21.5c-20 0 -37 7 -51 21
s-21 31.333 -21 52c0 20 7.16699 37.333 21.5 52s31.5 22 51.5 22s37.167 -7.16699 51.5 -21.5s21.5 -31.166 21.5 -50.499z" />
    <glyph glyph-name="afii10106" unicode="&#x459;" horiz-adv-x="760" 
d="M454 78l63 0.000976562c33.333 0 57.333 7.33301 72 22c13.333 13.333 20 32.666 20 57.999c0 26.667 -7 47 -21 61c-15.333 14.667 -40 22 -74 22h-60v-163zM527 319.001c72 0 124.332 -16.333 156.999 -49c27.333 -28 41 -65.667 41 -113
c0 -46.667 -13 -83.667 -39 -111c-30 -30.667 -80 -46 -150 -46h-191v424h-114l-4 -55c-0.666992 -10 -2 -28.167 -4 -54.5s-3.66699 -47.166 -5 -62.499c-6 -54.667 -11 -97.667 -15 -129c-6 -41.333 -19 -72 -39 -92c-22.667 -20.667 -57.667 -33.334 -105 -38.001l-27 -3
l-22 75l22 5c20.667 5.33301 37 14 49 26c6 6 11 12.833 15 20.5s7.16699 17.167 9.5 28.5s4 20.833 5 28.5s2.33301 19.834 4 36.501s2.83398 28.667 3.50098 36c2.66699 20 4.66699 38.667 6 56s2.5 36.166 3.5 56.499s2.16699 37.833 3.5 52.5l6 95h317v-187h73z" />
    <glyph glyph-name="afii10107" unicode="&#x45a;" horiz-adv-x="770" 
d="M464 78l63 0.000976562c33.333 0 57.333 7.33301 72 22c13.333 13.333 20 32.666 20 57.999c0 26.667 -7 47 -21 61c-15.333 14.667 -40 22 -74 22h-60v-163zM464 518.001v-199h73c72 0 124.333 -16.333 157 -49c27.333 -28 41 -65.667 41 -113
c0 -46.667 -13 -83.667 -39 -111c-30 -30.667 -80 -46 -150 -46h-191v241h-171v-241h-109v497l109 21v-199h171v178z" />
    <glyph glyph-name="afii10108" unicode="&#x45b;" horiz-adv-x="580" 
d="M391 0l0.000976562 334c0 30.667 -5.33301 52 -16 64c-10.667 10.667 -25.667 16 -45 16c-22 0 -45 -6.33301 -69 -19c-20.667 -11.333 -39.667 -25.333 -57 -42v-353h-109v556h-55v64h55v117l109 -17v-100h182l-23 -64h-159v-58l-2 -54c16.667 16 39.667 30.667 69 44
c28 12.667 57 19 87 19c45.333 0 80.666 -12.667 105.999 -38c24 -24 36 -62.333 36 -115v-354h-109z" />
    <glyph glyph-name="afii10109" unicode="&#x45c;" horiz-adv-x="518" 
d="M75 497l109 20.9971v-212h47c27.333 0 46 5 56 15c8.66699 8.66699 15.667 24.334 21 47.001l13 57c5.33301 26 14.333 45.333 27 58c14 15.333 41 25 81 29l37 4l20 -75l-25 -5c-15.333 -5.33301 -24.666 -9.33301 -27.999 -12c-6 -4.66699 -12 -16 -18 -34l-16 -54
c-4.66699 -18.667 -13 -34 -25 -46c-10.667 -10.667 -24 -17.667 -40 -21v-2c12.667 -3.33301 25 -10 37 -20c10.667 -10.667 20.667 -28.667 30 -54l25 -75c5.33301 -15.333 11.666 -26.666 18.999 -33.999c3.33301 -3.33301 7 -6 11 -8s8.5 -3.5 13.5 -4.5
s7.83301 -1.83301 8.5 -2.5l20 -4l-20 -75l-34 3c-16.667 1.33301 -28.667 2.5 -36 3.5s-17 3.66699 -29 8s-22.333 10.5 -31 18.5c-14 14 -24.333 36.333 -31 67l-16 71c-5.33301 24.667 -13 41.334 -23 50.001s-26.333 13 -49 13h-45v-224h-109v497zM189 559.997l-34 63
l204 132l50 -93z" />
    <glyph glyph-name="afii10110" unicode="&#x45e;" horiz-adv-x="483" 
d="M361 695c-60 -77.333 -116.002 -116 -168.002 -116s-108 38.667 -168 116l33 43c14.667 -14.667 34.834 -29.5 60.501 -44.5s51.834 -22.5 78.501 -22.5c39.333 0 84 22.333 134 67zM429.998 506l-187.001 -540.001c-20 -57.333 -43 -99 -69 -125
c-24.667 -25.333 -64.667 -44.333 -120 -57l-36 71c40 10.667 68 25.334 84 44.001c22.667 22.667 40.334 56.334 53.001 101.001h-35c-6.66699 26 -21 73.667 -43 143l-120 355l112 19l93 -308c1.33301 -4.66699 10.333 -42.334 27 -113.001h2c8.66699 38.667 21 84 37 136
l84 274h118z" />
    <glyph glyph-name="afii10193" unicode="&#x45f;" horiz-adv-x="525" 
d="M450 518v-518h-138v-149h-98v149h-139v497l109 21v-436h157v415z" />
    <glyph glyph-name="afii10050" unicode="&#x490;" horiz-adv-x="471" 
d="M80 0v692h272v156h104v-250h-261v-598h-115z" />
    <glyph glyph-name="afii10098" unicode="&#x491;" horiz-adv-x="423" 
d="M184 0h-109v506h223v144h100v-226h-214v-424z" />
    <glyph glyph-name="uni2010" unicode="&#x2010;" horiz-adv-x="319" 
d="M50 221v102h219v-102h-219z" />
    <glyph glyph-name="endash" unicode="&#x2013;" horiz-adv-x="583" 
d="M50 233v87h483v-87h-483z" />
    <glyph glyph-name="emdash" unicode="&#x2014;" horiz-adv-x="809" 
d="M50 233v87h709v-87h-709z" />
    <glyph glyph-name="quoteleft" unicode="&#x2018;" horiz-adv-x="267" 
d="M222 665c-20 -6.66699 -36.333 -16.335 -49 -29.002s-19 -26 -19 -40c0 -6 3.33301 -11.167 10 -15.5s14.167 -8.16602 22.5 -11.499s15.833 -10.5 22.5 -21.5s10 -24.833 10 -41.5c0 -22 -7.66699 -40.833 -23 -56.5s-34 -23.5 -56 -23.5c-26 0 -47.5 10.333 -64.5 31
s-25.5 47.334 -25.5 80.001c0 39.333 12 75.333 36 108s56 56 96 70z" />
    <glyph glyph-name="quoteright" unicode="&#x2019;" horiz-adv-x="267" 
d="M217 597c0 -42 -12.999 -80 -38.999 -114c-24.667 -30 -55.334 -51.333 -92.001 -64l-41 49c20.667 6.66699 37.167 16.5 49.5 29.5s18.5 26.833 18.5 41.5c0 7.33301 -7.33301 14.333 -22 21c-28.667 12 -43 34.333 -43 67c0 22.667 7.66699 41.667 23 57s34 23 56 23
c26 0 47.5 -10.333 64.5 -31s25.5 -47 25.5 -79z" />
    <glyph glyph-name="quotesinglbase" unicode="&#x201a;" horiz-adv-x="267" 
d="M217 35c0 -41.333 -12.168 -77.832 -36.501 -109.499s-56.166 -54.834 -95.499 -69.501l-40 50c20 6.66699 36.333 16.667 49 30s19 27 19 41c0 7.33301 -7.33301 14.333 -22 21c-28.667 12 -43 34.333 -43 67c0 22.667 7.66699 41.667 23 57s34 23 56 23
c26 0 47.5 -10.333 64.5 -31s25.5 -47 25.5 -79z" />
    <glyph glyph-name="quotedblleft" unicode="&#x201c;" horiz-adv-x="481" 
d="M222 665c-21.333 -6 -38.167 -15.502 -50.5 -28.502s-18.5 -26.833 -18.5 -41.5c0 -5.33301 3.5 -10.166 10.5 -14.499s14.5 -8.5 22.5 -12.5s15.5 -11.333 22.5 -22s10.5 -24 10.5 -40c0 -22 -7.66699 -40.833 -23 -56.5s-34.333 -23.5 -57 -23.5
c-26 0 -47.333 10.333 -64 31s-25 47.334 -25 80.001c0 40.667 13 78 39 112c25.333 31.333 56 53.333 92 66zM435.999 664.998c-20 -6 -36.332 -15.502 -48.999 -28.502s-19 -26.833 -19 -41.5c0 -3.33301 1.16699 -6.16602 3.5 -8.49902s7.16602 -5.66602 14.499 -9.99902
s12.333 -7.16602 15 -8.49902c22 -12.667 33 -33.334 33 -62.001c0 -22 -7.83301 -40.833 -23.5 -56.5s-34.5 -23.5 -56.5 -23.5c-26 0 -47.333 10.333 -64 31s-25 47.334 -25 80.001c0 41.333 12.667 78.666 38 111.999c24 30 55 52 93 66z" />
    <glyph glyph-name="quotedblright" unicode="&#x201d;" horiz-adv-x="482" 
d="M218 597c0 -40 -12.167 -76.334 -36.5 -109.001s-56.166 -55.667 -95.499 -69l-41 49c21.333 6.66699 38.166 16.5 50.499 29.5s18.5 26.833 18.5 41.5c0 2.66699 -2.33301 6.33398 -7 11.001s-9.66699 8 -15 10c-28.667 10.667 -43 33 -43 67
c0 22.667 7.5 41.667 22.5 57s33.833 23 56.5 23c26 0 47.5 -10.333 64.5 -31s25.5 -47 25.5 -79zM432 596.999c0 -42.667 -11.999 -79.501 -35.999 -110.501s-55.667 -53.5 -95 -67.5l-41 49c21.333 6.66699 38 16.5 50 29.5s18 26.833 18 41.5
c0 2.66699 -2.33301 6.33398 -7 11.001s-9.33398 8 -14.001 10c-28.667 12 -43 34.333 -43 67c0 22.667 7.5 41.667 22.5 57s33.833 23 56.5 23c26 0 47.333 -10.333 64 -31s25 -47 25 -79z" />
    <glyph glyph-name="quotedblbase" unicode="&#x201e;" horiz-adv-x="482" 
d="M217 35c0 -41.333 -12.168 -77.832 -36.501 -109.499s-56.166 -54.834 -95.499 -69.501l-40 50c20 6.66699 36.333 16.667 49 30s19 27 19 41c0 7.33301 -7.33301 14.333 -22 21c-28.667 12 -43 34.333 -43 67c0 22.667 7.66699 41.667 23 57s34 23 56 23
c26 0 47.5 -10.333 64.5 -31s25.5 -47 25.5 -79zM431.999 35.001c0 -41.333 -12.168 -77.832 -36.501 -109.499s-56.166 -54.834 -95.499 -69.501l-40 50c20 6.66699 36.333 16.667 49 30s19 27 19 41c0 7.33301 -7.33301 14.333 -22 21c-28.667 12 -43 34.333 -43 67
c0 22.667 7.66699 41.667 23 57s34 23 56 23c26 0 47.5 -10.333 64.5 -31s25.5 -47 25.5 -79z" />
    <glyph glyph-name="dagger" unicode="&#x2020;" horiz-adv-x="476" 
d="M434 439h-143v-439h-109v439h-152v97h152v156h109v-156h160z" />
    <glyph glyph-name="daggerdbl" unicode="&#x2021;" horiz-adv-x="490" 
d="M443 438h-143v-184h152v-98h-152v-156h-109v156h-161l17 98h144v184h-152v99h152v155h109v-155h160z" />
    <glyph glyph-name="bullet" unicode="&#x2022;" horiz-adv-x="490" 
d="M420 355c0 -49.333 -17 -91.166 -51 -125.499s-75.333 -51.5 -124 -51.5s-90 17.167 -124 51.5s-51 76.166 -51 125.499s17 91.166 51 125.499s75.333 51.5 124 51.5s90 -17.167 124 -51.5s51 -76.166 51 -125.499z" />
    <glyph glyph-name="ellipsis" unicode="&#x2026;" horiz-adv-x="762" 
d="M217 67c0 -22.667 -7.66797 -42 -23.001 -58s-33.666 -24 -54.999 -24c-22 0 -40.667 8 -56 24s-23 35.333 -23 58c0 22 7.5 40.667 22.5 56s33.167 23 54.5 23c22 0 40.833 -7.66699 56.5 -23s23.5 -34 23.5 -56zM458.999 67c0 -22.667 -7.5 -42 -22.5 -58
s-33.5 -24 -55.5 -24s-40.5 8 -55.5 24s-22.5 35.333 -22.5 58c0 22 7.5 40.667 22.5 56s33.167 23 54.5 23c22 0 40.667 -7.66699 56 -23s23 -34 23 -56zM701.999 67c0 -22.667 -7.66699 -42 -23 -58s-33.666 -24 -54.999 -24c-22 0 -40.667 8 -56 24s-23 35.333 -23 58
c0 22 7.66699 40.667 23 56s33.666 23 54.999 23s39.833 -7.66699 55.5 -23s23.5 -34 23.5 -56z" />
    <glyph glyph-name="perthousand" unicode="&#x2030;" horiz-adv-x="1208" 
d="M1086 160c0 38.667 -6.16699 66.5 -18.5 83.5s-31.833 25.5 -58.5 25.5s-45.667 -8.66699 -57 -26s-17 -43 -17 -77c0 -40.667 6 -69.167 18 -85.5s31.333 -24.5 58 -24.5c26 0 45 8.33301 57 25s18 43 18 79zM1178 162c0 -53.333 -14.999 -95.1689 -44.999 -125.502
s-71 -45.5 -123 -45.5s-92.667 15.333 -122 46s-44 72.334 -44 125.001c0 52 15.167 93.5 45.5 124.5s70.166 46.5 119.499 46.5c53.333 0 94.833 -15.167 124.5 -45.5s44.5 -72.166 44.5 -125.499zM713.001 159.997c0 39.333 -6.33301 67.333 -19 84s-32 25 -58 25
c-50 0 -75 -34.333 -75 -103c0 -40.667 5.83301 -69.167 17.5 -85.5s31.5 -24.5 59.5 -24.5c26 0 45 8.33301 57 25s18 43 18 79zM804.001 161.997c0 -53.333 -15.165 -95.168 -45.498 -125.501s-70.833 -45.5 -121.5 -45.5c-52 0 -92.667 15.333 -122 46
s-44 72.334 -44 125.001c0 52 15.167 93.5 45.5 124.5s70.166 46.5 119.499 46.5c53.333 0 94.666 -15 123.999 -45s44 -72 44 -126zM282.003 -0.00488281h-79l351 692h80zM272.003 526.995c0 38 -6.16699 65.667 -18.5 83s-31.833 26 -58.5 26c-50 0 -75 -34.667 -75 -104
c0 -39.333 6 -67.5 18 -84.5s31.667 -25.5 59 -25.5c26 0 45 8.5 57 25.5s18 43.5 18 79.5zM363.003 527.995c0 -53.333 -14.833 -95.001 -44.5 -125.001s-70.5 -45 -122.5 -45s-92.667 15.333 -122 46s-44 72.334 -44 125.001c0 52 15.167 93.5 45.5 124.5
s70.166 46.5 119.499 46.5c52.667 0 93.834 -14.833 123.501 -44.5s44.5 -72.167 44.5 -127.5z" />
    <glyph glyph-name="guilsinglleft" unicode="&#x2039;" horiz-adv-x="285" 
d="M181 20l-151 226l151 227l74 -50l-115 -177l115 -176z" />
    <glyph glyph-name="guilsinglright" unicode="&#x203a;" horiz-adv-x="286" 
d="M105 20l-75 50l117 176l-117 177l75 50l151 -227z" />
    <glyph glyph-name="Euro" unicode="&#x20ac;" horiz-adv-x="627" 
d="M597 30c-45.333 -27.333 -98.332 -41 -158.999 -41c-89.333 0 -162.333 33.333 -219 100c-30.667 38 -52.667 82.667 -66 134h-113v87h101c0 2.66699 -0.166992 7 -0.5 13s-0.5 10.333 -0.5 13c0 12 0.666992 28.667 2 50h-102v87h117c6 23.333 15.667 47.666 29 72.999
c26 50 61.5 89 106.5 117s94.5 42 148.5 42c57.333 0 104.666 -11.333 141.999 -34l-23 -96c-35.333 26 -74.666 39 -117.999 39c-59.333 0 -105.333 -27.667 -138 -83c-8.66699 -16 -16.334 -35.333 -23.001 -58h222v-87h-234c-0.666992 -4 -1 -10 -1 -18v-19
c0 -5.33301 0.166992 -12.166 0.5 -20.499s0.5 -14.5 0.5 -18.5h234v-87h-224c4 -16 9.33301 -31.333 16 -46c30 -65.333 81.333 -98 154 -98c46 0 87.333 14.667 124 44z" />
    <glyph glyph-name="afii61352" unicode="&#x2116;" horiz-adv-x="978" 
d="M777 634c-16 0 -28.333 -4.33398 -37 -13.001c-14 -13.333 -21 -44.333 -21 -93c0 -49.333 7 -80.666 21 -93.999c8.66699 -8.66699 21 -13 37 -13c16.667 0 29.334 4.33301 38.001 13c14 14 21 45.333 21 94c0 48 -7 79 -21 93c-8.66699 8.66699 -21.334 13 -38.001 13z
M918 527.999c0 -57.333 -14 -100 -42 -128c-24.667 -24.667 -57.334 -37 -98.001 -37c-41.333 0 -74.333 12.333 -99 37c-28 28 -42 70.667 -42 128c0 54.667 14 97 42 127c24.667 24.667 57.667 37 99 37c40.667 0 73.334 -12.333 98.001 -37c28 -30 42 -72.333 42 -127z
M428 -0.000976562l-155.002 325c-20.667 42 -39.334 82.667 -56.001 122c-15.333 34 -26.666 61.667 -33.999 83l-3 -3c4 -45.333 6.33301 -106.666 7 -183.999l4 -343h-111v692h130l168 -338c14.667 -32 29.334 -66 44.001 -102c10.667 -26.667 19 -52 25 -76l3 3
c0 3.33301 -0.666992 15.166 -2 35.499s-2.66602 37.5 -3.99902 51.5c-2.66699 24 -4 60.667 -4 110l-2 316h111v-692h-121zM641.998 201.999v58h271v-58h-271z" />
    <glyph glyph-name="trademark" unicode="&#x2122;" horiz-adv-x="985" 
d="M242 627v-331h-89v331h-123v81h335v-81h-123zM836 296v301h-5l-113 -301h-58l-112 299l-5 1v-300h-89v412h127l109 -290l108 290h127v-412h-89z" />
    <glyph glyph-name="uni2219" unicode="&#x2219;" horiz-adv-x="276" 
d="M216 276c0 -22 -7.66699 -41 -23 -57s-33.666 -24 -54.999 -24c-22 0 -40.5 8 -55.5 24s-22.5 35 -22.5 57c0 22.667 7.66699 41.834 23 57.501s33.666 23.5 54.999 23.5c22 0 40.5 -7.83301 55.5 -23.5s22.5 -34.834 22.5 -57.501z" />
    <glyph glyph-name="dotmath" unicode="&#x22c5;" horiz-adv-x="276" 
d="M216 276c0 -22 -7.66699 -41 -23 -57s-33.666 -24 -54.999 -24c-22 0 -40.5 8 -55.5 24s-22.5 35 -22.5 57c0 22.667 7.66699 41.834 23 57.501s33.666 23.5 54.999 23.5c22 0 40.5 -7.83301 55.5 -23.5s22.5 -34.834 22.5 -57.501z" />
    <glyph glyph-name=".null" horiz-adv-x="0" 
 />
    <glyph glyph-name="nonmarkingreturn" horiz-adv-x="333" 
 />
    <glyph glyph-name="tt1" horiz-adv-x="0" 
 />
    <glyph glyph-name="tt2" horiz-adv-x="225" 
 />
    <glyph glyph-name="tt3" horiz-adv-x="319" 
d="M50 221v102h219v-102h-219z" />
    <glyph glyph-name="tt4" horiz-adv-x="546" 
d="M421 -14c-21.333 16 -36 37 -44 63c-36.667 -42 -84.667 -63 -144 -63c-19.333 0 -34.666 5.66699 -45.999 17c2 -22 3 -37 3 -45v-146l-110 -27v714l108 21v-349c0 -38 6 -63.667 18 -77c13.333 -14.667 31 -22 53 -22c20 0 39.667 6.16699 59 18.5s33 27.5 41 45.5v360
l107 22v-384c0 -21.333 2.66699 -40 8 -56s10.666 -26.667 15.999 -32l7 -9z" />
    <glyph glyph-name="tt5" horiz-adv-x="314" 
d="M64 560l-34 63l204 132l50 -93z" />
    <glyph glyph-name="tt6" horiz-adv-x="444" 
d="M184 630c0 -19.333 -6.5 -35.833 -19.5 -49.5s-28.833 -20.5 -47.5 -20.5s-34.5 6.83301 -47.5 20.5s-19.5 30.167 -19.5 49.5s6.5 35.833 19.5 49.5s28.833 20.5 47.5 20.5s34.5 -6.83301 47.5 -20.5s19.5 -30.167 19.5 -49.5zM394 630
c0 -19.333 -6.66699 -35.833 -20 -49.5s-29.333 -20.5 -48 -20.5s-34.5 6.83301 -47.5 20.5s-19.5 30.167 -19.5 49.5s6.5 35.833 19.5 49.5s29.167 20.5 48.5 20.5c18 0 33.667 -6.83301 47 -20.5s20 -30.167 20 -49.5z" />
    <glyph glyph-name="tt7" horiz-adv-x="206" 
d="M176 653c0 -20.667 -7.16699 -38.3359 -21.5 -53.0029s-31.833 -22 -52.5 -22c-20 0 -37 7.33301 -51 22s-21 32.334 -21 53.001s7.16699 38.334 21.5 53.001s31.5 22 51.5 22s37.167 -7.16699 51.5 -21.5s21.5 -32.166 21.5 -53.499z" />
    <glyph glyph-name="tt8" horiz-adv-x="470" 
d="M395 700c-11.333 -31.333 -29.999 -57 -55.999 -77c-26.667 -20.667 -61.334 -31 -104.001 -31s-77.334 10.333 -104.001 31c-26 20 -44.667 45.667 -56 77l55 31c8 -11.333 15 -20.333 21 -27c20.667 -22 49.334 -33 86.001 -33c32.667 0 60 11 82 33
c6 6.66699 13 15.667 21 27z" />
    <glyph glyph-name="tt9" horiz-adv-x="314" 
d="M64 720l-34 63l204 132l50 -93z" />
    <glyph glyph-name="tt10" horiz-adv-x="444" 
d="M184 808c0 -19.333 -6.5 -35.833 -19.5 -49.5s-28.833 -20.5 -47.5 -20.5s-34.5 6.83301 -47.5 20.5s-19.5 30.167 -19.5 49.5s6.5 35.833 19.5 49.5s28.833 20.5 47.5 20.5s34.5 -6.83301 47.5 -20.5s19.5 -30.167 19.5 -49.5zM394 808
c0 -19.333 -6.66699 -35.833 -20 -49.5s-29.333 -20.5 -48 -20.5s-34.5 6.83301 -47.5 20.5s-19.5 30.167 -19.5 49.5s6.5 35.833 19.5 49.5s29.167 20.5 48.5 20.5c18 0 33.667 -6.83301 47 -20.5s20 -30.167 20 -49.5z" />
    <glyph glyph-name="tt11" horiz-adv-x="472" 
d="M392 845c-8 -23.333 -20 -43 -36 -59c-27.333 -29.333 -67 -44 -119 -44c-51.333 0 -92 15.667 -122 47c-14 14 -25.667 32.667 -35 56l57 31c10 -17.333 23 -31 39 -41s36 -15 60 -15s44 5 60 15c16.667 10 29.667 24 39 42z" />
    <glyph glyph-name="tt12" horiz-adv-x="271" 
d="M80 0v498l111 20v-518h-111z" />
    <glyph glyph-name="tt0" horiz-adv-x="500" 
d="M442 8v496h-384v-496h384zM50 512h400v-512h-400v512z" />
  </font>
</defs>
</svg>
